<svg xmlns="http://www.w3.org/2000/svg" xmlns:xlink="http://www.w3.org/1999/xlink" width="151.06mm" height="27.6mm" viewBox="0 0 428.2 78.23"><defs><linearGradient id="a" x1="99.75" y1="46.42" x2="159.39" y2="46.42" gradientUnits="userSpaceOnUse"><stop offset="0" stop-color="#f2762e"/><stop offset="1" stop-color="#248ea6"/></linearGradient><linearGradient id="b" x1="101.21" y1="46.79" x2="157.11" y2="46.79" gradientUnits="userSpaceOnUse"><stop offset="0" stop-color="#030540"/><stop offset="1" stop-color="#2a329b"/></linearGradient></defs><title>stormcell-white-svg</title><path d="M101.56,126.38a20.52,20.52,0,0,1,1.69-8.29,21.69,21.69,0,0,1,11.37-11.37A20.53,20.53,0,0,1,122.9,105h32.66v14.25H122.9a7,7,0,0,0-7.1,7.1,7.24,7.24,0,0,0,.55,2.8,7,7,0,0,0,3.77,3.8,7.06,7.06,0,0,0,2.78.55h14.25a21,21,0,0,1,8.31,1.66,21.24,21.24,0,0,1,11.37,11.37,21.56,21.56,0,0,1,0,16.6,21.48,21.48,0,0,1-4.57,6.78,21.73,21.73,0,0,1-6.8,4.59,20.7,20.7,0,0,1-8.31,1.69H105.53V162h31.62a7.1,7.1,0,1,0,0-14.2H122.9a20.52,20.52,0,0,1-8.29-1.69,21.62,21.62,0,0,1-11.37-11.39A20.69,20.69,0,0,1,101.56,126.38Z" transform="translate(-101.56 -101.91)" fill="#fff"/><path d="M192.15,176.22a23.07,23.07,0,0,1-9.23-1.86,24,24,0,0,1-12.68-12.68,23.07,23.07,0,0,1-1.86-9.23V136.65h-6.6v-13.5h6.6V101.91h13.5v21.25h20.55v13.5H181.88v15.79a10.06,10.06,0,0,0,.79,4,10.2,10.2,0,0,0,2.18,3.25,10.47,10.47,0,0,0,3.28,2.21,10,10,0,0,0,4,.82h10.28v13.5Z" transform="translate(-101.56 -101.91)" fill="#fff"/><path d="M280.46,176.22H266.91V123.05h3.28l4.47,6.3a24,24,0,0,1,16.08-6.21h12v13.5h-12a10.26,10.26,0,0,0-4,.79,10,10,0,0,0-5.46,5.46,10.25,10.25,0,0,0-.79,4Z" transform="translate(-101.56 -101.91)" fill="#fff"/><path d="M376.62,176.22h-13.5V142.46a6.78,6.78,0,0,0-6.8-6.8,6.54,6.54,0,0,0-4.74,2,7,7,0,0,0-1.44,2.18,6.73,6.73,0,0,0-.52,2.63v33.76H336.06V142.46a6.78,6.78,0,0,0-6.8-6.8,6.54,6.54,0,0,0-4.74,2,7,7,0,0,0-1.44,2.18,6.74,6.74,0,0,0-.52,2.63v33.76H309V123.05h3.28l3.67,4.07a21.88,21.88,0,0,1,6.23-3.7,19.45,19.45,0,0,1,7.07-1.32,19.79,19.79,0,0,1,7.27,1.39,14.73,14.73,0,0,1,6.23,4.81,13.74,13.74,0,0,1,2.83-2.88,15.83,15.83,0,0,1,3.35-1.94,16.47,16.47,0,0,1,3.65-1.07,22.08,22.08,0,0,1,3.72-.32,19.86,19.86,0,0,1,7.92,1.59A20.22,20.22,0,0,1,375,134.52a20,20,0,0,1,1.59,7.94Z" transform="translate(-101.56 -101.91)" fill="#fff"/><path d="M433,133.63l-9.93,10a13.44,13.44,0,0,0-2-3.75,13.73,13.73,0,0,0-2.9-2.8,12.58,12.58,0,0,0-3.5-1.74,12.77,12.77,0,0,0-3.87-.6,12.28,12.28,0,0,0-5.24,1.14,12.85,12.85,0,0,0-4.27,3.2,15.37,15.37,0,0,0-2.85,4.89,18,18,0,0,0-1,6.25,13.1,13.1,0,0,0,1,5.21,13.7,13.7,0,0,0,2.85,4.27,13.12,13.12,0,0,0,4.27,2.88,13.66,13.66,0,0,0,9.06.5A13.82,13.82,0,0,0,418,161.5a12.83,12.83,0,0,0,2.88-2.48,13,13,0,0,0,2.06-3.25l9.93,10a26.78,26.78,0,0,1-4.34,4.82,27.42,27.42,0,0,1-5.31,3.62,26.52,26.52,0,0,1-6,2.26,27.23,27.23,0,0,1-6.48.77,26.57,26.57,0,0,1-10.55-2.11,27.21,27.21,0,0,1-14.47-14.37,26.13,26.13,0,0,1-2.13-10.52,30.34,30.34,0,0,1,2.13-11.42,29.44,29.44,0,0,1,5.83-9.26,27.58,27.58,0,0,1,8.64-6.23A24.84,24.84,0,0,1,410.72,121a25.51,25.51,0,0,1,6.53.84,26.34,26.34,0,0,1,11.47,6.4A24.57,24.57,0,0,1,433,133.63Z" transform="translate(-101.56 -101.91)" fill="#fff"/><path d="M459.92,163.21a7.64,7.64,0,0,0,1.59.32c.53,0,1.06.08,1.59.08a13.34,13.34,0,0,0,3.82-.55,13.81,13.81,0,0,0,3.45-1.56,12.83,12.83,0,0,0,2.88-2.48,13,13,0,0,0,2.06-3.25l9.93,10a26.74,26.74,0,0,1-4.34,4.82,27.42,27.42,0,0,1-5.31,3.62,26.56,26.56,0,0,1-6,2.26,27.25,27.25,0,0,1-6.48.77,26.83,26.83,0,0,1-19.19-7.89,27.24,27.24,0,0,1-5.83-8.86,29.14,29.14,0,0,1-2.13-11.29,30.1,30.1,0,0,1,2.13-11.52,26,26,0,0,1,14.47-14.59,27.41,27.41,0,0,1,10.55-2,26.75,26.75,0,0,1,6.5.79A27.23,27.23,0,0,1,481,127.74a27,27,0,0,1,4.37,4.84Zm6.95-27.95a7.87,7.87,0,0,0-1.86-.45,17.85,17.85,0,0,0-1.91-.1,13.57,13.57,0,0,0-5.24,1,12.47,12.47,0,0,0-4.27,2.9,13.69,13.69,0,0,0-2.85,4.54,16.26,16.26,0,0,0-1,6q0,.74.07,1.69t.25,1.91q.17,1,.42,1.86a6.86,6.86,0,0,0,.65,1.59Z" transform="translate(-101.56 -101.91)" fill="#fff"/><path d="M505.78,176.22H492.13V101.91h13.65Z" transform="translate(-101.56 -101.91)" fill="#fff"/><path d="M529.76,176.22H516.11V101.91h13.65Z" transform="translate(-101.56 -101.91)" fill="#fff"/><circle cx="129.57" cy="46.42" r="29.82" fill="url(#a)"/><circle cx="129.16" cy="46.79" r="27.95" fill="url(#b)"/><path d="M230.11,130.94a.74.74,0,0,1-.49.88c-.33,0-.64-.27-.69-.71a.74.74,0,0,1,.49-.88C229.75,130.19,230.06,130.51,230.11,130.94Z" transform="translate(-101.56 -101.91)"/><path d="M231.5,130.74a.74.74,0,0,1-.49.88c-.33,0-.64-.27-.69-.71a.74.74,0,0,1,.49-.88C231.14,130,231.45,130.3,231.5,130.74Z" transform="translate(-101.56 -101.91)"/><path d="M233,130.52a.74.74,0,0,1-.49.88c-.33,0-.64-.27-.69-.71a.74.74,0,0,1,.49-.88C232.6,129.77,232.91,130.09,233,130.52Z" transform="translate(-101.56 -101.91)"/><path d="M234.45,130.31a.74.74,0,0,1-.49.88c-.33,0-.64-.27-.69-.71a.74.74,0,0,1,.49-.88C234.08,129.55,234.39,129.87,234.45,130.31Z" transform="translate(-101.56 -101.91)"/><path d="M235.88,130.1a.74.74,0,0,1-.49.88c-.33,0-.64-.27-.69-.71a.74.74,0,0,1,.49-.88C235.52,129.34,235.83,129.66,235.88,130.1Z" transform="translate(-101.56 -101.91)"/><path d="M237.31,129.88a.74.74,0,0,1-.49.88c-.33,0-.64-.27-.69-.71a.74.74,0,0,1,.49-.88C236.95,129.13,237.26,129.45,237.31,129.88Z" transform="translate(-101.56 -101.91)"/><path d="M241.77,129.23a.74.74,0,0,1-.49.88c-.33,0-.64-.27-.69-.71a.74.74,0,0,1,.49-.88C241.4,128.48,241.71,128.79,241.77,129.23Z" transform="translate(-101.56 -101.91)"/><path d="M240.36,129.44a.74.74,0,0,1-.49.88c-.33,0-.64-.27-.69-.71a.74.74,0,0,1,.49-.88C240,128.68,240.31,129,240.36,129.44Z" transform="translate(-101.56 -101.91)"/><path d="M238.86,129.66a.74.74,0,0,1-.49.88c-.33,0-.64-.27-.69-.71a.74.74,0,0,1,.49-.88C238.5,128.9,238.81,129.22,238.86,129.66Z" transform="translate(-101.56 -101.91)"/><path d="M229.36,133a.74.74,0,0,1-.49.88c-.33,0-.64-.27-.69-.71a.74.74,0,0,1,.49-.88C229,132.25,229.3,132.57,229.36,133Z" transform="translate(-101.56 -101.91)"/><path d="M230.75,132.8a.74.74,0,0,1-.49.88c-.33,0-.64-.27-.69-.71a.74.74,0,0,1,.49-.88C230.38,132,230.69,132.36,230.75,132.8Z" transform="translate(-101.56 -101.91)"/><path d="M232.21,132.59a.74.74,0,0,1-.49.88c-.33,0-.64-.27-.69-.71a.74.74,0,0,1,.49-.88C231.84,131.83,232.15,132.15,232.21,132.59Z" transform="translate(-101.56 -101.91)"/><path d="M233.69,132.37a.74.74,0,0,1-.49.88c-.33,0-.64-.27-.69-.71a.74.74,0,0,1,.49-.88C233.32,131.61,233.63,131.93,233.69,132.37Z" transform="translate(-101.56 -101.91)"/><path d="M235.13,132.16a.74.74,0,0,1-.49.88c-.33,0-.64-.27-.69-.71a.74.74,0,0,1,.49-.88C234.76,131.4,235.07,131.72,235.13,132.16Z" transform="translate(-101.56 -101.91)"/><path d="M236.56,131.95a.74.74,0,0,1-.49.88c-.33,0-.64-.27-.69-.71a.74.74,0,0,1,.49-.88C236.19,131.19,236.5,131.51,236.56,131.95Z" transform="translate(-101.56 -101.91)"/><path d="M241,131.29a.74.74,0,0,1-.49.88c-.33,0-.64-.27-.69-.71a.74.74,0,0,1,.49-.88C240.64,130.54,241,130.85,241,131.29Z" transform="translate(-101.56 -101.91)"/><path d="M239.61,131.5a.74.74,0,0,1-.49.88c-.33,0-.64-.27-.69-.71a.74.74,0,0,1,.49-.88C239.24,130.74,239.55,131.06,239.61,131.5Z" transform="translate(-101.56 -101.91)"/><path d="M238.11,131.72a.74.74,0,0,1-.49.88c-.33,0-.64-.27-.69-.71a.74.74,0,0,1,.49-.88C237.74,131,238,131.28,238.11,131.72Z" transform="translate(-101.56 -101.91)"/><path d="M228.52,135.08a.74.74,0,0,1-.49.88c-.33,0-.64-.27-.69-.71a.74.74,0,0,1,.49-.88C228.15,134.32,228.46,134.64,228.52,135.08Z" transform="translate(-101.56 -101.91)"/><path d="M229.91,134.87a.74.74,0,0,1-.49.88c-.33,0-.64-.27-.69-.71a.74.74,0,0,1,.49-.88C229.54,134.12,229.85,134.43,229.91,134.87Z" transform="translate(-101.56 -101.91)"/><path d="M231.37,134.66a.74.74,0,0,1-.49.88c-.33,0-.64-.27-.69-.71a.74.74,0,0,1,.49-.88C231,133.9,231.31,134.22,231.37,134.66Z" transform="translate(-101.56 -101.91)"/><path d="M232.85,134.44a.74.74,0,0,1-.49.88c-.33,0-.64-.27-.69-.71a.74.74,0,0,1,.49-.88C232.48,133.69,232.79,134,232.85,134.44Z" transform="translate(-101.56 -101.91)"/><path d="M234.29,134.23a.74.74,0,0,1-.49.88c-.33,0-.64-.27-.69-.71a.74.74,0,0,1,.49-.88C233.92,133.47,234.23,133.79,234.29,134.23Z" transform="translate(-101.56 -101.91)"/><path d="M235.72,134a.74.74,0,0,1-.49.88c-.33,0-.64-.27-.69-.71a.74.74,0,0,1,.49-.88C235.35,133.26,235.66,133.58,235.72,134Z" transform="translate(-101.56 -101.91)"/><path d="M240.17,133.36a.74.74,0,0,1-.49.88c-.33,0-.64-.27-.69-.71a.74.74,0,0,1,.49-.88C239.8,132.61,240.11,132.93,240.17,133.36Z" transform="translate(-101.56 -101.91)"/><path d="M238.77,133.57a.74.74,0,0,1-.49.88c-.33,0-.64-.27-.69-.71a.74.74,0,0,1,.49-.88C238.4,132.82,238.71,133.13,238.77,133.57Z" transform="translate(-101.56 -101.91)"/><path d="M237.27,133.79a.74.74,0,0,1-.49.88c-.33,0-.64-.27-.69-.71a.74.74,0,0,1,.49-.88C236.9,133,237.21,133.35,237.27,133.79Z" transform="translate(-101.56 -101.91)"/><path d="M227.68,137.15a.74.74,0,0,1-.49.88c-.33,0-.64-.27-.69-.71a.74.74,0,0,1,.49-.88C227.31,136.4,227.62,136.71,227.68,137.15Z" transform="translate(-101.56 -101.91)"/><path d="M229.07,136.95a.74.74,0,0,1-.49.88c-.33,0-.64-.27-.69-.71a.74.74,0,0,1,.49-.88C228.7,136.19,229,136.51,229.07,136.95Z" transform="translate(-101.56 -101.91)"/><path d="M230.53,136.73a.74.74,0,0,1-.49.88c-.33,0-.64-.27-.69-.71a.74.74,0,0,1,.49-.88C230.16,136,230.47,136.29,230.53,136.73Z" transform="translate(-101.56 -101.91)"/><path d="M232,136.51a.74.74,0,0,1-.49.88c-.33,0-.64-.27-.69-.71a.74.74,0,0,1,.49-.88C231.64,135.76,232,136.07,232,136.51Z" transform="translate(-101.56 -101.91)"/><path d="M233.44,136.3a.74.74,0,0,1-.49.88c-.33,0-.64-.27-.69-.71a.74.74,0,0,1,.49-.88C233.08,135.55,233.39,135.86,233.44,136.3Z" transform="translate(-101.56 -101.91)"/><path d="M234.88,136.09a.74.74,0,0,1-.49.88c-.33,0-.64-.27-.69-.71a.74.74,0,0,1,.49-.88C234.51,135.34,234.82,135.65,234.88,136.09Z" transform="translate(-101.56 -101.91)"/><path d="M239.33,135.44a.74.74,0,0,1-.49.88c-.33,0-.64-.27-.69-.71a.74.74,0,0,1,.49-.88C239,134.68,239.27,135,239.33,135.44Z" transform="translate(-101.56 -101.91)"/><path d="M237.93,135.64a.74.74,0,0,1-.49.88c-.33,0-.64-.27-.69-.71a.74.74,0,0,1,.49-.88C237.56,134.89,237.87,135.2,237.93,135.64Z" transform="translate(-101.56 -101.91)"/><path d="M236.42,135.86a.74.74,0,0,1-.49.88c-.33,0-.64-.27-.69-.71a.74.74,0,0,1,.49-.88C236.06,135.11,236.37,135.42,236.42,135.86Z" transform="translate(-101.56 -101.91)"/><path d="M226.83,139.22a.74.74,0,0,1-.49.88c-.33,0-.64-.27-.69-.71a.74.74,0,0,1,.49-.88C226.47,138.47,226.78,138.78,226.83,139.22Z" transform="translate(-101.56 -101.91)"/><path d="M228.22,139a.74.74,0,0,1-.49.88c-.33,0-.64-.27-.69-.71a.74.74,0,0,1,.49-.88C227.86,138.26,228.17,138.58,228.22,139Z" transform="translate(-101.56 -101.91)"/><path d="M229.68,138.8a.74.74,0,0,1-.49.88c-.33,0-.64-.27-.69-.71a.74.74,0,0,1,.49-.88C229.32,138,229.63,138.37,229.68,138.8Z" transform="translate(-101.56 -101.91)"/><path d="M231.17,138.58a.74.74,0,0,1-.49.88c-.33,0-.64-.27-.69-.71a.74.74,0,0,1,.49-.88C230.8,137.83,231.11,138.15,231.17,138.58Z" transform="translate(-101.56 -101.91)"/><path d="M232.6,138.37a.74.74,0,0,1-.49.88c-.33,0-.64-.27-.69-.71a.74.74,0,0,1,.49-.88C232.24,137.62,232.55,137.94,232.6,138.37Z" transform="translate(-101.56 -101.91)"/><path d="M234,138.16a.74.74,0,0,1-.49.88c-.33,0-.64-.27-.69-.71a.74.74,0,0,1,.49-.88C233.67,137.41,234,137.73,234,138.16Z" transform="translate(-101.56 -101.91)"/><path d="M238.49,137.51a.74.74,0,0,1-.49.88c-.33,0-.64-.27-.69-.71a.74.74,0,0,1,.49-.88C238.12,136.75,238.43,137.07,238.49,137.51Z" transform="translate(-101.56 -101.91)"/><path d="M237.09,137.71a.74.74,0,0,1-.49.88c-.33,0-.64-.27-.69-.71a.74.74,0,0,1,.49-.88C236.72,137,237,137.28,237.09,137.71Z" transform="translate(-101.56 -101.91)"/><path d="M235.58,137.94a.74.74,0,0,1-.49.88c-.33,0-.64-.27-.69-.71a.74.74,0,0,1,.49-.88C235.22,137.18,235.53,137.5,235.58,137.94Z" transform="translate(-101.56 -101.91)"/><path d="M226,141.29a.74.74,0,0,1-.49.88c-.33,0-.64-.27-.69-.71a.74.74,0,0,1,.49-.88C225.63,140.54,225.94,140.86,226,141.29Z" transform="translate(-101.56 -101.91)"/><path d="M227.38,141.09a.74.74,0,0,1-.49.88c-.33,0-.64-.27-.69-.71a.74.74,0,0,1,.49-.88C227,140.34,227.33,140.65,227.38,141.09Z" transform="translate(-101.56 -101.91)"/><path d="M228.84,140.88a.74.74,0,0,1-.49.88c-.33,0-.64-.27-.69-.71a.74.74,0,0,1,.49-.88C228.48,140.12,228.79,140.44,228.84,140.88Z" transform="translate(-101.56 -101.91)"/><path d="M230.33,140.66a.74.74,0,0,1-.49.88c-.33,0-.64-.27-.69-.71a.74.74,0,0,1,.49-.88C230,139.9,230.27,140.22,230.33,140.66Z" transform="translate(-101.56 -101.91)"/><path d="M231.76,140.45a.74.74,0,0,1-.49.88c-.33,0-.64-.27-.69-.71a.74.74,0,0,1,.49-.88C231.4,139.69,231.71,140,231.76,140.45Z" transform="translate(-101.56 -101.91)"/><path d="M233.2,140.24a.74.74,0,0,1-.49.88c-.33,0-.64-.27-.69-.71a.74.74,0,0,1,.49-.88C232.83,139.48,233.14,139.8,233.2,140.24Z" transform="translate(-101.56 -101.91)"/><path d="M237.65,139.58a.74.74,0,0,1-.49.88c-.33,0-.64-.27-.69-.71a.74.74,0,0,1,.49-.88C237.28,138.83,237.59,139.14,237.65,139.58Z" transform="translate(-101.56 -101.91)"/><path d="M236.24,139.79a.74.74,0,0,1-.49.88c-.33,0-.64-.27-.69-.71a.74.74,0,0,1,.49-.88C235.88,139,236.19,139.35,236.24,139.79Z" transform="translate(-101.56 -101.91)"/><path d="M234.74,140a.74.74,0,0,1-.49.88c-.33,0-.64-.27-.69-.71a.74.74,0,0,1,.49-.88C234.38,139.25,234.69,139.57,234.74,140Z" transform="translate(-101.56 -101.91)"/><path d="M225.15,143.37a.74.74,0,0,1-.49.88c-.33,0-.64-.27-.69-.71a.74.74,0,0,1,.49-.88C224.79,142.61,225.1,142.93,225.15,143.37Z" transform="translate(-101.56 -101.91)"/><path d="M226.54,143.16a.74.74,0,0,1-.49.88c-.33,0-.64-.27-.69-.71a.74.74,0,0,1,.49-.88C226.18,142.41,226.49,142.73,226.54,143.16Z" transform="translate(-101.56 -101.91)"/><path d="M228,142.95a.74.74,0,0,1-.49.88c-.33,0-.64-.27-.69-.71a.74.74,0,0,1,.49-.88C227.64,142.19,227.95,142.51,228,142.95Z" transform="translate(-101.56 -101.91)"/><path d="M229.49,142.73a.74.74,0,0,1-.49.88c-.33,0-.64-.27-.69-.71a.74.74,0,0,1,.49-.88C229.12,142,229.43,142.29,229.49,142.73Z" transform="translate(-101.56 -101.91)"/><path d="M230.92,142.52a.74.74,0,0,1-.49.88c-.33,0-.64-.27-.69-.71a.74.74,0,0,1,.49-.88C230.56,141.77,230.87,142.08,230.92,142.52Z" transform="translate(-101.56 -101.91)"/><path d="M232.35,142.31a.74.74,0,0,1-.49.88c-.33,0-.64-.27-.69-.71a.74.74,0,0,1,.49-.88C232,141.55,232.3,141.87,232.35,142.31Z" transform="translate(-101.56 -101.91)"/><path d="M236.81,141.65a.74.74,0,0,1-.49.88c-.33,0-.64-.27-.69-.71a.74.74,0,0,1,.49-.88C236.44,140.9,236.75,141.22,236.81,141.65Z" transform="translate(-101.56 -101.91)"/><path d="M235.4,141.86a.74.74,0,0,1-.49.88c-.33,0-.64-.27-.69-.71a.74.74,0,0,1,.49-.88C235,141.11,235.35,141.42,235.4,141.86Z" transform="translate(-101.56 -101.91)"/><path d="M233.9,142.08a.74.74,0,0,1-.49.88c-.33,0-.64-.27-.69-.71a.74.74,0,0,1,.49-.88C233.54,141.33,233.85,141.64,233.9,142.08Z" transform="translate(-101.56 -101.91)"/><path d="M224.31,145.44a.74.74,0,0,1-.49.88c-.33,0-.64-.27-.69-.71a.74.74,0,0,1,.49-.88C223.95,144.69,224.26,145,224.31,145.44Z" transform="translate(-101.56 -101.91)"/><path d="M225.7,145.24a.74.74,0,0,1-.49.88c-.33,0-.64-.27-.69-.71a.74.74,0,0,1,.49-.88C225.34,144.48,225.65,144.8,225.7,145.24Z" transform="translate(-101.56 -101.91)"/><path d="M227.16,145a.74.74,0,0,1-.49.88c-.33,0-.64-.27-.69-.71a.74.74,0,0,1,.49-.88C226.8,144.27,227.11,144.58,227.16,145Z" transform="translate(-101.56 -101.91)"/><path d="M228.65,144.8a.74.74,0,0,1-.49.88c-.33,0-.64-.27-.69-.71a.74.74,0,0,1,.49-.88C228.28,144,228.59,144.37,228.65,144.8Z" transform="translate(-101.56 -101.91)"/><path d="M230.08,144.59a.74.74,0,0,1-.49.88c-.33,0-.64-.27-.69-.71a.74.74,0,0,1,.49-.88C229.72,143.84,230,144.15,230.08,144.59Z" transform="translate(-101.56 -101.91)"/><path d="M231.51,144.38a.74.74,0,0,1-.49.88c-.33,0-.64-.27-.69-.71a.74.74,0,0,1,.49-.88C231.15,143.63,231.46,143.94,231.51,144.38Z" transform="translate(-101.56 -101.91)"/><path d="M236,143.73a.74.74,0,0,1-.49.88c-.33,0-.64-.27-.69-.71a.74.74,0,0,1,.49-.88C235.6,143,235.91,143.29,236,143.73Z" transform="translate(-101.56 -101.91)"/><path d="M234.56,143.93a.74.74,0,0,1-.49.88c-.33,0-.64-.27-.69-.71a.74.74,0,0,1,.49-.88C234.2,143.18,234.51,143.49,234.56,143.93Z" transform="translate(-101.56 -101.91)"/><path d="M233.06,144.15a.74.74,0,0,1-.49.88c-.33,0-.64-.27-.69-.71a.74.74,0,0,1,.49-.88C232.7,143.4,233,143.72,233.06,144.15Z" transform="translate(-101.56 -101.91)"/><path d="M223.47,147.51a.74.74,0,0,1-.49.88c-.33,0-.64-.27-.69-.71a.74.74,0,0,1,.49-.88C223.11,146.76,223.42,147.08,223.47,147.51Z" transform="translate(-101.56 -101.91)"/><path d="M224.86,147.31a.74.74,0,0,1-.49.88c-.33,0-.64-.27-.69-.71a.74.74,0,0,1,.49-.88C224.5,146.55,224.81,146.87,224.86,147.31Z" transform="translate(-101.56 -101.91)"/><path d="M226.32,147.09a.74.74,0,0,1-.49.88c-.33,0-.64-.27-.69-.71a.74.74,0,0,1,.49-.88C226,146.34,226.27,146.66,226.32,147.09Z" transform="translate(-101.56 -101.91)"/><path d="M227.81,146.88a.74.74,0,0,1-.49.88c-.33,0-.64-.27-.69-.71a.74.74,0,0,1,.49-.88C227.44,146.12,227.75,146.44,227.81,146.88Z" transform="translate(-101.56 -101.91)"/><path d="M229.24,146.66a.74.74,0,0,1-.49.88c-.33,0-.64-.27-.69-.71a.74.74,0,0,1,.49-.88C228.88,145.91,229.19,146.23,229.24,146.66Z" transform="translate(-101.56 -101.91)"/><path d="M230.67,146.45a.74.74,0,0,1-.49.88c-.33,0-.64-.27-.69-.71a.74.74,0,0,1,.49-.88C230.31,145.7,230.62,146,230.67,146.45Z" transform="translate(-101.56 -101.91)"/><path d="M235.13,145.8a.74.74,0,0,1-.49.88c-.33,0-.64-.27-.69-.71a.74.74,0,0,1,.49-.88C234.76,145,235.07,145.36,235.13,145.8Z" transform="translate(-101.56 -101.91)"/><path d="M233.72,146a.74.74,0,0,1-.49.88c-.33,0-.64-.27-.69-.71a.74.74,0,0,1,.49-.88C233.36,145.25,233.67,145.57,233.72,146Z" transform="translate(-101.56 -101.91)"/><path d="M232.22,146.23a.74.74,0,0,1-.49.88c-.33,0-.64-.27-.69-.71a.74.74,0,0,1,.49-.88C231.86,145.47,232.17,145.79,232.22,146.23Z" transform="translate(-101.56 -101.91)"/><path d="M230.86,146.43a.74.74,0,0,1-.49.88c-.33,0-.64-.27-.69-.71a.74.74,0,0,1,.49-.88C230.49,145.67,230.8,146,230.86,146.43Z" transform="translate(-101.56 -101.91)"/><path d="M232.25,146.22a.74.74,0,0,1-.49.88c-.33,0-.64-.27-.69-.71a.74.74,0,0,1,.49-.88C231.88,145.47,232.19,145.78,232.25,146.22Z" transform="translate(-101.56 -101.91)"/><path d="M233.71,146a.74.74,0,0,1-.49.88c-.33,0-.64-.27-.69-.71a.74.74,0,0,1,.49-.88C233.34,145.25,233.65,145.57,233.71,146Z" transform="translate(-101.56 -101.91)"/><path d="M235.19,145.79a.74.74,0,0,1-.49.88c-.33,0-.64-.27-.69-.71a.74.74,0,0,1,.49-.88C234.83,145,235.14,145.35,235.19,145.79Z" transform="translate(-101.56 -101.91)"/><path d="M236.63,145.58a.74.74,0,0,1-.49.88c-.33,0-.64-.27-.69-.71a.74.74,0,0,1,.49-.88C236.26,144.82,236.57,145.14,236.63,145.58Z" transform="translate(-101.56 -101.91)"/><path d="M238.06,145.37a.74.74,0,0,1-.49.88c-.33,0-.64-.27-.69-.71a.74.74,0,0,1,.49-.88C237.69,144.61,238,144.93,238.06,145.37Z" transform="translate(-101.56 -101.91)"/><path d="M242.51,144.71a.74.74,0,0,1-.49.88c-.33,0-.64-.27-.69-.71a.74.74,0,0,1,.49-.88C242.14,144,242.46,144.27,242.51,144.71Z" transform="translate(-101.56 -101.91)"/><path d="M241.11,144.92a.74.74,0,0,1-.49.88c-.33,0-.64-.27-.69-.71a.74.74,0,0,1,.49-.88C240.74,144.17,241.05,144.48,241.11,144.92Z" transform="translate(-101.56 -101.91)"/><path d="M239.61,145.14a.74.74,0,0,1-.49.88c-.33,0-.64-.27-.69-.71a.74.74,0,0,1,.49-.88C239.24,144.39,239.55,144.7,239.61,145.14Z" transform="translate(-101.56 -101.91)"/><path d="M231.24,148a.74.74,0,0,1-.49.88c-.33,0-.64-.27-.69-.71a.74.74,0,0,1,.49-.88C230.87,147.23,231.18,147.55,231.24,148Z" transform="translate(-101.56 -101.91)"/><path d="M232.7,147.77a.74.74,0,0,1-.49.88c-.33,0-.64-.27-.69-.71a.74.74,0,0,1,.49-.88C232.33,147,232.64,147.33,232.7,147.77Z" transform="translate(-101.56 -101.91)"/><path d="M234.18,147.55a.74.74,0,0,1-.49.88c-.33,0-.64-.27-.69-.71a.74.74,0,0,1,.49-.88C233.82,146.8,234.13,147.11,234.18,147.55Z" transform="translate(-101.56 -101.91)"/><path d="M235.62,147.34a.74.74,0,0,1-.49.88c-.33,0-.64-.27-.69-.71a.74.74,0,0,1,.49-.88C235.25,146.59,235.56,146.9,235.62,147.34Z" transform="translate(-101.56 -101.91)"/><path d="M237,147.13a.74.74,0,0,1-.49.88c-.33,0-.64-.27-.69-.71a.74.74,0,0,1,.49-.88C236.68,146.38,237,146.69,237,147.13Z" transform="translate(-101.56 -101.91)"/><path d="M241.5,146.48a.74.74,0,0,1-.49.88c-.33,0-.64-.27-.69-.71a.74.74,0,0,1,.49-.88C241.14,145.72,241.45,146,241.5,146.48Z" transform="translate(-101.56 -101.91)"/><path d="M240.1,146.68a.74.74,0,0,1-.49.88c-.33,0-.64-.27-.69-.71a.74.74,0,0,1,.49-.88C239.73,145.93,240,146.24,240.1,146.68Z" transform="translate(-101.56 -101.91)"/><path d="M238.6,146.9a.74.74,0,0,1-.49.88c-.33,0-.64-.27-.69-.71a.74.74,0,0,1,.49-.88C238.23,146.15,238.54,146.47,238.6,146.9Z" transform="translate(-101.56 -101.91)"/><path d="M230.26,149.93a.74.74,0,0,1-.49.88c-.33,0-.64-.27-.69-.71a.74.74,0,0,1,.49-.88C229.9,149.18,230.21,149.49,230.26,149.93Z" transform="translate(-101.56 -101.91)"/><path d="M231.69,149.53a.74.74,0,0,1-.49.88c-.33,0-.64-.27-.69-.71a.74.74,0,0,1,.49-.88C231.32,148.78,231.63,149.1,231.69,149.53Z" transform="translate(-101.56 -101.91)"/><path d="M233.17,149.32a.74.74,0,0,1-.49.88c-.33,0-.64-.27-.69-.71a.74.74,0,0,1,.49-.88C232.81,148.56,233.12,148.88,233.17,149.32Z" transform="translate(-101.56 -101.91)"/><path d="M234.61,149.1a.74.74,0,0,1-.49.88c-.33,0-.64-.27-.69-.71a.74.74,0,0,1,.49-.88C234.24,148.35,234.55,148.67,234.61,149.1Z" transform="translate(-101.56 -101.91)"/><path d="M236,148.89a.74.74,0,0,1-.49.88c-.33,0-.64-.27-.69-.71a.74.74,0,0,1,.49-.88C235.67,148.14,236,148.46,236,148.89Z" transform="translate(-101.56 -101.91)"/><path d="M240.49,148.24a.74.74,0,0,1-.49.88c-.33,0-.64-.27-.69-.71a.74.74,0,0,1,.49-.88C240.13,147.49,240.44,147.8,240.49,148.24Z" transform="translate(-101.56 -101.91)"/><path d="M239.09,148.45a.74.74,0,0,1-.49.88c-.33,0-.64-.27-.69-.71a.74.74,0,0,1,.49-.88C238.72,147.69,239,148,239.09,148.45Z" transform="translate(-101.56 -101.91)"/><path d="M237.59,148.67a.74.74,0,0,1-.49.88c-.33,0-.64-.27-.69-.71a.74.74,0,0,1,.49-.88C237.22,147.91,237.53,148.23,237.59,148.67Z" transform="translate(-101.56 -101.91)"/><path d="M230.69,151.3a.74.74,0,0,1-.49.88c-.33,0-.64-.27-.69-.71a.74.74,0,0,1,.49-.88C230.32,150.54,230.63,150.86,230.69,151.3Z" transform="translate(-101.56 -101.91)"/><path d="M232.16,151.08a.74.74,0,0,1-.49.88c-.33,0-.64-.27-.69-.71a.74.74,0,0,1,.49-.88C231.8,150.33,232.11,150.64,232.16,151.08Z" transform="translate(-101.56 -101.91)"/><path d="M233.6,150.87a.74.74,0,0,1-.49.88c-.33,0-.64-.27-.69-.71a.74.74,0,0,1,.49-.88C233.23,150.11,233.54,150.43,233.6,150.87Z" transform="translate(-101.56 -101.91)"/><path d="M235,150.66a.74.74,0,0,1-.49.88c-.33,0-.64-.27-.69-.71a.74.74,0,0,1,.49-.88C234.66,149.9,235,150.22,235,150.66Z" transform="translate(-101.56 -101.91)"/><path d="M239.48,150a.74.74,0,0,1-.49.88c-.33,0-.64-.27-.69-.71a.74.74,0,0,1,.49-.88C239.12,149.25,239.43,149.57,239.48,150Z" transform="translate(-101.56 -101.91)"/><path d="M238.08,150.21a.74.74,0,0,1-.49.88c-.33,0-.64-.27-.69-.71a.74.74,0,0,1,.49-.88C237.71,149.46,238,149.77,238.08,150.21Z" transform="translate(-101.56 -101.91)"/><path d="M236.58,150.43a.74.74,0,0,1-.49.88c-.33,0-.64-.27-.69-.71a.74.74,0,0,1,.49-.88C236.21,149.68,236.52,150,236.58,150.43Z" transform="translate(-101.56 -101.91)"/><path d="M229.67,153.06a.74.74,0,0,1-.49.88c-.33,0-.64-.27-.69-.71a.74.74,0,0,1,.49-.88C229.3,152.31,229.62,152.62,229.67,153.06Z" transform="translate(-101.56 -101.91)"/><path d="M231.16,152.84a.74.74,0,0,1-.49.88c-.33,0-.64-.27-.69-.71a.74.74,0,0,1,.49-.88C230.79,152.09,231.1,152.41,231.16,152.84Z" transform="translate(-101.56 -101.91)"/><path d="M232.59,152.63a.74.74,0,0,1-.49.88c-.33,0-.64-.27-.69-.71a.74.74,0,0,1,.49-.88C232.22,151.88,232.54,152.19,232.59,152.63Z" transform="translate(-101.56 -101.91)"/><path d="M234,152.42a.74.74,0,0,1-.49.88c-.33,0-.64-.27-.69-.71a.74.74,0,0,1,.49-.88C233.66,151.67,234,152,234,152.42Z" transform="translate(-101.56 -101.91)"/><path d="M238.47,151.77a.74.74,0,0,1-.49.88c-.33,0-.64-.27-.69-.71a.74.74,0,0,1,.49-.88C238.11,151,238.42,151.33,238.47,151.77Z" transform="translate(-101.56 -101.91)"/><path d="M237.07,152a.74.74,0,0,1-.49.88c-.33,0-.64-.27-.69-.71a.74.74,0,0,1,.49-.88C236.71,151.22,237,151.53,237.07,152Z" transform="translate(-101.56 -101.91)"/><path d="M235.57,152.19a.74.74,0,0,1-.49.88c-.33,0-.64-.27-.69-.71a.74.74,0,0,1,.49-.88C235.2,151.44,235.52,151.76,235.57,152.19Z" transform="translate(-101.56 -101.91)"/><path d="M227.54,155.26c0-.44.24-.79.58-.78a.77.77,0,0,1,.63.81c0,.44-.24.79-.58.78A.77.77,0,0,1,227.54,155.26Z" transform="translate(-101.56 -101.91)"/><path d="M228,156.54c0-.44.24-.79.58-.78a.77.77,0,0,1,.63.81c0,.44-.24.79-.58.78A.77.77,0,0,1,228,156.54Z" transform="translate(-101.56 -101.91)"/><path d="M230.15,154.61a.74.74,0,0,1-.49.88c-.33,0-.64-.27-.69-.71a.74.74,0,0,1,.49-.88C229.78,153.85,230.09,154.17,230.15,154.61Z" transform="translate(-101.56 -101.91)"/><path d="M231.58,154.4a.74.74,0,0,1-.49.88c-.33,0-.64-.27-.69-.71a.74.74,0,0,1,.49-.88C231.22,153.64,231.53,154,231.58,154.4Z" transform="translate(-101.56 -101.91)"/><path d="M233,154.18a.74.74,0,0,1-.49.88c-.33,0-.64-.27-.69-.71a.74.74,0,0,1,.49-.88C232.65,153.43,233,153.75,233,154.18Z" transform="translate(-101.56 -101.91)"/><path d="M237.46,153.53a.74.74,0,0,1-.49.88c-.33,0-.64-.27-.69-.71a.74.74,0,0,1,.49-.88C237.1,152.78,237.41,153.09,237.46,153.53Z" transform="translate(-101.56 -101.91)"/><path d="M236.06,153.74a.74.74,0,0,1-.49.88c-.33,0-.64-.27-.69-.71a.74.74,0,0,1,.49-.88C235.7,153,236,153.3,236.06,153.74Z" transform="translate(-101.56 -101.91)"/><path d="M234.56,154a.74.74,0,0,1-.49.88c-.33,0-.64-.27-.69-.71a.74.74,0,0,1,.49-.88C234.2,153.2,234.51,153.52,234.56,154Z" transform="translate(-101.56 -101.91)"/><path d="M229.68,157.9a.74.74,0,0,1-.49.88c-.33,0-.64-.27-.69-.71a.74.74,0,0,1,.49-.88C229.32,157.15,229.63,157.47,229.68,157.9Z" transform="translate(-101.56 -101.91)"/><path d="M230.57,156.16a.74.74,0,0,1-.49.88c-.33,0-.64-.27-.69-.71a.74.74,0,0,1,.49-.88C230.21,155.4,230.52,155.72,230.57,156.16Z" transform="translate(-101.56 -101.91)"/><path d="M232,155.95a.74.74,0,0,1-.49.88c-.33,0-.64-.27-.69-.71a.74.74,0,0,1,.49-.88C231.64,155.19,231.95,155.51,232,155.95Z" transform="translate(-101.56 -101.91)"/><path d="M236.46,155.29a.74.74,0,0,1-.49.88c-.33,0-.64-.27-.69-.71a.74.74,0,0,1,.49-.88C236.09,154.54,236.4,154.86,236.46,155.29Z" transform="translate(-101.56 -101.91)"/><path d="M235.05,155.5a.74.74,0,0,1-.49.88c-.33,0-.64-.27-.69-.71a.74.74,0,0,1,.49-.88C234.69,154.75,235,155.06,235.05,155.5Z" transform="translate(-101.56 -101.91)"/><path d="M233.55,155.72a.74.74,0,0,1-.49.88c-.33,0-.64-.27-.69-.71a.74.74,0,0,1,.49-.88C233.19,155,233.5,155.28,233.55,155.72Z" transform="translate(-101.56 -101.91)"/><path d="M228.11,158.21a.74.74,0,0,1-.49.88c-.33,0-.64-.27-.69-.71a.74.74,0,0,1,.49-.88C227.74,157.45,228.05,157.77,228.11,158.21Z" transform="translate(-101.56 -101.91)"/><path d="M230.17,159.35a.74.74,0,0,1-.49.88c-.33,0-.64-.27-.69-.71a.74.74,0,0,1,.49-.88C229.81,158.6,230.12,158.91,230.17,159.35Z" transform="translate(-101.56 -101.91)"/><path d="M231,157.71a.74.74,0,0,1-.49.88c-.33,0-.64-.27-.69-.71a.74.74,0,0,1,.49-.88C230.63,157,230.94,157.27,231,157.71Z" transform="translate(-101.56 -101.91)"/><path d="M235.45,157.06a.74.74,0,0,1-.49.88c-.33,0-.64-.27-.69-.71a.74.74,0,0,1,.49-.88C235.08,156.3,235.39,156.62,235.45,157.06Z" transform="translate(-101.56 -101.91)"/><path d="M234,157.26a.74.74,0,0,1-.49.88c-.33,0-.64-.27-.69-.71a.74.74,0,0,1,.49-.88C233.68,156.51,234,156.82,234,157.26Z" transform="translate(-101.56 -101.91)"/><path d="M232.54,157.48a.74.74,0,0,1-.49.88c-.33,0-.64-.27-.69-.71a.74.74,0,0,1,.49-.88C232.18,156.73,232.49,157,232.54,157.48Z" transform="translate(-101.56 -101.91)"/><path d="M228.55,159.69a.74.74,0,0,1-.49.88c-.33,0-.64-.27-.69-.71a.74.74,0,0,1,.49-.88C228.19,158.93,228.5,159.25,228.55,159.69Z" transform="translate(-101.56 -101.91)"/><path d="M234.44,158.82a.74.74,0,0,1-.49.88c-.33,0-.64-.27-.69-.71a.74.74,0,0,1,.49-.88C234.07,158.07,234.38,158.38,234.44,158.82Z" transform="translate(-101.56 -101.91)"/><path d="M233,159a.74.74,0,0,1-.49.88c-.33,0-.64-.27-.69-.71a.74.74,0,0,1,.49-.88C232.67,158.27,233,158.59,233,159Z" transform="translate(-101.56 -101.91)"/><path d="M231.53,159.25a.74.74,0,0,1-.49.88c-.33,0-.64-.27-.69-.71a.74.74,0,0,1,.49-.88C231.17,158.49,231.48,158.81,231.53,159.25Z" transform="translate(-101.56 -101.91)"/><path d="M227.3,160.91a.74.74,0,0,1-.49.88c-.33,0-.64-.27-.69-.71a.74.74,0,0,1,.49-.88C226.93,160.15,227.25,160.47,227.3,160.91Z" transform="translate(-101.56 -101.91)"/><path d="M229,161.17a.74.74,0,0,1-.49.88c-.33,0-.64-.27-.69-.71a.74.74,0,0,1,.49-.88C228.64,160.42,228.95,160.74,229,161.17Z" transform="translate(-101.56 -101.91)"/><path d="M233.43,160.58a.74.74,0,0,1-.49.88c-.33,0-.64-.27-.69-.71a.74.74,0,0,1,.49-.88C233.06,159.83,233.37,160.15,233.43,160.58Z" transform="translate(-101.56 -101.91)"/><path d="M232,160.79a.74.74,0,0,1-.49.88c-.33,0-.64-.27-.69-.71a.74.74,0,0,1,.49-.88C231.66,160,232,160.35,232,160.79Z" transform="translate(-101.56 -101.91)"/><path d="M230.67,160.89a.74.74,0,0,1-.49.88c-.33,0-.64-.27-.69-.71a.74.74,0,0,1,.49-.88C230.3,160.14,230.61,160.45,230.67,160.89Z" transform="translate(-101.56 -101.91)"/><path d="M226.54,163.21a.74.74,0,0,1-.49.88c-.33,0-.64-.27-.69-.71a.74.74,0,0,1,.49-.88C226.17,162.46,226.48,162.77,226.54,163.21Z" transform="translate(-101.56 -101.91)"/><path d="M227.93,162.66a.74.74,0,0,1-.49.88c-.33,0-.64-.27-.69-.71a.74.74,0,0,1,.49-.88C227.57,161.9,227.88,162.22,227.93,162.66Z" transform="translate(-101.56 -101.91)"/><path d="M232.42,162.35a.74.74,0,0,1-.49.88c-.33,0-.64-.27-.69-.71a.74.74,0,0,1,.49-.88C232.05,161.59,232.36,161.91,232.42,162.35Z" transform="translate(-101.56 -101.91)"/><path d="M231.14,162.41a.74.74,0,0,1-.49.88c-.33,0-.64-.27-.69-.71a.74.74,0,0,1,.49-.88C230.77,161.66,231.08,162,231.14,162.41Z" transform="translate(-101.56 -101.91)"/><path d="M229.52,162.77a.74.74,0,0,1-.49.88c-.33,0-.64-.27-.69-.71a.74.74,0,0,1,.49-.88C229.15,162,229.46,162.34,229.52,162.77Z" transform="translate(-101.56 -101.91)"/><path d="M227,164.76a.74.74,0,0,1-.49.88c-.33,0-.64-.27-.69-.71a.74.74,0,0,1,.49-.88C226.63,164,226.94,164.32,227,164.76Z" transform="translate(-101.56 -101.91)"/><path d="M231.53,164a.74.74,0,0,1-.49.88c-.33,0-.64-.27-.69-.71a.74.74,0,0,1,.49-.88C231.16,163.22,231.47,163.53,231.53,164Z" transform="translate(-101.56 -101.91)"/><path d="M230,164.32a.74.74,0,0,1-.49.88c-.33,0-.64-.27-.69-.71a.74.74,0,0,1,.49-.88C229.64,163.56,230,163.88,230,164.32Z" transform="translate(-101.56 -101.91)"/><path d="M228.45,164.31a.74.74,0,0,1-.49.88c-.33,0-.64-.27-.69-.71a.74.74,0,0,1,.49-.88C228.09,163.56,228.4,163.87,228.45,164.31Z" transform="translate(-101.56 -101.91)"/><path d="M225.79,165.74a.74.74,0,0,1-.49.88c-.33,0-.64-.27-.69-.71a.74.74,0,0,1,.49-.88C225.42,165,225.73,165.31,225.79,165.74Z" transform="translate(-101.56 -101.91)"/><path d="M230.4,165.87a.74.74,0,0,1-.49.88c-.33,0-.64-.27-.69-.71a.74.74,0,0,1,.49-.88C230,165.12,230.34,165.44,230.4,165.87Z" transform="translate(-101.56 -101.91)"/><path d="M229,166a.74.74,0,0,1-.49.88c-.33,0-.64-.27-.69-.71a.74.74,0,0,1,.49-.88C228.63,165.2,228.94,165.52,229,166Z" transform="translate(-101.56 -101.91)"/><path d="M227.5,166.3a.74.74,0,0,1-.49.88c-.33,0-.64-.27-.69-.71a.74.74,0,0,1,.49-.88C227.13,165.55,227.44,165.86,227.5,166.3Z" transform="translate(-101.56 -101.91)"/><path d="M229.45,167.38a.74.74,0,0,1-.49.88c-.33,0-.64-.27-.69-.71a.74.74,0,0,1,.49-.88C229.08,166.62,229.39,166.94,229.45,167.38Z" transform="translate(-101.56 -101.91)"/><path d="M228,167.84a.74.74,0,0,1-.49.88c-.33,0-.64-.27-.69-.71a.74.74,0,0,1,.49-.88C227.62,167.09,227.93,167.41,228,167.84Z" transform="translate(-101.56 -101.91)"/><path d="M226.39,167.72a.74.74,0,0,1-.49.88c-.33,0-.64-.27-.69-.71a.74.74,0,0,1,.49-.88C226,167,226.33,167.28,226.39,167.72Z" transform="translate(-101.56 -101.91)"/><path d="M228.38,169.4a.74.74,0,0,1-.49.88c-.33,0-.64-.27-.69-.71a.74.74,0,0,1,.49-.88C228,168.65,228.33,169,228.38,169.4Z" transform="translate(-101.56 -101.91)"/><path d="M226.85,169.37a.74.74,0,0,1-.49.88c-.33,0-.64-.27-.69-.71a.74.74,0,0,1,.49-.88C226.49,168.62,226.8,168.93,226.85,169.37Z" transform="translate(-101.56 -101.91)"/><path d="M225,168.83a.74.74,0,0,1-.49.88c-.33,0-.64-.27-.69-.71a.74.74,0,0,1,.49-.88C224.67,168.08,225,168.4,225,168.83Z" transform="translate(-101.56 -101.91)"/><path d="M227.27,170.93a.74.74,0,0,1-.49.88c-.33,0-.64-.27-.69-.71a.74.74,0,0,1,.49-.88C226.9,170.17,227.21,170.49,227.27,170.93Z" transform="translate(-101.56 -101.91)"/><path d="M225.73,170.6a.74.74,0,0,1-.49.88c-.33,0-.64-.27-.69-.71a.74.74,0,0,1,.49-.88C225.37,169.84,225.68,170.16,225.73,170.6Z" transform="translate(-101.56 -101.91)"/><path d="M224.41,170.79a.74.74,0,0,1-.49.88c-.33,0-.64-.27-.69-.71a.74.74,0,0,1,.49-.88C224,170,224.35,170.35,224.41,170.79Z" transform="translate(-101.56 -101.91)"/><path d="M226.22,173a.5.5,0,0,1-.85,0,1,1,0,0,1,0-1.13.5.5,0,0,1,.85,0A1,1,0,0,1,226.22,173Z" transform="translate(-101.56 -101.91)"/><path d="M225,172.31a.74.74,0,0,1-.49.88c-.33,0-.64-.27-.69-.71a.74.74,0,0,1,.49-.88C224.66,171.56,225,171.87,225,172.31Z" transform="translate(-101.56 -101.91)"/><path d="M224,173.49a.74.74,0,0,1-.49.88c-.33,0-.64-.27-.69-.71a.74.74,0,0,1,.49-.88C223.66,172.74,224,173.06,224,173.49Z" transform="translate(-101.56 -101.91)"/><path d="M225.64,173.69a.8.8,0,0,1-.4,1c-.32.1-.65-.16-.75-.59a.8.8,0,0,1,.4-1C225.21,173,225.55,173.27,225.64,173.69Z" transform="translate(-101.56 -101.91)"/><path d="M224.75,174.71a.91.91,0,0,1-.22,1.07c-.29.2-.66,0-.82-.35a.91.91,0,0,1,.22-1.07C224.21,174.16,224.58,174.31,224.75,174.71Z" transform="translate(-101.56 -101.91)"/><path d="M223,174.29a.81.81,0,0,1,.3.9c-.1.34-.4.49-.66.34a.81.81,0,0,1-.3-.9C222.42,174.28,222.72,174.13,223,174.29Z" transform="translate(-101.56 -101.91)"/><path d="M223.91,176.39a.64.64,0,0,1-.42.76c-.28,0-.55-.23-.6-.61a.64.64,0,0,1,.42-.76C223.6,175.74,223.87,176,223.91,176.39Z" transform="translate(-101.56 -101.91)"/><path d="M222.47,178.18a.8.8,0,0,1-.59-.86c0-.44.28-.77.61-.73a.8.8,0,0,1,.59.86C223.08,177.89,222.8,178.22,222.47,178.18Z" transform="translate(-101.56 -101.91)"/><path d="M222.37,176.36a.4.4,0,0,1-.29-.43c0-.22.14-.38.31-.36a.4.4,0,0,1,.29.43C222.67,176.21,222.54,176.37,222.37,176.36Z" transform="translate(-101.56 -101.91)"/><path d="M223.37,172.55a.4.4,0,0,1-.29-.43c0-.22.14-.38.31-.36a.4.4,0,0,1,.29.43C223.67,172.4,223.53,172.57,223.37,172.55Z" transform="translate(-101.56 -101.91)"/><path d="M224.52,167.59a.4.4,0,0,1-.29-.43c0-.22.14-.38.31-.36a.4.4,0,0,1,.29.43C224.82,167.44,224.68,167.6,224.52,167.59Z" transform="translate(-101.56 -101.91)"/><path d="M225.35,164.76a.4.4,0,0,1-.29-.43c0-.22.14-.38.31-.36a.4.4,0,0,1,.29.43C225.65,164.61,225.51,164.78,225.35,164.76Z" transform="translate(-101.56 -101.91)"/><path d="M226,162.3a.4.4,0,0,1-.29-.43c0-.22.14-.38.31-.36a.4.4,0,0,1,.29.43C226.32,162.15,226.18,162.32,226,162.3Z" transform="translate(-101.56 -101.91)"/><path d="M227.48,157.11a.4.4,0,0,1-.29-.43c0-.22.14-.38.31-.36a.4.4,0,0,1,.29.43C227.78,157,227.65,157.13,227.48,157.11Z" transform="translate(-101.56 -101.91)"/><path d="M228.61,151.63c0-.21.21-.32.37-.24a.46.46,0,0,1,.21.51c0,.21-.21.32-.37.24A.46.46,0,0,1,228.61,151.63Z" transform="translate(-101.56 -101.91)"/><path d="M229.51,148.6c0-.21.21-.32.37-.24a.46.46,0,0,1,.21.51c0,.21-.21.32-.37.24A.46.46,0,0,1,229.51,148.6Z" transform="translate(-101.56 -101.91)"/><path d="M228.27,154.34a.4.4,0,0,1-.29-.43c0-.22.14-.38.31-.36a.4.4,0,0,1,.29.43C228.58,154.19,228.44,154.36,228.27,154.34Z" transform="translate(-101.56 -101.91)"/><path d="M226.73,159.61a.4.4,0,0,1-.29-.43c0-.22.14-.38.31-.36a.4.4,0,0,1,.29.43C227,159.47,226.9,159.63,226.73,159.61Z" transform="translate(-101.56 -101.91)"/><path d="M222.22,179.35a.5.5,0,0,1-.85,0,1,1,0,0,1,0-1.13.5.5,0,0,1,.85,0A1,1,0,0,1,222.22,179.35Z" transform="translate(-101.56 -101.91)"/><path d="M229.28,131.52a.74.74,0,0,1-.49.88c-.33,0-.64-.27-.69-.71a.74.74,0,0,1,.49-.88C228.91,130.76,229.22,131.08,229.28,131.52Z" transform="translate(-101.56 -101.91)" fill="#25c7d9"/><path d="M230.67,131.31a.74.74,0,0,1-.49.88c-.33,0-.64-.27-.69-.71a.74.74,0,0,1,.49-.88C230.3,130.56,230.61,130.87,230.67,131.31Z" transform="translate(-101.56 -101.91)" fill="#25c7d9"/><path d="M232.13,131.1a.74.74,0,0,1-.49.88c-.33,0-.64-.27-.69-.71a.74.74,0,0,1,.49-.88C231.76,130.34,232.07,130.66,232.13,131.1Z" transform="translate(-101.56 -101.91)" fill="#25c7d9"/><path d="M233.61,130.88a.74.74,0,0,1-.49.88c-.33,0-.64-.27-.69-.71a.74.74,0,0,1,.49-.88C233.25,130.13,233.56,130.44,233.61,130.88Z" transform="translate(-101.56 -101.91)" fill="#25c7d9"/><path d="M235,130.67a.74.74,0,0,1-.49.88c-.33,0-.64-.27-.69-.71a.74.74,0,0,1,.49-.88C234.68,129.91,235,130.23,235,130.67Z" transform="translate(-101.56 -101.91)" fill="#25c7d9"/><path d="M236.48,130.46a.74.74,0,0,1-.49.88c-.33,0-.64-.27-.69-.71a.74.74,0,0,1,.49-.88C236.11,129.7,236.42,130,236.48,130.46Z" transform="translate(-101.56 -101.91)" fill="#25c7d9"/><path d="M240.93,129.8a.74.74,0,0,1-.49.88c-.33,0-.64-.27-.69-.71a.74.74,0,0,1,.49-.88C240.57,129,240.88,129.36,240.93,129.8Z" transform="translate(-101.56 -101.91)" fill="#25c7d9"/><path d="M239.53,130a.74.74,0,0,1-.49.88c-.33,0-.64-.27-.69-.71a.74.74,0,0,1,.49-.88C239.16,129.25,239.47,129.57,239.53,130Z" transform="translate(-101.56 -101.91)" fill="#25c7d9"/><path d="M238,130.23a.74.74,0,0,1-.49.88c-.33,0-.64-.27-.69-.71a.74.74,0,0,1,.49-.88C237.66,129.48,238,129.79,238,130.23Z" transform="translate(-101.56 -101.91)" fill="#25c7d9"/><path d="M228.52,133.58a.74.74,0,0,1-.49.88c-.33,0-.64-.27-.69-.71a.74.74,0,0,1,.49-.88C228.15,132.82,228.46,133.14,228.52,133.58Z" transform="translate(-101.56 -101.91)" fill="#25c7d9"/><path d="M229.91,133.37a.74.74,0,0,1-.49.88c-.33,0-.64-.27-.69-.71a.74.74,0,0,1,.49-.88C229.54,132.62,229.85,132.93,229.91,133.37Z" transform="translate(-101.56 -101.91)" fill="#25c7d9"/><path d="M231.37,133.16a.74.74,0,0,1-.49.88c-.33,0-.64-.27-.69-.71a.74.74,0,0,1,.49-.88C231,132.4,231.31,132.72,231.37,133.16Z" transform="translate(-101.56 -101.91)" fill="#25c7d9"/><path d="M232.85,132.94a.74.74,0,0,1-.49.88c-.33,0-.64-.27-.69-.71a.74.74,0,0,1,.49-.88C232.49,132.19,232.8,132.5,232.85,132.94Z" transform="translate(-101.56 -101.91)" fill="#25c7d9"/><path d="M234.29,132.73a.74.74,0,0,1-.49.88c-.33,0-.64-.27-.69-.71a.74.74,0,0,1,.49-.88C233.92,132,234.23,132.29,234.29,132.73Z" transform="translate(-101.56 -101.91)" fill="#25c7d9"/><path d="M235.72,132.52a.74.74,0,0,1-.49.88c-.33,0-.64-.27-.69-.71a.74.74,0,0,1,.49-.88C235.35,131.76,235.67,132.08,235.72,132.52Z" transform="translate(-101.56 -101.91)" fill="#25c7d9"/><path d="M240.17,131.86a.74.74,0,0,1-.49.88c-.33,0-.64-.27-.69-.71a.74.74,0,0,1,.49-.88C239.81,131.11,240.12,131.43,240.17,131.86Z" transform="translate(-101.56 -101.91)" fill="#25c7d9"/><path d="M238.77,132.07a.74.74,0,0,1-.49.88c-.33,0-.64-.27-.69-.71a.74.74,0,0,1,.49-.88C238.4,131.32,238.71,131.63,238.77,132.07Z" transform="translate(-101.56 -101.91)" fill="#25c7d9"/><path d="M237.27,132.29a.74.74,0,0,1-.49.88c-.33,0-.64-.27-.69-.71a.74.74,0,0,1,.49-.88C236.9,131.54,237.21,131.85,237.27,132.29Z" transform="translate(-101.56 -101.91)" fill="#25c7d9"/><path d="M227.68,135.65a.74.74,0,0,1-.49.88c-.33,0-.64-.27-.69-.71a.74.74,0,0,1,.49-.88C227.31,134.9,227.62,135.21,227.68,135.65Z" transform="translate(-101.56 -101.91)" fill="#25c7d9"/><path d="M229.07,135.45a.74.74,0,0,1-.49.88c-.33,0-.64-.27-.69-.71a.74.74,0,0,1,.49-.88C228.7,134.69,229,135,229.07,135.45Z" transform="translate(-101.56 -101.91)" fill="#25c7d9"/><path d="M230.53,135.23a.74.74,0,0,1-.49.88c-.33,0-.64-.27-.69-.71a.74.74,0,0,1,.49-.88C230.16,134.48,230.47,134.79,230.53,135.23Z" transform="translate(-101.56 -101.91)" fill="#25c7d9"/><path d="M232,135a.74.74,0,0,1-.49.88c-.33,0-.64-.27-.69-.71a.74.74,0,0,1,.49-.88C231.65,134.26,232,134.57,232,135Z" transform="translate(-101.56 -101.91)" fill="#25c7d9"/><path d="M233.45,134.8a.74.74,0,0,1-.49.88c-.33,0-.64-.27-.69-.71a.74.74,0,0,1,.49-.88C233.08,134,233.39,134.36,233.45,134.8Z" transform="translate(-101.56 -101.91)" fill="#25c7d9"/><path d="M234.88,134.59a.74.74,0,0,1-.49.88c-.33,0-.64-.27-.69-.71a.74.74,0,0,1,.49-.88C234.51,133.84,234.83,134.15,234.88,134.59Z" transform="translate(-101.56 -101.91)" fill="#25c7d9"/><path d="M239.33,133.94a.74.74,0,0,1-.49.88c-.33,0-.64-.27-.69-.71a.74.74,0,0,1,.49-.88C239,133.18,239.28,133.5,239.33,133.94Z" transform="translate(-101.56 -101.91)" fill="#25c7d9"/><path d="M237.93,134.14a.74.74,0,0,1-.49.88c-.33,0-.64-.27-.69-.71a.74.74,0,0,1,.49-.88C237.56,133.39,237.87,133.7,237.93,134.14Z" transform="translate(-101.56 -101.91)" fill="#25c7d9"/><path d="M236.43,134.36a.74.74,0,0,1-.49.88c-.33,0-.64-.27-.69-.71a.74.74,0,0,1,.49-.88C236.06,133.61,236.37,133.92,236.43,134.36Z" transform="translate(-101.56 -101.91)" fill="#25c7d9"/><path d="M226.84,137.72a.74.74,0,0,1-.49.88c-.33,0-.64-.27-.69-.71a.74.74,0,0,1,.49-.88C226.47,137,226.78,137.28,226.84,137.72Z" transform="translate(-101.56 -101.91)" fill="#25c7d9"/><path d="M228.23,137.52a.74.74,0,0,1-.49.88c-.33,0-.64-.27-.69-.71a.74.74,0,0,1,.49-.88C227.86,136.76,228.17,137.08,228.23,137.52Z" transform="translate(-101.56 -101.91)" fill="#25c7d9"/><path d="M229.69,137.3a.74.74,0,0,1-.49.88c-.33,0-.64-.27-.69-.71a.74.74,0,0,1,.49-.88C229.32,136.55,229.63,136.87,229.69,137.3Z" transform="translate(-101.56 -101.91)" fill="#25c7d9"/><path d="M231.17,137.08a.74.74,0,0,1-.49.88c-.33,0-.64-.27-.69-.71a.74.74,0,0,1,.49-.88C230.81,136.33,231.12,136.65,231.17,137.08Z" transform="translate(-101.56 -101.91)" fill="#25c7d9"/><path d="M232.61,136.87a.74.74,0,0,1-.49.88c-.33,0-.64-.27-.69-.71a.74.74,0,0,1,.49-.88C232.24,136.12,232.55,136.44,232.61,136.87Z" transform="translate(-101.56 -101.91)" fill="#25c7d9"/><path d="M234,136.66a.74.74,0,0,1-.49.88c-.33,0-.64-.27-.69-.71a.74.74,0,0,1,.49-.88C233.67,135.91,234,136.23,234,136.66Z" transform="translate(-101.56 -101.91)" fill="#25c7d9"/><path d="M238.49,136a.74.74,0,0,1-.49.88c-.33,0-.64-.27-.69-.71a.74.74,0,0,1,.49-.88C238.13,135.25,238.44,135.57,238.49,136Z" transform="translate(-101.56 -101.91)" fill="#25c7d9"/><path d="M237.09,136.21a.74.74,0,0,1-.49.88c-.33,0-.64-.27-.69-.71a.74.74,0,0,1,.49-.88C236.72,135.46,237,135.78,237.09,136.21Z" transform="translate(-101.56 -101.91)" fill="#25c7d9"/><path d="M235.59,136.44a.74.74,0,0,1-.49.88c-.33,0-.64-.27-.69-.71a.74.74,0,0,1,.49-.88C235.22,135.68,235.53,136,235.59,136.44Z" transform="translate(-101.56 -101.91)" fill="#25c7d9"/><path d="M226,139.79a.74.74,0,0,1-.49.88c-.33,0-.64-.27-.69-.71a.74.74,0,0,1,.49-.88C225.63,139,225.94,139.36,226,139.79Z" transform="translate(-101.56 -101.91)" fill="#25c7d9"/><path d="M227.39,139.59a.74.74,0,0,1-.49.88c-.33,0-.64-.27-.69-.71a.74.74,0,0,1,.49-.88C227,138.84,227.33,139.15,227.39,139.59Z" transform="translate(-101.56 -101.91)" fill="#25c7d9"/><path d="M228.85,139.38a.74.74,0,0,1-.49.88c-.33,0-.64-.27-.69-.71a.74.74,0,0,1,.49-.88C228.48,138.62,228.79,138.94,228.85,139.38Z" transform="translate(-101.56 -101.91)" fill="#25c7d9"/><path d="M230.33,139.16a.74.74,0,0,1-.49.88c-.33,0-.64-.27-.69-.71a.74.74,0,0,1,.49-.88C230,138.4,230.28,138.72,230.33,139.16Z" transform="translate(-101.56 -101.91)" fill="#25c7d9"/><path d="M231.77,138.95a.74.74,0,0,1-.49.88c-.33,0-.64-.27-.69-.71a.74.74,0,0,1,.49-.88C231.4,138.19,231.71,138.51,231.77,138.95Z" transform="translate(-101.56 -101.91)" fill="#25c7d9"/><path d="M233.2,138.74a.74.74,0,0,1-.49.88c-.33,0-.64-.27-.69-.71a.74.74,0,0,1,.49-.88C232.83,138,233.14,138.3,233.2,138.74Z" transform="translate(-101.56 -101.91)" fill="#25c7d9"/><path d="M237.65,138.08a.74.74,0,0,1-.49.88c-.33,0-.64-.27-.69-.71a.74.74,0,0,1,.49-.88C237.29,137.33,237.6,137.64,237.65,138.08Z" transform="translate(-101.56 -101.91)" fill="#25c7d9"/><path d="M236.25,138.29a.74.74,0,0,1-.49.88c-.33,0-.64-.27-.69-.71a.74.74,0,0,1,.49-.88C235.88,137.53,236.19,137.85,236.25,138.29Z" transform="translate(-101.56 -101.91)" fill="#25c7d9"/><path d="M234.75,138.51a.74.74,0,0,1-.49.88c-.33,0-.64-.27-.69-.71a.74.74,0,0,1,.49-.88C234.38,137.75,234.69,138.07,234.75,138.51Z" transform="translate(-101.56 -101.91)" fill="#25c7d9"/><path d="M225.16,141.87a.74.74,0,0,1-.49.88c-.33,0-.64-.27-.69-.71a.74.74,0,0,1,.49-.88C224.79,141.11,225.1,141.43,225.16,141.87Z" transform="translate(-101.56 -101.91)" fill="#25c7d9"/><path d="M226.55,141.66a.74.74,0,0,1-.49.88c-.33,0-.64-.27-.69-.71a.74.74,0,0,1,.49-.88C226.18,140.91,226.49,141.23,226.55,141.66Z" transform="translate(-101.56 -101.91)" fill="#25c7d9"/><path d="M228,141.45a.74.74,0,0,1-.49.88c-.33,0-.64-.27-.69-.71a.74.74,0,0,1,.49-.88C227.64,140.69,228,141,228,141.45Z" transform="translate(-101.56 -101.91)" fill="#25c7d9"/><path d="M229.49,141.23a.74.74,0,0,1-.49.88c-.33,0-.64-.27-.69-.71a.74.74,0,0,1,.49-.88C229.13,140.48,229.44,140.79,229.49,141.23Z" transform="translate(-101.56 -101.91)" fill="#25c7d9"/><path d="M230.93,141a.74.74,0,0,1-.49.88c-.33,0-.64-.27-.69-.71a.74.74,0,0,1,.49-.88C230.56,140.27,230.87,140.58,230.93,141Z" transform="translate(-101.56 -101.91)" fill="#25c7d9"/><path d="M232.36,140.81a.74.74,0,0,1-.49.88c-.33,0-.64-.27-.69-.71a.74.74,0,0,1,.49-.88C232,140.05,232.3,140.37,232.36,140.81Z" transform="translate(-101.56 -101.91)" fill="#25c7d9"/><path d="M236.81,140.15a.74.74,0,0,1-.49.88c-.33,0-.64-.27-.69-.71a.74.74,0,0,1,.49-.88C236.45,139.4,236.76,139.72,236.81,140.15Z" transform="translate(-101.56 -101.91)" fill="#25c7d9"/><path d="M235.41,140.36a.74.74,0,0,1-.49.88c-.33,0-.64-.27-.69-.71a.74.74,0,0,1,.49-.88C235,139.61,235.35,139.92,235.41,140.36Z" transform="translate(-101.56 -101.91)" fill="#25c7d9"/><path d="M233.91,140.58a.74.74,0,0,1-.49.88c-.33,0-.64-.27-.69-.71a.74.74,0,0,1,.49-.88C233.54,139.83,233.85,140.14,233.91,140.58Z" transform="translate(-101.56 -101.91)" fill="#25c7d9"/><path d="M224.32,143.94a.74.74,0,0,1-.49.88c-.33,0-.64-.27-.69-.71a.74.74,0,0,1,.49-.88C224,143.19,224.26,143.5,224.32,143.94Z" transform="translate(-101.56 -101.91)" fill="#25c7d9"/><path d="M225.71,143.74a.74.74,0,0,1-.49.88c-.33,0-.64-.27-.69-.71A.74.74,0,0,1,225,143C225.34,143,225.65,143.3,225.71,143.74Z" transform="translate(-101.56 -101.91)" fill="#25c7d9"/><path d="M227.17,143.52a.74.74,0,0,1-.49.88c-.33,0-.64-.27-.69-.71a.74.74,0,0,1,.49-.88C226.8,142.77,227.11,143.08,227.17,143.52Z" transform="translate(-101.56 -101.91)" fill="#25c7d9"/><path d="M228.65,143.3a.74.74,0,0,1-.49.88c-.33,0-.64-.27-.69-.71a.74.74,0,0,1,.49-.88C228.29,142.55,228.6,142.86,228.65,143.3Z" transform="translate(-101.56 -101.91)" fill="#25c7d9"/><path d="M230.09,143.09a.74.74,0,0,1-.49.88c-.33,0-.64-.27-.69-.71a.74.74,0,0,1,.49-.88C229.72,142.34,230,142.65,230.09,143.09Z" transform="translate(-101.56 -101.91)" fill="#25c7d9"/><path d="M231.52,142.88a.74.74,0,0,1-.49.88c-.33,0-.64-.27-.69-.71a.74.74,0,0,1,.49-.88C231.15,142.13,231.46,142.44,231.52,142.88Z" transform="translate(-101.56 -101.91)" fill="#25c7d9"/><path d="M236,142.23a.74.74,0,0,1-.49.88c-.33,0-.64-.27-.69-.71a.74.74,0,0,1,.49-.88C235.61,141.47,235.92,141.79,236,142.23Z" transform="translate(-101.56 -101.91)" fill="#25c7d9"/><path d="M234.57,142.43a.74.74,0,0,1-.49.88c-.33,0-.64-.27-.69-.71a.74.74,0,0,1,.49-.88C234.2,141.68,234.51,142,234.57,142.43Z" transform="translate(-101.56 -101.91)" fill="#25c7d9"/><path d="M233.07,142.65a.74.74,0,0,1-.49.88c-.33,0-.64-.27-.69-.71a.74.74,0,0,1,.49-.88C232.7,141.9,233,142.22,233.07,142.65Z" transform="translate(-101.56 -101.91)" fill="#25c7d9"/><path d="M223.48,146a.74.74,0,0,1-.49.88c-.33,0-.64-.27-.69-.71a.74.74,0,0,1,.49-.88C223.11,145.26,223.42,145.58,223.48,146Z" transform="translate(-101.56 -101.91)" fill="#25c7d9"/><path d="M224.87,145.81a.74.74,0,0,1-.49.88c-.33,0-.64-.27-.69-.71a.74.74,0,0,1,.49-.88C224.5,145.05,224.81,145.37,224.87,145.81Z" transform="translate(-101.56 -101.91)" fill="#25c7d9"/><path d="M226.33,145.59a.74.74,0,0,1-.49.88c-.33,0-.64-.27-.69-.71a.74.74,0,0,1,.49-.88C226,144.84,226.27,145.16,226.33,145.59Z" transform="translate(-101.56 -101.91)" fill="#25c7d9"/><path d="M227.81,145.38a.74.74,0,0,1-.49.88c-.33,0-.64-.27-.69-.71a.74.74,0,0,1,.49-.88C227.45,144.62,227.76,144.94,227.81,145.38Z" transform="translate(-101.56 -101.91)" fill="#25c7d9"/><path d="M229.25,145.16a.74.74,0,0,1-.49.88c-.33,0-.64-.27-.69-.71a.74.74,0,0,1,.49-.88C228.88,144.41,229.19,144.73,229.25,145.16Z" transform="translate(-101.56 -101.91)" fill="#25c7d9"/><path d="M230.68,145a.74.74,0,0,1-.49.88c-.33,0-.64-.27-.69-.71a.74.74,0,0,1,.49-.88C230.31,144.2,230.62,144.52,230.68,145Z" transform="translate(-101.56 -101.91)" fill="#25c7d9"/><path d="M235.13,144.3a.74.74,0,0,1-.49.88c-.33,0-.64-.27-.69-.71a.74.74,0,0,1,.49-.88C234.77,143.55,235.08,143.86,235.13,144.3Z" transform="translate(-101.56 -101.91)" fill="#25c7d9"/><path d="M233.73,144.51a.74.74,0,0,1-.49.88c-.33,0-.64-.27-.69-.71a.74.74,0,0,1,.49-.88C233.36,143.75,233.67,144.07,233.73,144.51Z" transform="translate(-101.56 -101.91)" fill="#25c7d9"/><path d="M232.23,144.73a.74.74,0,0,1-.49.88c-.33,0-.64-.27-.69-.71a.74.74,0,0,1,.49-.88C231.86,144,232.17,144.29,232.23,144.73Z" transform="translate(-101.56 -101.91)" fill="#25c7d9"/><path d="M222.64,148.09a.74.74,0,0,1-.49.88c-.33,0-.64-.27-.69-.71a.74.74,0,0,1,.49-.88C222.27,147.33,222.58,147.65,222.64,148.09Z" transform="translate(-101.56 -101.91)" fill="#25c7d9"/><path d="M224,147.88a.74.74,0,0,1-.49.88c-.33,0-.64-.27-.69-.71a.74.74,0,0,1,.49-.88C223.66,147.13,224,147.44,224,147.88Z" transform="translate(-101.56 -101.91)" fill="#25c7d9"/><path d="M225.49,147.67a.74.74,0,0,1-.49.88c-.33,0-.64-.27-.69-.71a.74.74,0,0,1,.49-.88C225.12,146.91,225.43,147.23,225.49,147.67Z" transform="translate(-101.56 -101.91)" fill="#25c7d9"/><path d="M227,147.45a.74.74,0,0,1-.49.88c-.33,0-.64-.27-.69-.71a.74.74,0,0,1,.49-.88C226.61,146.69,226.92,147,227,147.45Z" transform="translate(-101.56 -101.91)" fill="#25c7d9"/><path d="M228.41,147.24a.74.74,0,0,1-.49.88c-.33,0-.64-.27-.69-.71a.74.74,0,0,1,.49-.88C228,146.48,228.35,146.8,228.41,147.24Z" transform="translate(-101.56 -101.91)" fill="#25c7d9"/><path d="M229.84,147a.74.74,0,0,1-.49.88c-.33,0-.64-.27-.69-.71a.74.74,0,0,1,.49-.88C229.47,146.27,229.78,146.59,229.84,147Z" transform="translate(-101.56 -101.91)" fill="#25c7d9"/><path d="M234.29,146.37a.74.74,0,0,1-.49.88c-.33,0-.64-.27-.69-.71a.74.74,0,0,1,.49-.88C233.92,145.62,234.24,145.93,234.29,146.37Z" transform="translate(-101.56 -101.91)" fill="#25c7d9"/><path d="M232.89,146.58a.74.74,0,0,1-.49.88c-.33,0-.64-.27-.69-.71a.74.74,0,0,1,.49-.88C232.52,145.82,232.83,146.14,232.89,146.58Z" transform="translate(-101.56 -101.91)" fill="#25c7d9"/><path d="M231.39,146.8a.74.74,0,0,1-.49.88c-.33,0-.64-.27-.69-.71a.74.74,0,0,1,.49-.88C231,146,231.33,146.36,231.39,146.8Z" transform="translate(-101.56 -101.91)" fill="#25c7d9"/><path d="M230,147a.74.74,0,0,1-.49.88c-.33,0-.64-.27-.69-.71a.74.74,0,0,1,.49-.88C229.66,146.25,230,146.56,230,147Z" transform="translate(-101.56 -101.91)" fill="#25c7d9"/><path d="M231.41,146.79a.74.74,0,0,1-.49.88c-.33,0-.64-.27-.69-.71a.74.74,0,0,1,.49-.88C231,146,231.36,146.36,231.41,146.79Z" transform="translate(-101.56 -101.91)" fill="#25c7d9"/><path d="M232.87,146.58a.74.74,0,0,1-.49.88c-.33,0-.64-.27-.69-.71a.74.74,0,0,1,.49-.88C232.51,145.83,232.82,146.14,232.87,146.58Z" transform="translate(-101.56 -101.91)" fill="#25c7d9"/><path d="M234.36,146.36a.74.74,0,0,1-.49.88c-.33,0-.64-.27-.69-.71a.74.74,0,0,1,.49-.88C234,145.61,234.3,145.92,234.36,146.36Z" transform="translate(-101.56 -101.91)" fill="#25c7d9"/><path d="M235.79,146.15a.74.74,0,0,1-.49.88c-.33,0-.64-.27-.69-.71a.74.74,0,0,1,.49-.88C235.43,145.4,235.74,145.71,235.79,146.15Z" transform="translate(-101.56 -101.91)" fill="#25c7d9"/><path d="M237.22,145.94a.74.74,0,0,1-.49.88c-.33,0-.64-.27-.69-.71a.74.74,0,0,1,.49-.88C236.86,145.19,237.17,145.5,237.22,145.94Z" transform="translate(-101.56 -101.91)" fill="#25c7d9"/><path d="M241.68,145.29a.74.74,0,0,1-.49.88c-.33,0-.64-.27-.69-.71a.74.74,0,0,1,.49-.88C241.31,144.53,241.62,144.85,241.68,145.29Z" transform="translate(-101.56 -101.91)" fill="#25c7d9"/><path d="M240.27,145.49a.74.74,0,0,1-.49.88c-.33,0-.64-.27-.69-.71a.74.74,0,0,1,.49-.88C239.91,144.74,240.22,145.05,240.27,145.49Z" transform="translate(-101.56 -101.91)" fill="#25c7d9"/><path d="M238.77,145.71a.74.74,0,0,1-.49.88c-.33,0-.64-.27-.69-.71a.74.74,0,0,1,.49-.88C238.41,145,238.72,145.27,238.77,145.71Z" transform="translate(-101.56 -101.91)" fill="#25c7d9"/><path d="M230.4,148.56a.74.74,0,0,1-.49.88c-.33,0-.64-.27-.69-.71a.74.74,0,0,1,.49-.88C230,147.8,230.35,148.12,230.4,148.56Z" transform="translate(-101.56 -101.91)" fill="#25c7d9"/><path d="M231.86,148.34a.74.74,0,0,1-.49.88c-.33,0-.64-.27-.69-.71a.74.74,0,0,1,.49-.88C231.5,147.59,231.81,147.91,231.86,148.34Z" transform="translate(-101.56 -101.91)" fill="#25c7d9"/><path d="M233.35,148.13a.74.74,0,0,1-.49.88c-.33,0-.64-.27-.69-.71a.74.74,0,0,1,.49-.88C233,147.37,233.29,147.69,233.35,148.13Z" transform="translate(-101.56 -101.91)" fill="#25c7d9"/><path d="M234.78,147.91a.74.74,0,0,1-.49.88c-.33,0-.64-.27-.69-.71a.74.74,0,0,1,.49-.88C234.42,147.16,234.73,147.48,234.78,147.91Z" transform="translate(-101.56 -101.91)" fill="#25c7d9"/><path d="M236.21,147.7a.74.74,0,0,1-.49.88c-.33,0-.64-.27-.69-.71a.74.74,0,0,1,.49-.88C235.85,146.95,236.16,147.27,236.21,147.7Z" transform="translate(-101.56 -101.91)" fill="#25c7d9"/><path d="M240.67,147a.74.74,0,0,1-.49.88c-.33,0-.64-.27-.69-.71a.74.74,0,0,1,.49-.88C240.3,146.3,240.61,146.61,240.67,147Z" transform="translate(-101.56 -101.91)" fill="#25c7d9"/><path d="M239.26,147.25a.74.74,0,0,1-.49.88c-.33,0-.64-.27-.69-.71a.74.74,0,0,1,.49-.88C238.9,146.5,239.21,146.82,239.26,147.25Z" transform="translate(-101.56 -101.91)" fill="#25c7d9"/><path d="M237.76,147.48a.74.74,0,0,1-.49.88c-.33,0-.64-.27-.69-.71a.74.74,0,0,1,.49-.88C237.4,146.72,237.71,147,237.76,147.48Z" transform="translate(-101.56 -101.91)" fill="#25c7d9"/><path d="M229.43,150.5a.74.74,0,0,1-.49.88c-.33,0-.64-.27-.69-.71a.74.74,0,0,1,.49-.88C229.06,149.75,229.37,150.07,229.43,150.5Z" transform="translate(-101.56 -101.91)" fill="#25c7d9"/><path d="M230.85,150.11a.74.74,0,0,1-.49.88c-.33,0-.64-.27-.69-.71a.74.74,0,0,1,.49-.88C230.49,149.35,230.8,149.67,230.85,150.11Z" transform="translate(-101.56 -101.91)" fill="#25c7d9"/><path d="M232.34,149.89a.74.74,0,0,1-.49.88c-.33,0-.64-.27-.69-.71a.74.74,0,0,1,.49-.88C232,149.13,232.28,149.45,232.34,149.89Z" transform="translate(-101.56 -101.91)" fill="#25c7d9"/><path d="M233.77,149.68a.74.74,0,0,1-.49.88c-.33,0-.64-.27-.69-.71a.74.74,0,0,1,.49-.88C233.41,148.92,233.72,149.24,233.77,149.68Z" transform="translate(-101.56 -101.91)" fill="#25c7d9"/><path d="M235.21,149.47a.74.74,0,0,1-.49.88c-.33,0-.64-.27-.69-.71a.74.74,0,0,1,.49-.88C234.84,148.71,235.15,149,235.21,149.47Z" transform="translate(-101.56 -101.91)" fill="#25c7d9"/><path d="M239.66,148.81a.74.74,0,0,1-.49.88c-.33,0-.64-.27-.69-.71a.74.74,0,0,1,.49-.88C239.29,148.06,239.6,148.37,239.66,148.81Z" transform="translate(-101.56 -101.91)" fill="#25c7d9"/><path d="M238.25,149a.74.74,0,0,1-.49.88c-.33,0-.64-.27-.69-.71a.74.74,0,0,1,.49-.88C237.89,148.26,238.2,148.58,238.25,149Z" transform="translate(-101.56 -101.91)" fill="#25c7d9"/><path d="M236.75,149.24a.74.74,0,0,1-.49.88c-.33,0-.64-.27-.69-.71a.74.74,0,0,1,.49-.88C236.39,148.49,236.7,148.8,236.75,149.24Z" transform="translate(-101.56 -101.91)" fill="#25c7d9"/><path d="M229.85,151.87a.74.74,0,0,1-.49.88c-.33,0-.64-.27-.69-.71a.74.74,0,0,1,.49-.88C229.48,151.12,229.8,151.43,229.85,151.87Z" transform="translate(-101.56 -101.91)" fill="#25c7d9"/><path d="M231.33,151.65a.74.74,0,0,1-.49.88c-.33,0-.64-.27-.69-.71a.74.74,0,0,1,.49-.88C231,150.9,231.27,151.21,231.33,151.65Z" transform="translate(-101.56 -101.91)" fill="#25c7d9"/><path d="M232.76,151.44a.74.74,0,0,1-.49.88c-.33,0-.64-.27-.69-.71a.74.74,0,0,1,.49-.88C232.4,150.69,232.71,151,232.76,151.44Z" transform="translate(-101.56 -101.91)" fill="#25c7d9"/><path d="M234.2,151.23a.74.74,0,0,1-.49.88c-.33,0-.64-.27-.69-.71a.74.74,0,0,1,.49-.88C233.83,150.48,234.14,150.79,234.2,151.23Z" transform="translate(-101.56 -101.91)" fill="#25c7d9"/><path d="M238.65,150.58a.74.74,0,0,1-.49.88c-.33,0-.64-.27-.69-.71a.74.74,0,0,1,.49-.88C238.28,149.82,238.59,150.14,238.65,150.58Z" transform="translate(-101.56 -101.91)" fill="#25c7d9"/><path d="M237.25,150.78a.74.74,0,0,1-.49.88c-.33,0-.64-.27-.69-.71a.74.74,0,0,1,.49-.88C236.88,150,237.19,150.34,237.25,150.78Z" transform="translate(-101.56 -101.91)" fill="#25c7d9"/><path d="M235.74,151a.74.74,0,0,1-.49.88c-.33,0-.64-.27-.69-.71a.74.74,0,0,1,.49-.88C235.38,150.25,235.69,150.56,235.74,151Z" transform="translate(-101.56 -101.91)" fill="#25c7d9"/><path d="M228.84,153.63a.74.74,0,0,1-.49.88c-.33,0-.64-.27-.69-.71a.74.74,0,0,1,.49-.88C228.47,152.88,228.78,153.2,228.84,153.63Z" transform="translate(-101.56 -101.91)" fill="#25c7d9"/><path d="M230.32,153.42a.74.74,0,0,1-.49.88c-.33,0-.64-.27-.69-.71a.74.74,0,0,1,.49-.88C230,152.66,230.26,153,230.32,153.42Z" transform="translate(-101.56 -101.91)" fill="#25c7d9"/><path d="M231.76,153.2a.74.74,0,0,1-.49.88c-.33,0-.64-.27-.69-.71a.74.74,0,0,1,.49-.88C231.39,152.45,231.7,152.77,231.76,153.2Z" transform="translate(-101.56 -101.91)" fill="#25c7d9"/><path d="M233.19,153a.74.74,0,0,1-.49.88c-.33,0-.64-.27-.69-.71a.74.74,0,0,1,.49-.88C232.82,152.24,233.13,152.56,233.19,153Z" transform="translate(-101.56 -101.91)" fill="#25c7d9"/><path d="M237.64,152.34a.74.74,0,0,1-.49.88c-.33,0-.64-.27-.69-.71a.74.74,0,0,1,.49-.88C237.27,151.59,237.58,151.9,237.64,152.34Z" transform="translate(-101.56 -101.91)" fill="#25c7d9"/><path d="M236.24,152.55a.74.74,0,0,1-.49.88c-.33,0-.64-.27-.69-.71a.74.74,0,0,1,.49-.88C235.87,151.79,236.18,152.11,236.24,152.55Z" transform="translate(-101.56 -101.91)" fill="#25c7d9"/><path d="M234.74,152.77a.74.74,0,0,1-.49.88c-.33,0-.64-.27-.69-.71a.74.74,0,0,1,.49-.88C234.37,152,234.68,152.33,234.74,152.77Z" transform="translate(-101.56 -101.91)" fill="#25c7d9"/><path d="M226.7,155.83c0-.44.24-.79.58-.78a.77.77,0,0,1,.63.81c0,.44-.24.79-.58.78A.77.77,0,0,1,226.7,155.83Z" transform="translate(-101.56 -101.91)" fill="#25c7d9"/><path d="M227.17,157.11c0-.44.24-.79.58-.78a.77.77,0,0,1,.63.81c0,.44-.24.79-.58.78A.77.77,0,0,1,227.17,157.11Z" transform="translate(-101.56 -101.91)" fill="#25c7d9"/><path d="M229.31,155.18a.74.74,0,0,1-.49.88c-.33,0-.64-.27-.69-.71a.74.74,0,0,1,.49-.88C228.94,154.43,229.25,154.74,229.31,155.18Z" transform="translate(-101.56 -101.91)" fill="#25c7d9"/><path d="M230.75,155a.74.74,0,0,1-.49.88c-.33,0-.64-.27-.69-.71a.74.74,0,0,1,.49-.88C230.38,154.21,230.69,154.53,230.75,155Z" transform="translate(-101.56 -101.91)" fill="#25c7d9"/><path d="M232.18,154.76a.74.74,0,0,1-.49.88c-.33,0-.64-.27-.69-.71a.74.74,0,0,1,.49-.88C231.81,154,232.12,154.32,232.18,154.76Z" transform="translate(-101.56 -101.91)" fill="#25c7d9"/><path d="M236.63,154.1a.74.74,0,0,1-.49.88c-.33,0-.64-.27-.69-.71a.74.74,0,0,1,.49-.88C236.26,153.35,236.57,153.66,236.63,154.1Z" transform="translate(-101.56 -101.91)" fill="#25c7d9"/><path d="M235.23,154.31a.74.74,0,0,1-.49.88c-.33,0-.64-.27-.69-.71a.74.74,0,0,1,.49-.88C234.86,153.55,235.17,153.87,235.23,154.31Z" transform="translate(-101.56 -101.91)" fill="#25c7d9"/><path d="M233.73,154.53a.74.74,0,0,1-.49.88c-.33,0-.64-.27-.69-.71a.74.74,0,0,1,.49-.88C233.36,153.78,233.67,154.09,233.73,154.53Z" transform="translate(-101.56 -101.91)" fill="#25c7d9"/><path d="M228.85,158.48a.74.74,0,0,1-.49.88c-.33,0-.64-.27-.69-.71a.74.74,0,0,1,.49-.88C228.48,157.72,228.79,158,228.85,158.48Z" transform="translate(-101.56 -101.91)" fill="#25c7d9"/><path d="M229.74,156.73a.74.74,0,0,1-.49.88c-.33,0-.64-.27-.69-.71A.74.74,0,0,1,229,156C229.37,156,229.68,156.29,229.74,156.73Z" transform="translate(-101.56 -101.91)" fill="#25c7d9"/><path d="M231.17,156.52a.74.74,0,0,1-.49.88c-.33,0-.64-.27-.69-.71a.74.74,0,0,1,.49-.88C230.8,155.77,231.11,156.08,231.17,156.52Z" transform="translate(-101.56 -101.91)" fill="#25c7d9"/><path d="M235.62,155.87a.74.74,0,0,1-.49.88c-.33,0-.64-.27-.69-.71a.74.74,0,0,1,.49-.88C235.25,155.11,235.56,155.43,235.62,155.87Z" transform="translate(-101.56 -101.91)" fill="#25c7d9"/><path d="M234.22,156.07a.74.74,0,0,1-.49.88c-.33,0-.64-.27-.69-.71a.74.74,0,0,1,.49-.88C233.85,155.32,234.16,155.63,234.22,156.07Z" transform="translate(-101.56 -101.91)" fill="#25c7d9"/><path d="M232.72,156.29a.74.74,0,0,1-.49.88c-.33,0-.64-.27-.69-.71a.74.74,0,0,1,.49-.88C232.35,155.54,232.66,155.85,232.72,156.29Z" transform="translate(-101.56 -101.91)" fill="#25c7d9"/><path d="M227.27,158.78a.74.74,0,0,1-.49.88c-.33,0-.64-.27-.69-.71a.74.74,0,0,1,.49-.88C226.91,158,227.22,158.34,227.27,158.78Z" transform="translate(-101.56 -101.91)" fill="#25c7d9"/><path d="M229.34,159.92a.74.74,0,0,1-.49.88c-.33,0-.64-.27-.69-.71a.74.74,0,0,1,.49-.88C229,159.17,229.28,159.48,229.34,159.92Z" transform="translate(-101.56 -101.91)" fill="#25c7d9"/><path d="M230.16,158.28a.74.74,0,0,1-.49.88c-.33,0-.64-.27-.69-.71a.74.74,0,0,1,.49-.88C229.79,157.53,230.1,157.85,230.16,158.28Z" transform="translate(-101.56 -101.91)" fill="#25c7d9"/><path d="M234.61,157.63a.74.74,0,0,1-.49.88c-.33,0-.64-.27-.69-.71a.74.74,0,0,1,.49-.88C234.24,156.88,234.55,157.19,234.61,157.63Z" transform="translate(-101.56 -101.91)" fill="#25c7d9"/><path d="M233.21,157.84a.74.74,0,0,1-.49.88c-.33,0-.64-.27-.69-.71a.74.74,0,0,1,.49-.88C232.84,157.08,233.15,157.4,233.21,157.84Z" transform="translate(-101.56 -101.91)" fill="#25c7d9"/><path d="M231.71,158.06a.74.74,0,0,1-.49.88c-.33,0-.64-.27-.69-.71a.74.74,0,0,1,.49-.88C231.34,157.3,231.65,157.62,231.71,158.06Z" transform="translate(-101.56 -101.91)" fill="#25c7d9"/><path d="M227.72,160.26a.74.74,0,0,1-.49.88c-.33,0-.64-.27-.69-.71a.74.74,0,0,1,.49-.88C227.35,159.5,227.66,159.82,227.72,160.26Z" transform="translate(-101.56 -101.91)" fill="#25c7d9"/><path d="M233.6,159.39a.74.74,0,0,1-.49.88c-.33,0-.64-.27-.69-.71a.74.74,0,0,1,.49-.88C233.24,158.64,233.55,159,233.6,159.39Z" transform="translate(-101.56 -101.91)" fill="#25c7d9"/><path d="M232.2,159.6a.74.74,0,0,1-.49.88c-.33,0-.64-.27-.69-.71a.74.74,0,0,1,.49-.88C231.83,158.85,232.14,159.16,232.2,159.6Z" transform="translate(-101.56 -101.91)" fill="#25c7d9"/><path d="M230.7,159.82a.74.74,0,0,1-.49.88c-.33,0-.64-.27-.69-.71a.74.74,0,0,1,.49-.88C230.33,159.07,230.64,159.38,230.7,159.82Z" transform="translate(-101.56 -101.91)" fill="#25c7d9"/><path d="M226.47,161.48a.74.74,0,0,1-.49.88c-.33,0-.64-.27-.69-.71a.74.74,0,0,1,.49-.88C226.1,160.72,226.41,161,226.47,161.48Z" transform="translate(-101.56 -101.91)" fill="#25c7d9"/><path d="M228.17,161.75a.74.74,0,0,1-.49.88c-.33,0-.64-.27-.69-.71a.74.74,0,0,1,.49-.88C227.8,161,228.11,161.31,228.17,161.75Z" transform="translate(-101.56 -101.91)" fill="#25c7d9"/><path d="M232.59,161.16a.74.74,0,0,1-.49.88c-.33,0-.64-.27-.69-.71a.74.74,0,0,1,.49-.88C232.23,160.4,232.54,160.72,232.59,161.16Z" transform="translate(-101.56 -101.91)" fill="#25c7d9"/><path d="M231.19,161.36a.74.74,0,0,1-.49.88c-.33,0-.64-.27-.69-.71a.74.74,0,0,1,.49-.88C230.82,160.61,231.13,160.92,231.19,161.36Z" transform="translate(-101.56 -101.91)" fill="#25c7d9"/><path d="M229.83,161.46a.74.74,0,0,1-.49.88c-.33,0-.64-.27-.69-.71a.74.74,0,0,1,.49-.88C229.47,160.71,229.78,161,229.83,161.46Z" transform="translate(-101.56 -101.91)" fill="#25c7d9"/><path d="M225.7,163.78a.74.74,0,0,1-.49.88c-.33,0-.64-.27-.69-.71a.74.74,0,0,1,.49-.88C225.33,163,225.64,163.35,225.7,163.78Z" transform="translate(-101.56 -101.91)" fill="#25c7d9"/><path d="M227.1,163.23a.74.74,0,0,1-.49.88c-.33,0-.64-.27-.69-.71a.74.74,0,0,1,.49-.88C226.73,162.47,227,162.79,227.1,163.23Z" transform="translate(-101.56 -101.91)" fill="#25c7d9"/><path d="M231.58,162.92a.74.74,0,0,1-.49.88c-.33,0-.64-.27-.69-.71a.74.74,0,0,1,.49-.88C231.22,162.17,231.53,162.48,231.58,162.92Z" transform="translate(-101.56 -101.91)" fill="#25c7d9"/><path d="M230.3,163a.74.74,0,0,1-.49.88c-.33,0-.64-.27-.69-.71a.74.74,0,0,1,.49-.88C229.94,162.23,230.25,162.55,230.3,163Z" transform="translate(-101.56 -101.91)" fill="#25c7d9"/><path d="M228.68,163.35a.74.74,0,0,1-.49.88c-.33,0-.64-.27-.69-.71a.74.74,0,0,1,.49-.88C228.31,162.59,228.62,162.91,228.68,163.35Z" transform="translate(-101.56 -101.91)" fill="#25c7d9"/><path d="M226.16,165.33a.74.74,0,0,1-.49.88c-.33,0-.64-.27-.69-.71a.74.74,0,0,1,.49-.88C225.79,164.58,226.1,164.89,226.16,165.33Z" transform="translate(-101.56 -101.91)" fill="#25c7d9"/><path d="M230.69,164.54a.74.74,0,0,1-.49.88c-.33,0-.64-.27-.69-.71a.74.74,0,0,1,.49-.88C230.33,163.79,230.64,164.11,230.69,164.54Z" transform="translate(-101.56 -101.91)" fill="#25c7d9"/><path d="M229.17,164.89a.74.74,0,0,1-.49.88c-.33,0-.64-.27-.69-.71a.74.74,0,0,1,.49-.88C228.8,164.14,229.12,164.45,229.17,164.89Z" transform="translate(-101.56 -101.91)" fill="#25c7d9"/><path d="M227.62,164.88a.74.74,0,0,1-.49.88c-.33,0-.64-.27-.69-.71a.74.74,0,0,1,.49-.88C227.25,164.13,227.56,164.44,227.62,164.88Z" transform="translate(-101.56 -101.91)" fill="#25c7d9"/><path d="M225,166.32a.74.74,0,0,1-.49.88c-.33,0-.64-.27-.69-.71a.74.74,0,0,1,.49-.88C224.59,165.56,224.9,165.88,225,166.32Z" transform="translate(-101.56 -101.91)" fill="#25c7d9"/><path d="M229.56,166.45a.74.74,0,0,1-.49.88c-.33,0-.64-.27-.69-.71a.74.74,0,0,1,.49-.88C229.2,165.69,229.51,166,229.56,166.45Z" transform="translate(-101.56 -101.91)" fill="#25c7d9"/><path d="M228.16,166.53a.74.74,0,0,1-.49.88c-.33,0-.64-.27-.69-.71a.74.74,0,0,1,.49-.88C227.8,165.78,228.11,166.09,228.16,166.53Z" transform="translate(-101.56 -101.91)" fill="#25c7d9"/><path d="M226.66,166.87a.74.74,0,0,1-.49.88c-.33,0-.64-.27-.69-.71a.74.74,0,0,1,.49-.88C226.3,166.12,226.61,166.44,226.66,166.87Z" transform="translate(-101.56 -101.91)" fill="#25c7d9"/><path d="M228.61,167.95a.74.74,0,0,1-.49.88c-.33,0-.64-.27-.69-.71a.74.74,0,0,1,.49-.88C228.24,167.2,228.55,167.51,228.61,167.95Z" transform="translate(-101.56 -101.91)" fill="#25c7d9"/><path d="M227.15,168.42a.74.74,0,0,1-.49.88c-.33,0-.64-.27-.69-.71a.74.74,0,0,1,.49-.88C226.79,167.66,227.1,168,227.15,168.42Z" transform="translate(-101.56 -101.91)" fill="#25c7d9"/><path d="M225.55,168.29a.74.74,0,0,1-.49.88c-.33,0-.64-.27-.69-.71a.74.74,0,0,1,.49-.88C225.19,167.54,225.5,167.86,225.55,168.29Z" transform="translate(-101.56 -101.91)" fill="#25c7d9"/><path d="M227.55,170a.74.74,0,0,1-.49.88c-.33,0-.64-.27-.69-.71a.74.74,0,0,1,.49-.88C227.18,169.22,227.49,169.54,227.55,170Z" transform="translate(-101.56 -101.91)" fill="#25c7d9"/><path d="M226,169.95a.74.74,0,0,1-.49.88c-.33,0-.64-.27-.69-.71a.74.74,0,0,1,.49-.88C225.65,169.19,226,169.51,226,169.95Z" transform="translate(-101.56 -101.91)" fill="#25c7d9"/><path d="M224.2,169.41a.74.74,0,0,1-.49.88c-.33,0-.64-.27-.69-.71a.74.74,0,0,1,.49-.88C223.83,168.65,224.14,169,224.2,169.41Z" transform="translate(-101.56 -101.91)" fill="#25c7d9"/><path d="M226.43,171.5a.74.74,0,0,1-.49.88c-.33,0-.64-.27-.69-.71a.74.74,0,0,1,.49-.88C226.06,170.75,226.37,171.06,226.43,171.5Z" transform="translate(-101.56 -101.91)" fill="#25c7d9"/><path d="M224.9,171.17a.74.74,0,0,1-.49.88c-.33,0-.64-.27-.69-.71a.74.74,0,0,1,.49-.88C224.53,170.42,224.84,170.73,224.9,171.17Z" transform="translate(-101.56 -101.91)" fill="#25c7d9"/><path d="M223.57,171.36a.74.74,0,0,1-.49.88c-.33,0-.64-.27-.69-.71a.74.74,0,0,1,.49-.88C223.21,170.61,223.52,170.92,223.57,171.36Z" transform="translate(-101.56 -101.91)" fill="#25c7d9"/><path d="M225.38,173.61a.5.5,0,0,1-.85,0,1,1,0,0,1,0-1.13.5.5,0,0,1,.85,0A1,1,0,0,1,225.38,173.61Z" transform="translate(-101.56 -101.91)" fill="#25c7d9"/><path d="M224.19,172.89a.74.74,0,0,1-.49.88c-.33,0-.64-.27-.69-.71a.74.74,0,0,1,.49-.88C223.82,172.13,224.13,172.45,224.19,172.89Z" transform="translate(-101.56 -101.91)" fill="#25c7d9"/><path d="M223.19,174.07a.74.74,0,0,1-.49.88c-.33,0-.64-.27-.69-.71a.74.74,0,0,1,.49-.88C222.83,173.31,223.14,173.63,223.19,174.07Z" transform="translate(-101.56 -101.91)" fill="#25c7d9"/><path d="M224.81,174.27a.8.8,0,0,1-.4,1c-.32.1-.65-.16-.75-.59a.8.8,0,0,1,.4-1C224.37,173.58,224.71,173.84,224.81,174.27Z" transform="translate(-101.56 -101.91)" fill="#25c7d9"/><path d="M223.91,175.28a.91.91,0,0,1-.22,1.07c-.29.2-.66,0-.82-.35a.91.91,0,0,1,.22-1.07C223.38,174.73,223.74,174.89,223.91,175.28Z" transform="translate(-101.56 -101.91)" fill="#25c7d9"/><path d="M222.15,174.86a.81.81,0,0,1,.3.9c-.1.34-.4.49-.66.34a.81.81,0,0,1-.3-.9C221.59,174.85,221.88,174.7,222.15,174.86Z" transform="translate(-101.56 -101.91)" fill="#25c7d9"/><path d="M223.08,177a.64.64,0,0,1-.42.76c-.28,0-.55-.23-.6-.61a.64.64,0,0,1,.42-.76C222.76,176.31,223,176.58,223.08,177Z" transform="translate(-101.56 -101.91)" fill="#25c7d9"/><path d="M221.63,178.75a.8.8,0,0,1-.59-.86c0-.44.28-.77.61-.73a.8.8,0,0,1,.59.86C222.24,178.46,222,178.79,221.63,178.75Z" transform="translate(-101.56 -101.91)" fill="#25c7d9"/><path d="M221.54,176.93a.4.4,0,0,1-.29-.43c0-.22.14-.38.31-.36a.4.4,0,0,1,.29.43C221.84,176.78,221.7,176.95,221.54,176.93Z" transform="translate(-101.56 -101.91)" fill="#25c7d9"/><path d="M222.53,173.12a.4.4,0,0,1-.29-.43c0-.22.14-.38.31-.36a.4.4,0,0,1,.29.43C222.84,173,222.7,173.14,222.53,173.12Z" transform="translate(-101.56 -101.91)" fill="#25c7d9"/><path d="M223.68,168.16a.4.4,0,0,1-.29-.43c0-.22.14-.38.31-.36a.4.4,0,0,1,.29.43C224,168,223.85,168.18,223.68,168.16Z" transform="translate(-101.56 -101.91)" fill="#25c7d9"/><path d="M224.51,165.33a.4.4,0,0,1-.29-.43c0-.22.14-.38.31-.36a.4.4,0,0,1,.29.43C224.82,165.19,224.68,165.35,224.51,165.33Z" transform="translate(-101.56 -101.91)" fill="#25c7d9"/><path d="M225.18,162.87a.4.4,0,0,1-.29-.43c0-.22.14-.38.31-.36a.4.4,0,0,1,.29.43C225.49,162.72,225.35,162.89,225.18,162.87Z" transform="translate(-101.56 -101.91)" fill="#25c7d9"/><path d="M226.64,157.69a.4.4,0,0,1-.29-.43c0-.22.14-.38.31-.36a.4.4,0,0,1,.29.43C226.95,157.54,226.81,157.7,226.64,157.69Z" transform="translate(-101.56 -101.91)" fill="#25c7d9"/><path d="M227.78,152.2c0-.21.21-.32.37-.24a.46.46,0,0,1,.21.51c0,.21-.21.32-.37.24A.46.46,0,0,1,227.78,152.2Z" transform="translate(-101.56 -101.91)" fill="#25c7d9"/><path d="M228.67,149.18c0-.21.21-.32.37-.24a.46.46,0,0,1,.21.51c0,.21-.21.32-.37.24A.46.46,0,0,1,228.67,149.18Z" transform="translate(-101.56 -101.91)" fill="#25c7d9"/><path d="M227.44,154.91a.4.4,0,0,1-.29-.43c0-.22.14-.38.31-.36a.4.4,0,0,1,.29.43C227.74,154.77,227.6,154.93,227.44,154.91Z" transform="translate(-101.56 -101.91)" fill="#25c7d9"/><path d="M225.9,160.18a.4.4,0,0,1-.29-.43c0-.22.14-.38.31-.36a.4.4,0,0,1,.29.43C226.2,160,226.06,160.2,225.9,160.18Z" transform="translate(-101.56 -101.91)" fill="#25c7d9"/><path d="M221.38,179.92a.5.5,0,0,1-.85,0,1,1,0,0,1,0-1.13.5.5,0,0,1,.85,0A1,1,0,0,1,221.38,179.92Z" transform="translate(-101.56 -101.91)" fill="#25c7d9"/><path d="M200.63,150.77c.19.15-7.13,6.07-5.6,10.24,2.1,5.73,19.77,5.1,31.14,2.19a63.54,63.54,0,0,0,9.3-3.21,65.79,65.79,0,0,0,7.28-3.74,78.14,78.14,0,0,0,7.43-5.07c2.09-1.57,3.6-2.82,4-3.15,3-2.49,5.07-4.57,5.75-5.25a43.92,43.92,0,0,0,4.09-4.46c1.81-2.37,5.36-7,4.2-9.68s-7.09-3.47-14.34-1.64a18.29,18.29,0,0,1,8.92.06c1.7.48,2.91.83,3.47,1.89,1.12,2.12-1.37,5.48-3.05,7.76a31.36,31.36,0,0,1-3.4,3.81,82.62,82.62,0,0,1-7.69,6.71c-3.26,2.62-5.22,4-6.21,4.62-.78.53-1.61,1.06-2.52,1.62A74.82,74.82,0,0,1,232.45,159a60.85,60.85,0,0,1-5.74,2,63.58,63.58,0,0,1-11.78,2.25c-2.87.28-4.93.31-5.63.31a48.94,48.94,0,0,1-8.95-1.06,5.56,5.56,0,0,1-3.14-1.37,4.91,4.91,0,0,1-1-1.52C195,156.45,200.45,150.63,200.63,150.77Z" transform="translate(-101.56 -101.91)" fill="#f2d338"/></svg>