<svg xmlns="http://www.w3.org/2000/svg" xmlns:xlink="http://www.w3.org/1999/xlink" width="136.73mm" height="28.6mm" viewBox="0 0 387.59 81.06"><defs><linearGradient id="a" x1="8.54" y1="39.21" x2="86.97" y2="39.21" gradientUnits="userSpaceOnUse"><stop offset="0" stop-color="#f2762e"/><stop offset="1" stop-color="#248ea6"/></linearGradient><linearGradient id="b" x1="10.46" y1="39.71" x2="83.97" y2="39.71" gradientUnits="userSpaceOnUse"><stop offset="0" stop-color="#030540"/><stop offset="1" stop-color="#2a329b"/></linearGradient></defs><title>stormcell-logo-color</title><circle cx="47.76" cy="39.21" r="39.21" fill="url(#a)"/><circle cx="47.22" cy="39.71" r="36.76" fill="url(#b)"/><path d="M137.91,120a1,1,0,0,1-.65,1.16c-.43.06-.84-.35-.91-.93a1,1,0,0,1,.65-1.16C137.43,119,137.84,119.43,137.91,120Z" transform="translate(-91.49 -103.65)"/><path d="M139.74,119.74a1,1,0,0,1-.65,1.16c-.43.06-.84-.35-.91-.93a1,1,0,0,1,.65-1.16C139.26,118.75,139.66,119.16,139.74,119.74Z" transform="translate(-91.49 -103.65)"/><path d="M141.66,119.46a1,1,0,0,1-.65,1.16c-.43.06-.84-.35-.91-.93a1,1,0,0,1,.65-1.16C141.18,118.46,141.58,118.88,141.66,119.46Z" transform="translate(-91.49 -103.65)"/><path d="M143.61,119.17a1,1,0,0,1-.65,1.16c-.43.06-.84-.35-.91-.93a1,1,0,0,1,.65-1.16C143.13,118.18,143.54,118.59,143.61,119.17Z" transform="translate(-91.49 -103.65)"/><path d="M145.5,118.89a1,1,0,0,1-.65,1.16c-.43.06-.84-.35-.91-.93a1,1,0,0,1,.65-1.16C145,117.9,145.42,118.32,145.5,118.89Z" transform="translate(-91.49 -103.65)"/><path d="M147.38,118.61a1,1,0,0,1-.65,1.16c-.43.06-.84-.35-.91-.93a1,1,0,0,1,.65-1.16C146.9,117.62,147.31,118,147.38,118.61Z" transform="translate(-91.49 -103.65)"/><path d="M153.23,117.75a1,1,0,0,1-.65,1.16c-.43.06-.84-.35-.91-.93a1,1,0,0,1,.65-1.16C152.75,116.76,153.16,117.18,153.23,117.75Z" transform="translate(-91.49 -103.65)"/><path d="M151.39,118a1,1,0,0,1-.65,1.16c-.43.06-.84-.35-.91-.93a1,1,0,0,1,.65-1.16C150.91,117,151.32,117.45,151.39,118Z" transform="translate(-91.49 -103.65)"/><path d="M149.42,118.31a1,1,0,0,1-.65,1.16c-.43.06-.84-.35-.91-.93a1,1,0,0,1,.65-1.16C148.93,117.32,149.34,117.74,149.42,118.31Z" transform="translate(-91.49 -103.65)"/><path d="M136.91,122.72a1,1,0,0,1-.65,1.16c-.43.06-.84-.35-.91-.93a1,1,0,0,1,.65-1.16C136.43,121.73,136.84,122.14,136.91,122.72Z" transform="translate(-91.49 -103.65)"/><path d="M138.74,122.45a1,1,0,0,1-.65,1.16c-.43.06-.84-.35-.91-.93a1,1,0,0,1,.65-1.16C138.26,121.46,138.67,121.87,138.74,122.45Z" transform="translate(-91.49 -103.65)"/><path d="M140.66,122.17a1,1,0,0,1-.65,1.16c-.43.06-.84-.35-.91-.93a1,1,0,0,1,.65-1.16C140.18,121.18,140.59,121.59,140.66,122.17Z" transform="translate(-91.49 -103.65)"/><path d="M142.61,121.88A1,1,0,0,1,142,123c-.43.06-.84-.35-.91-.93a1,1,0,0,1,.65-1.16C142.13,120.89,142.54,121.3,142.61,121.88Z" transform="translate(-91.49 -103.65)"/><path d="M144.5,121.6a1,1,0,0,1-.65,1.16c-.43.06-.84-.35-.91-.93a1,1,0,0,1,.65-1.16C144,120.61,144.43,121,144.5,121.6Z" transform="translate(-91.49 -103.65)"/><path d="M146.38,121.32a1,1,0,0,1-.65,1.16c-.43.06-.84-.35-.91-.93a1,1,0,0,1,.65-1.16C145.9,120.33,146.31,120.75,146.38,121.32Z" transform="translate(-91.49 -103.65)"/><path d="M152.24,120.46a1,1,0,0,1-.65,1.16c-.43.06-.84-.35-.91-.93a1,1,0,0,1,.65-1.16C151.75,119.47,152.16,119.89,152.24,120.46Z" transform="translate(-91.49 -103.65)"/><path d="M150.39,120.73a1,1,0,0,1-.65,1.16c-.43.06-.84-.35-.91-.93a1,1,0,0,1,.65-1.16C149.91,119.74,150.32,120.16,150.39,120.73Z" transform="translate(-91.49 -103.65)"/><path d="M148.42,121a1,1,0,0,1-.65,1.16c-.43.06-.84-.35-.91-.93a1,1,0,0,1,.65-1.16C147.94,120,148.35,120.45,148.42,121Z" transform="translate(-91.49 -103.65)"/><path d="M135.81,125.44a1,1,0,0,1-.65,1.16c-.43.06-.84-.35-.91-.93a1,1,0,0,1,.65-1.16C135.32,124.45,135.73,124.87,135.81,125.44Z" transform="translate(-91.49 -103.65)"/><path d="M137.63,125.17a1,1,0,0,1-.65,1.16c-.43.06-.84-.35-.91-.93a1,1,0,0,1,.65-1.16C137.15,124.18,137.56,124.6,137.63,125.17Z" transform="translate(-91.49 -103.65)"/><path d="M139.55,124.89a1,1,0,0,1-.65,1.16c-.43.06-.84-.35-.91-.93a1,1,0,0,1,.65-1.16C139.07,123.9,139.48,124.32,139.55,124.89Z" transform="translate(-91.49 -103.65)"/><path d="M141.51,124.6a1,1,0,0,1-.65,1.16c-.43.06-.84-.35-.91-.93a1,1,0,0,1,.65-1.16C141,123.61,141.43,124,141.51,124.6Z" transform="translate(-91.49 -103.65)"/><path d="M143.39,124.33a1,1,0,0,1-.65,1.16c-.43.06-.84-.35-.91-.93a1,1,0,0,1,.65-1.16C142.91,123.34,143.32,123.75,143.39,124.33Z" transform="translate(-91.49 -103.65)"/><path d="M145.28,124.05a1,1,0,0,1-.65,1.16c-.43.06-.84-.35-.91-.93a1,1,0,0,1,.65-1.16C144.79,123.06,145.2,123.47,145.28,124.05Z" transform="translate(-91.49 -103.65)"/><path d="M151.13,123.19a1,1,0,0,1-.65,1.16c-.43.06-.84-.35-.91-.93a1,1,0,0,1,.65-1.16C150.65,122.2,151.06,122.61,151.13,123.19Z" transform="translate(-91.49 -103.65)"/><path d="M149.29,123.46a1,1,0,0,1-.65,1.16c-.43.06-.84-.35-.91-.93a1,1,0,0,1,.65-1.16C148.81,122.47,149.21,122.88,149.29,123.46Z" transform="translate(-91.49 -103.65)"/><path d="M147.31,123.75a1,1,0,0,1-.65,1.16c-.43.06-.84-.35-.91-.93a1,1,0,0,1,.65-1.16C146.83,122.76,147.24,123.17,147.31,123.75Z" transform="translate(-91.49 -103.65)"/><path d="M134.7,128.17a1,1,0,0,1-.65,1.16c-.43.06-.84-.35-.91-.93a1,1,0,0,1,.65-1.16C134.22,127.18,134.63,127.59,134.7,128.17Z" transform="translate(-91.49 -103.65)"/><path d="M136.53,127.9a1,1,0,0,1-.65,1.16c-.43.06-.84-.35-.91-.93a1,1,0,0,1,.65-1.16C136,126.91,136.46,127.32,136.53,127.9Z" transform="translate(-91.49 -103.65)"/><path d="M138.45,127.62a1,1,0,0,1-.65,1.16c-.43.06-.84-.35-.91-.93a1,1,0,0,1,.65-1.16C138,126.63,138.38,127,138.45,127.62Z" transform="translate(-91.49 -103.65)"/><path d="M140.4,127.33a1,1,0,0,1-.65,1.16c-.43.06-.84-.35-.91-.93a1,1,0,0,1,.65-1.16C139.92,126.34,140.33,126.76,140.4,127.33Z" transform="translate(-91.49 -103.65)"/><path d="M142.29,127.05a1,1,0,0,1-.65,1.16c-.43.06-.84-.35-.91-.93a1,1,0,0,1,.65-1.16C141.81,126.06,142.22,126.48,142.29,127.05Z" transform="translate(-91.49 -103.65)"/><path d="M144.17,126.78a1,1,0,0,1-.65,1.16c-.43.06-.84-.35-.91-.93a1,1,0,0,1,.65-1.16C143.69,125.79,144.1,126.2,144.17,126.78Z" transform="translate(-91.49 -103.65)"/><path d="M150,125.91a1,1,0,0,1-.65,1.16c-.43.06-.84-.35-.91-.93a1,1,0,0,1,.65-1.16C149.54,124.92,150,125.34,150,125.91Z" transform="translate(-91.49 -103.65)"/><path d="M148.18,126.19a1,1,0,0,1-.65,1.16c-.43.06-.84-.35-.91-.93a1,1,0,0,1,.65-1.16C147.7,125.2,148.11,125.61,148.18,126.19Z" transform="translate(-91.49 -103.65)"/><path d="M146.21,126.48a1,1,0,0,1-.65,1.16c-.43.06-.84-.35-.91-.93a1,1,0,0,1,.65-1.16C145.73,125.49,146.14,125.9,146.21,126.48Z" transform="translate(-91.49 -103.65)"/><path d="M133.6,130.9a1,1,0,0,1-.65,1.16c-.43.06-.84-.35-.91-.93a1,1,0,0,1,.65-1.16C133.11,129.9,133.52,130.32,133.6,130.9Z" transform="translate(-91.49 -103.65)"/><path d="M135.42,130.63a1,1,0,0,1-.65,1.16c-.43.06-.84-.35-.91-.93a1,1,0,0,1,.65-1.16C134.94,129.64,135.35,130.05,135.42,130.63Z" transform="translate(-91.49 -103.65)"/><path d="M137.34,130.34a1,1,0,0,1-.65,1.16c-.43.06-.84-.35-.91-.93a1,1,0,0,1,.65-1.16C136.86,129.35,137.27,129.77,137.34,130.34Z" transform="translate(-91.49 -103.65)"/><path d="M139.3,130.06a1,1,0,0,1-.65,1.16c-.43.06-.84-.35-.91-.93a1,1,0,0,1,.65-1.16C138.81,129.07,139.22,129.48,139.3,130.06Z" transform="translate(-91.49 -103.65)"/><path d="M141.18,129.78a1,1,0,0,1-.65,1.16c-.43.06-.84-.35-.91-.93a1,1,0,0,1,.65-1.16C140.7,128.79,141.11,129.2,141.18,129.78Z" transform="translate(-91.49 -103.65)"/><path d="M143.07,129.5a1,1,0,0,1-.65,1.16c-.43.06-.84-.35-.91-.93a1,1,0,0,1,.65-1.16C142.58,128.51,143,128.93,143.07,129.5Z" transform="translate(-91.49 -103.65)"/><path d="M148.92,128.64a1,1,0,0,1-.65,1.16c-.43.06-.84-.35-.91-.93a1,1,0,0,1,.65-1.16C148.44,127.65,148.85,128.07,148.92,128.64Z" transform="translate(-91.49 -103.65)"/><path d="M147.08,128.91a1,1,0,0,1-.65,1.16c-.43.06-.84-.35-.91-.93a1,1,0,0,1,.65-1.16C146.6,127.92,147,128.34,147.08,128.91Z" transform="translate(-91.49 -103.65)"/><path d="M145.1,129.2a1,1,0,0,1-.65,1.16c-.43.06-.84-.35-.91-.93a1,1,0,0,1,.65-1.16C144.62,128.21,145,128.63,145.1,129.2Z" transform="translate(-91.49 -103.65)"/><path d="M132.49,133.62a1,1,0,0,1-.65,1.16c-.43.06-.84-.35-.91-.93a1,1,0,0,1,.65-1.16C132,132.63,132.42,133,132.49,133.62Z" transform="translate(-91.49 -103.65)"/><path d="M134.32,133.35a1,1,0,0,1-.65,1.16c-.43.06-.84-.35-.91-.93a1,1,0,0,1,.65-1.16C133.84,132.36,134.25,132.78,134.32,133.35Z" transform="translate(-91.49 -103.65)"/><path d="M136.24,133.07a1,1,0,0,1-.65,1.16c-.43.06-.84-.35-.91-.93a1,1,0,0,1,.65-1.16C135.76,132.08,136.17,132.49,136.24,133.07Z" transform="translate(-91.49 -103.65)"/><path d="M138.19,132.78a1,1,0,0,1-.65,1.16c-.43.06-.84-.35-.91-.93a1,1,0,0,1,.65-1.16C137.71,131.79,138.12,132.21,138.19,132.78Z" transform="translate(-91.49 -103.65)"/><path d="M140.08,132.5a1,1,0,0,1-.65,1.16c-.43.06-.84-.35-.91-.93a1,1,0,0,1,.65-1.16C139.6,131.51,140,131.93,140.08,132.5Z" transform="translate(-91.49 -103.65)"/><path d="M142,132.23a1,1,0,0,1-.65,1.16c-.43.06-.84-.35-.91-.93a1,1,0,0,1,.65-1.16C141.48,131.24,141.89,131.65,142,132.23Z" transform="translate(-91.49 -103.65)"/><path d="M147.82,131.37a1,1,0,0,1-.65,1.16c-.43.06-.84-.35-.91-.93a1,1,0,0,1,.65-1.16C147.33,130.38,147.74,130.79,147.82,131.37Z" transform="translate(-91.49 -103.65)"/><path d="M146,131.64a1,1,0,0,1-.65,1.16c-.43.06-.84-.35-.91-.93a1,1,0,0,1,.65-1.16C145.49,130.65,145.9,131.06,146,131.64Z" transform="translate(-91.49 -103.65)"/><path d="M144,131.93a1,1,0,0,1-.65,1.16c-.43.06-.84-.35-.91-.93a1,1,0,0,1,.65-1.16C143.52,130.94,143.93,131.35,144,131.93Z" transform="translate(-91.49 -103.65)"/><path d="M131.39,136.35a1,1,0,0,1-.65,1.16c-.43.06-.84-.35-.91-.93a1,1,0,0,1,.65-1.16C130.9,135.36,131.31,135.77,131.39,136.35Z" transform="translate(-91.49 -103.65)"/><path d="M133.21,136.08a1,1,0,0,1-.65,1.16c-.43.06-.84-.35-.91-.93a1,1,0,0,1,.65-1.16C132.73,135.09,133.14,135.5,133.21,136.08Z" transform="translate(-91.49 -103.65)"/><path d="M135.13,135.8a1,1,0,0,1-.65,1.16c-.43.06-.84-.35-.91-.93a1,1,0,0,1,.65-1.16C134.65,134.8,135.06,135.22,135.13,135.8Z" transform="translate(-91.49 -103.65)"/><path d="M137.09,135.51a1,1,0,0,1-.65,1.16c-.43.06-.84-.35-.91-.93a1,1,0,0,1,.65-1.16C136.6,134.52,137,134.93,137.09,135.51Z" transform="translate(-91.49 -103.65)"/><path d="M139,135.23a1,1,0,0,1-.65,1.16c-.43.06-.84-.35-.91-.93a1,1,0,0,1,.65-1.16C138.49,134.24,138.9,134.66,139,135.23Z" transform="translate(-91.49 -103.65)"/><path d="M140.86,135a1,1,0,0,1-.65,1.16c-.43.06-.84-.35-.91-.93a1,1,0,0,1,.65-1.16C140.37,134,140.78,134.38,140.86,135Z" transform="translate(-91.49 -103.65)"/><path d="M146.71,134.09a1,1,0,0,1-.65,1.16c-.43.06-.84-.35-.91-.93a1,1,0,0,1,.65-1.16C146.23,133.1,146.64,133.52,146.71,134.09Z" transform="translate(-91.49 -103.65)"/><path d="M144.87,134.36a1,1,0,0,1-.65,1.16c-.43.06-.84-.35-.91-.93a1,1,0,0,1,.65-1.16C144.39,133.37,144.79,133.79,144.87,134.36Z" transform="translate(-91.49 -103.65)"/><path d="M142.89,134.65a1,1,0,0,1-.65,1.16c-.43.06-.84-.35-.91-.93a1,1,0,0,1,.65-1.16C142.41,133.66,142.82,134.08,142.89,134.65Z" transform="translate(-91.49 -103.65)"/><path d="M130.28,139.07a1,1,0,0,1-.65,1.16c-.43.06-.84-.35-.91-.93a1,1,0,0,1,.65-1.16C129.8,138.08,130.21,138.5,130.28,139.07Z" transform="translate(-91.49 -103.65)"/><path d="M132.11,138.8a1,1,0,0,1-.65,1.16c-.43.06-.84-.35-.91-.93a1,1,0,0,1,.65-1.16C131.63,137.81,132,138.23,132.11,138.8Z" transform="translate(-91.49 -103.65)"/><path d="M134,138.52a1,1,0,0,1-.65,1.16c-.43.06-.84-.35-.91-.93a1,1,0,0,1,.65-1.16C133.55,137.53,134,137.95,134,138.52Z" transform="translate(-91.49 -103.65)"/><path d="M136,138.23a1,1,0,0,1-.65,1.16c-.43.06-.84-.35-.91-.93a1,1,0,0,1,.65-1.16C135.5,137.24,135.91,137.66,136,138.23Z" transform="translate(-91.49 -103.65)"/><path d="M137.87,138a1,1,0,0,1-.65,1.16c-.43.06-.84-.35-.91-.93A1,1,0,0,1,137,137C137.39,137,137.8,137.38,137.87,138Z" transform="translate(-91.49 -103.65)"/><path d="M139.75,137.68a1,1,0,0,1-.65,1.16c-.43.06-.84-.35-.91-.93a1,1,0,0,1,.65-1.16C139.27,136.69,139.68,137.1,139.75,137.68Z" transform="translate(-91.49 -103.65)"/><path d="M145.61,136.82A1,1,0,0,1,145,138c-.43.06-.84-.35-.91-.93a1,1,0,0,1,.65-1.16C145.12,135.83,145.53,136.24,145.61,136.82Z" transform="translate(-91.49 -103.65)"/><path d="M143.76,137.09a1,1,0,0,1-.65,1.16c-.43.06-.84-.35-.91-.93a1,1,0,0,1,.65-1.16C143.28,136.1,143.69,136.51,143.76,137.09Z" transform="translate(-91.49 -103.65)"/><path d="M141.79,137.38a1,1,0,0,1-.65,1.16c-.43.06-.84-.35-.91-.93a1,1,0,0,1,.65-1.16C141.31,136.39,141.71,136.8,141.79,137.38Z" transform="translate(-91.49 -103.65)"/><path d="M129.18,141.8a1,1,0,0,1-.65,1.16c-.43.06-.84-.35-.91-.93a1,1,0,0,1,.65-1.16C128.69,140.81,129.1,141.22,129.18,141.8Z" transform="translate(-91.49 -103.65)"/><path d="M131,141.53a1,1,0,0,1-.65,1.16c-.43.06-.84-.35-.91-.93a1,1,0,0,1,.65-1.16C130.52,140.54,130.93,141,131,141.53Z" transform="translate(-91.49 -103.65)"/><path d="M132.92,141.25a1,1,0,0,1-.65,1.16c-.43.06-.84-.35-.91-.93a1,1,0,0,1,.65-1.16C132.44,140.26,132.85,140.67,132.92,141.25Z" transform="translate(-91.49 -103.65)"/><path d="M134.88,141a1,1,0,0,1-.65,1.16c-.43.06-.84-.35-.91-.93A1,1,0,0,1,134,140C134.39,140,134.8,140.38,134.88,141Z" transform="translate(-91.49 -103.65)"/><path d="M136.76,140.68a1,1,0,0,1-.65,1.16c-.43.06-.84-.35-.91-.93a1,1,0,0,1,.65-1.16C136.28,139.69,136.69,140.11,136.76,140.68Z" transform="translate(-91.49 -103.65)"/><path d="M138.65,140.41a1,1,0,0,1-.65,1.16c-.43.06-.84-.35-.91-.93a1,1,0,0,1,.65-1.16C138.16,139.41,138.57,139.83,138.65,140.41Z" transform="translate(-91.49 -103.65)"/><path d="M144.5,139.54a1,1,0,0,1-.65,1.16c-.43.06-.84-.35-.91-.93a1,1,0,0,1,.65-1.16C144,138.55,144.43,139,144.5,139.54Z" transform="translate(-91.49 -103.65)"/><path d="M142.66,139.82A1,1,0,0,1,142,141c-.43.06-.84-.35-.91-.93a1,1,0,0,1,.65-1.16C142.18,138.82,142.58,139.24,142.66,139.82Z" transform="translate(-91.49 -103.65)"/><path d="M140.68,140.11a1,1,0,0,1-.65,1.16c-.43.06-.84-.35-.91-.93a1,1,0,0,1,.65-1.16C140.2,139.11,140.61,139.53,140.68,140.11Z" transform="translate(-91.49 -103.65)"/><path d="M138.89,140.37a1,1,0,0,1-.65,1.16c-.43.06-.84-.35-.91-.93a1,1,0,0,1,.65-1.16C138.41,139.38,138.81,139.79,138.89,140.37Z" transform="translate(-91.49 -103.65)"/><path d="M140.72,140.1a1,1,0,0,1-.65,1.16c-.43.06-.84-.35-.91-.93a1,1,0,0,1,.65-1.16C140.23,139.11,140.64,139.53,140.72,140.1Z" transform="translate(-91.49 -103.65)"/><path d="M142.64,139.82A1,1,0,0,1,142,141c-.43.06-.84-.35-.91-.93a1,1,0,0,1,.65-1.16C142.15,138.83,142.56,139.24,142.64,139.82Z" transform="translate(-91.49 -103.65)"/><path d="M144.59,139.53a1,1,0,0,1-.65,1.16c-.43.06-.84-.35-.91-.93a1,1,0,0,1,.65-1.16C144.11,138.54,144.51,139,144.59,139.53Z" transform="translate(-91.49 -103.65)"/><path d="M146.48,139.25a1,1,0,0,1-.65,1.16c-.43.06-.84-.35-.91-.93a1,1,0,0,1,.65-1.16C146,138.26,146.4,138.68,146.48,139.25Z" transform="translate(-91.49 -103.65)"/><path d="M148.36,139a1,1,0,0,1-.65,1.16c-.43.06-.84-.35-.91-.93a1,1,0,0,1,.65-1.16C147.88,138,148.28,138.4,148.36,139Z" transform="translate(-91.49 -103.65)"/><path d="M154.21,138.12a1,1,0,0,1-.65,1.16c-.43.06-.84-.35-.91-.93a1,1,0,0,1,.65-1.16C153.73,137.12,154.14,137.54,154.21,138.12Z" transform="translate(-91.49 -103.65)"/><path d="M152.37,138.39a1,1,0,0,1-.65,1.16c-.43.06-.84-.35-.91-.93a1,1,0,0,1,.65-1.16C151.89,137.4,152.3,137.81,152.37,138.39Z" transform="translate(-91.49 -103.65)"/><path d="M150.4,138.68a1,1,0,0,1-.65,1.16c-.43.06-.84-.35-.91-.93a1,1,0,0,1,.65-1.16C149.91,137.69,150.32,138.1,150.4,138.68Z" transform="translate(-91.49 -103.65)"/><path d="M139.39,142.42a1,1,0,0,1-.65,1.16c-.43.06-.84-.35-.91-.93a1,1,0,0,1,.65-1.16C138.91,141.43,139.32,141.84,139.39,142.42Z" transform="translate(-91.49 -103.65)"/><path d="M141.31,142.14a1,1,0,0,1-.65,1.16c-.43.06-.84-.35-.91-.93a1,1,0,0,1,.65-1.16C140.83,141.15,141.24,141.56,141.31,142.14Z" transform="translate(-91.49 -103.65)"/><path d="M143.26,141.85a1,1,0,0,1-.65,1.16c-.43.06-.84-.35-.91-.93a1,1,0,0,1,.65-1.16C142.78,140.86,143.19,141.28,143.26,141.85Z" transform="translate(-91.49 -103.65)"/><path d="M145.15,141.57a1,1,0,0,1-.65,1.16c-.43.06-.84-.35-.91-.93a1,1,0,0,1,.65-1.16C144.67,140.58,145.08,141,145.15,141.57Z" transform="translate(-91.49 -103.65)"/><path d="M147,141.3a1,1,0,0,1-.65,1.16c-.43.06-.84-.35-.91-.93a1,1,0,0,1,.65-1.16C146.55,140.31,147,140.72,147,141.3Z" transform="translate(-91.49 -103.65)"/><path d="M152.89,140.44a1,1,0,0,1-.65,1.16c-.43.06-.84-.35-.91-.93a1,1,0,0,1,.65-1.16C152.4,139.44,152.81,139.86,152.89,140.44Z" transform="translate(-91.49 -103.65)"/><path d="M151,140.71a1,1,0,0,1-.65,1.16c-.43.06-.84-.35-.91-.93a1,1,0,0,1,.65-1.16C150.56,139.72,151,140.13,151,140.71Z" transform="translate(-91.49 -103.65)"/><path d="M149.07,141a1,1,0,0,1-.65,1.16c-.43.06-.84-.35-.91-.93a1,1,0,0,1,.65-1.16C148.59,140,149,140.42,149.07,141Z" transform="translate(-91.49 -103.65)"/><path d="M138.1,145a1,1,0,0,1-.65,1.16c-.43.06-.84-.35-.91-.93a1,1,0,0,1,.65-1.16C137.62,144,138,144.4,138.1,145Z" transform="translate(-91.49 -103.65)"/><path d="M140,144.46a1,1,0,0,1-.65,1.16c-.43.06-.84-.35-.91-.93a1,1,0,0,1,.65-1.16C139.5,143.47,139.91,143.88,140,144.46Z" transform="translate(-91.49 -103.65)"/><path d="M141.93,144.17a1,1,0,0,1-.65,1.16c-.43.06-.84-.35-.91-.93a1,1,0,0,1,.65-1.16C141.45,143.18,141.86,143.59,141.93,144.17Z" transform="translate(-91.49 -103.65)"/><path d="M143.82,143.89a1,1,0,0,1-.65,1.16c-.43.06-.84-.35-.91-.93a1,1,0,0,1,.65-1.16C143.34,142.9,143.75,143.32,143.82,143.89Z" transform="translate(-91.49 -103.65)"/><path d="M145.7,143.62a1,1,0,0,1-.65,1.16c-.43.06-.84-.35-.91-.93a1,1,0,0,1,.65-1.16C145.22,142.62,145.63,143,145.7,143.62Z" transform="translate(-91.49 -103.65)"/><path d="M151.56,142.75a1,1,0,0,1-.65,1.16c-.43.06-.84-.35-.91-.93a1,1,0,0,1,.65-1.16C151.08,141.76,151.48,142.18,151.56,142.75Z" transform="translate(-91.49 -103.65)"/><path d="M149.71,143a1,1,0,0,1-.65,1.16c-.43.06-.84-.35-.91-.93a1,1,0,0,1,.65-1.16C149.23,142,149.64,142.45,149.71,143Z" transform="translate(-91.49 -103.65)"/><path d="M147.74,143.32a1,1,0,0,1-.65,1.16c-.43.06-.84-.35-.91-.93a1,1,0,0,1,.65-1.16C147.26,142.32,147.67,142.74,147.74,143.32Z" transform="translate(-91.49 -103.65)"/><path d="M138.66,146.78a1,1,0,0,1-.65,1.16c-.43.06-.84-.35-.91-.93a1,1,0,0,1,.65-1.16C138.18,145.78,138.59,146.2,138.66,146.78Z" transform="translate(-91.49 -103.65)"/><path d="M140.61,146.49a1,1,0,0,1-.65,1.16c-.43.06-.84-.35-.91-.93a1,1,0,0,1,.65-1.16C140.12,145.5,140.53,145.91,140.61,146.49Z" transform="translate(-91.49 -103.65)"/><path d="M142.49,146.21a1,1,0,0,1-.65,1.16c-.43.06-.84-.35-.91-.93a1,1,0,0,1,.65-1.16C142,145.22,142.42,145.64,142.49,146.21Z" transform="translate(-91.49 -103.65)"/><path d="M144.38,145.93a1,1,0,0,1-.65,1.16c-.43.06-.84-.35-.91-.93a1,1,0,0,1,.65-1.16C143.89,144.94,144.3,145.36,144.38,145.93Z" transform="translate(-91.49 -103.65)"/><path d="M150.23,145.07a1,1,0,0,1-.65,1.16c-.43.06-.84-.35-.91-.93a1,1,0,0,1,.65-1.16C149.75,144.08,150.16,144.5,150.23,145.07Z" transform="translate(-91.49 -103.65)"/><path d="M148.39,145.34a1,1,0,0,1-.65,1.16c-.43.06-.84-.35-.91-.93a1,1,0,0,1,.65-1.16C147.9,144.35,148.31,144.77,148.39,145.34Z" transform="translate(-91.49 -103.65)"/><path d="M146.41,145.63a1,1,0,0,1-.65,1.16c-.43.06-.84-.35-.91-.93a1,1,0,0,1,.65-1.16C145.93,144.64,146.34,145.06,146.41,145.63Z" transform="translate(-91.49 -103.65)"/><path d="M137.33,149.1a1,1,0,0,1-.65,1.16c-.43.06-.84-.35-.91-.93a1,1,0,0,1,.65-1.16C136.84,148.1,137.25,148.52,137.33,149.1Z" transform="translate(-91.49 -103.65)"/><path d="M139.28,148.81a1,1,0,0,1-.65,1.16c-.43.06-.84-.35-.91-.93a1,1,0,0,1,.65-1.16C138.8,147.82,139.2,148.23,139.28,148.81Z" transform="translate(-91.49 -103.65)"/><path d="M141.17,148.53a1,1,0,0,1-.65,1.16c-.43.06-.84-.35-.91-.93a1,1,0,0,1,.65-1.16C140.68,147.54,141.09,148,141.17,148.53Z" transform="translate(-91.49 -103.65)"/><path d="M143,148.25a1,1,0,0,1-.65,1.16c-.43.06-.84-.35-.91-.93a1,1,0,0,1,.65-1.16C142.57,147.26,143,147.68,143,148.25Z" transform="translate(-91.49 -103.65)"/><path d="M148.9,147.39a1,1,0,0,1-.65,1.16c-.43.06-.84-.35-.91-.93a1,1,0,0,1,.65-1.16C148.42,146.4,148.83,146.82,148.9,147.39Z" transform="translate(-91.49 -103.65)"/><path d="M147.06,147.66a1,1,0,0,1-.65,1.16c-.43.06-.84-.35-.91-.93a1,1,0,0,1,.65-1.16C146.58,146.67,147,147.09,147.06,147.66Z" transform="translate(-91.49 -103.65)"/><path d="M145.09,148a1,1,0,0,1-.65,1.16c-.43.06-.84-.35-.91-.93a1,1,0,0,1,.65-1.16C144.6,147,145,147.38,145.09,148Z" transform="translate(-91.49 -103.65)"/><path d="M134.52,152c0-.58.32-1,.76-1a1,1,0,0,1,.82,1.07c0,.58-.32,1-.76,1A1,1,0,0,1,134.52,152Z" transform="translate(-91.49 -103.65)"/><path d="M135.14,153.67c0-.58.32-1,.76-1a1,1,0,0,1,.82,1.07c0,.58-.32,1-.76,1A1,1,0,0,1,135.14,153.67Z" transform="translate(-91.49 -103.65)"/><path d="M138,151.13a1,1,0,0,1-.65,1.16c-.43.06-.84-.35-.91-.93a1,1,0,0,1,.65-1.16C137.47,150.14,137.88,150.55,138,151.13Z" transform="translate(-91.49 -103.65)"/><path d="M139.84,150.85a1,1,0,0,1-.65,1.16c-.43.06-.84-.35-.91-.93a1,1,0,0,1,.65-1.16C139.36,149.86,139.77,150.27,139.84,150.85Z" transform="translate(-91.49 -103.65)"/><path d="M141.72,150.57a1,1,0,0,1-.65,1.16c-.43.06-.84-.35-.91-.93a1,1,0,0,1,.65-1.16C141.24,149.58,141.65,150,141.72,150.57Z" transform="translate(-91.49 -103.65)"/><path d="M147.58,149.71a1,1,0,0,1-.65,1.16c-.43.06-.84-.35-.91-.93a1,1,0,0,1,.65-1.16C147.09,148.72,147.5,149.14,147.58,149.71Z" transform="translate(-91.49 -103.65)"/><path d="M145.73,150a1,1,0,0,1-.65,1.16c-.43.06-.84-.35-.91-.93a1,1,0,0,1,.65-1.16C145.25,149,145.66,149.41,145.73,150Z" transform="translate(-91.49 -103.65)"/><path d="M143.76,150.27a1,1,0,0,1-.65,1.16c-.43.06-.84-.35-.91-.93a1,1,0,0,1,.65-1.16C143.28,149.28,143.68,149.7,143.76,150.27Z" transform="translate(-91.49 -103.65)"/><path d="M137.34,155.46a1,1,0,0,1-.65,1.16c-.43.06-.84-.35-.91-.93a1,1,0,0,1,.65-1.16C136.86,154.47,137.27,154.89,137.34,155.46Z" transform="translate(-91.49 -103.65)"/><path d="M138.51,153.17a1,1,0,0,1-.65,1.16c-.43.06-.84-.35-.91-.93a1,1,0,0,1,.65-1.16C138,152.18,138.44,152.59,138.51,153.17Z" transform="translate(-91.49 -103.65)"/><path d="M140.39,152.89a1,1,0,0,1-.65,1.16c-.43.06-.84-.35-.91-.93a1,1,0,0,1,.65-1.16C139.91,151.9,140.32,152.32,140.39,152.89Z" transform="translate(-91.49 -103.65)"/><path d="M146.25,152a1,1,0,0,1-.65,1.16c-.43.06-.84-.35-.91-.93a1,1,0,0,1,.65-1.16C145.77,151,146.18,151.46,146.25,152Z" transform="translate(-91.49 -103.65)"/><path d="M144.4,152.3a1,1,0,0,1-.65,1.16c-.43.06-.84-.35-.91-.93a1,1,0,0,1,.65-1.16C143.92,151.31,144.33,151.73,144.4,152.3Z" transform="translate(-91.49 -103.65)"/><path d="M142.43,152.59a1,1,0,0,1-.65,1.16c-.43.06-.84-.35-.91-.93a1,1,0,0,1,.65-1.16C141.95,151.6,142.36,152,142.43,152.59Z" transform="translate(-91.49 -103.65)"/><path d="M135.27,155.86a1,1,0,0,1-.65,1.16c-.43.06-.84-.35-.91-.93a1,1,0,0,1,.65-1.16C134.79,154.87,135.2,155.29,135.27,155.86Z" transform="translate(-91.49 -103.65)"/><path d="M138,157.37a1,1,0,0,1-.65,1.16c-.43.06-.84-.35-.91-.93a1,1,0,0,1,.65-1.16C137.51,156.37,137.91,156.79,138,157.37Z" transform="translate(-91.49 -103.65)"/><path d="M139.07,155.21a1,1,0,0,1-.65,1.16c-.43.06-.84-.35-.91-.93a1,1,0,0,1,.65-1.16C138.58,154.22,139,154.64,139.07,155.21Z" transform="translate(-91.49 -103.65)"/><path d="M144.92,154.35a1,1,0,0,1-.65,1.16c-.43.06-.84-.35-.91-.93a1,1,0,0,1,.65-1.16C144.44,153.36,144.85,153.77,144.92,154.35Z" transform="translate(-91.49 -103.65)"/><path d="M143.08,154.62a1,1,0,0,1-.65,1.16c-.43.06-.84-.35-.91-.93a1,1,0,0,1,.65-1.16C142.6,153.63,143,154,143.08,154.62Z" transform="translate(-91.49 -103.65)"/><path d="M141.1,154.91a1,1,0,0,1-.65,1.16c-.43.06-.84-.35-.91-.93a1,1,0,0,1,.65-1.16C140.62,153.92,141,154.34,141.1,154.91Z" transform="translate(-91.49 -103.65)"/><path d="M135.86,157.81a1,1,0,0,1-.65,1.16c-.43.06-.84-.35-.91-.93a1,1,0,0,1,.65-1.16C135.38,156.82,135.78,157.23,135.86,157.81Z" transform="translate(-91.49 -103.65)"/><path d="M143.59,156.67a1,1,0,0,1-.65,1.16c-.43.06-.84-.35-.91-.93a1,1,0,0,1,.65-1.16C143.11,155.68,143.52,156.09,143.59,156.67Z" transform="translate(-91.49 -103.65)"/><path d="M141.75,156.94a1,1,0,0,1-.65,1.16c-.43.06-.84-.35-.91-.93a1,1,0,0,1,.65-1.16C141.27,155.95,141.68,156.36,141.75,156.94Z" transform="translate(-91.49 -103.65)"/><path d="M139.78,157.23a1,1,0,0,1-.65,1.16c-.43.06-.84-.35-.91-.93a1,1,0,0,1,.65-1.16C139.29,156.24,139.7,156.66,139.78,157.23Z" transform="translate(-91.49 -103.65)"/><path d="M134.21,159.41a1,1,0,0,1-.65,1.16c-.43.06-.84-.35-.91-.93a1,1,0,0,1,.65-1.16C133.73,158.42,134.14,158.84,134.21,159.41Z" transform="translate(-91.49 -103.65)"/><path d="M136.45,159.76a1,1,0,0,1-.65,1.16c-.43.06-.84-.35-.91-.93a1,1,0,0,1,.65-1.16C136,158.77,136.37,159.19,136.45,159.76Z" transform="translate(-91.49 -103.65)"/><path d="M142.27,159a1,1,0,0,1-.65,1.16c-.43.06-.84-.35-.91-.93a1,1,0,0,1,.65-1.16C141.78,158,142.19,158.41,142.27,159Z" transform="translate(-91.49 -103.65)"/><path d="M140.42,159.26a1,1,0,0,1-.65,1.16c-.43.06-.84-.35-.91-.93a1,1,0,0,1,.65-1.16C139.94,158.27,140.35,158.68,140.42,159.26Z" transform="translate(-91.49 -103.65)"/><path d="M138.64,159.39a1,1,0,0,1-.65,1.16c-.43.06-.84-.35-.91-.93a1,1,0,0,1,.65-1.16C138.15,158.4,138.56,158.82,138.64,159.39Z" transform="translate(-91.49 -103.65)"/><path d="M133.2,162.45a1,1,0,0,1-.65,1.16c-.43.06-.84-.35-.91-.93a1,1,0,0,1,.65-1.16C132.72,161.45,133.13,161.87,133.2,162.45Z" transform="translate(-91.49 -103.65)"/><path d="M135,161.71a1,1,0,0,1-.65,1.16c-.43.06-.84-.35-.91-.93a1,1,0,0,1,.65-1.16C134.56,160.72,135,161.14,135,161.71Z" transform="translate(-91.49 -103.65)"/><path d="M140.94,161.31a1,1,0,0,1-.65,1.16c-.43.06-.84-.35-.91-.93a1,1,0,0,1,.65-1.16C140.46,160.32,140.87,160.73,140.94,161.31Z" transform="translate(-91.49 -103.65)"/><path d="M139.26,161.39a1,1,0,0,1-.65,1.16c-.43.06-.84-.35-.91-.93a1,1,0,0,1,.65-1.16C138.77,160.4,139.18,160.82,139.26,161.39Z" transform="translate(-91.49 -103.65)"/><path d="M137.12,161.87a1,1,0,0,1-.65,1.16c-.43.06-.84-.35-.91-.93a1,1,0,0,1,.65-1.16C136.64,160.88,137,161.29,137.12,161.87Z" transform="translate(-91.49 -103.65)"/><path d="M133.8,164.48a1,1,0,0,1-.65,1.16c-.43.06-.84-.35-.91-.93a1,1,0,0,1,.65-1.16C133.32,163.49,133.73,163.91,133.8,164.48Z" transform="translate(-91.49 -103.65)"/><path d="M139.77,163.44a1,1,0,0,1-.65,1.16c-.43.06-.84-.35-.91-.93a1,1,0,0,1,.65-1.16C139.29,162.45,139.7,162.87,139.77,163.44Z" transform="translate(-91.49 -103.65)"/><path d="M137.77,163.9a1,1,0,0,1-.65,1.16c-.43.06-.84-.35-.91-.93a1,1,0,0,1,.65-1.16C137.29,162.91,137.69,163.32,137.77,163.9Z" transform="translate(-91.49 -103.65)"/><path d="M135.72,163.89a1,1,0,0,1-.65,1.16c-.43.06-.84-.35-.91-.93a1,1,0,0,1,.65-1.16C135.24,162.9,135.65,163.31,135.72,163.89Z" transform="translate(-91.49 -103.65)"/><path d="M132.22,165.78a1,1,0,0,1-.65,1.16c-.43.06-.84-.35-.91-.93a1,1,0,0,1,.65-1.16C131.74,164.78,132.15,165.2,132.22,165.78Z" transform="translate(-91.49 -103.65)"/><path d="M138.28,165.95a1,1,0,0,1-.65,1.16c-.43.06-.84-.35-.91-.93a1,1,0,0,1,.65-1.16C137.8,165,138.21,165.37,138.28,165.95Z" transform="translate(-91.49 -103.65)"/><path d="M136.44,166.06a1,1,0,0,1-.65,1.16c-.43.06-.84-.35-.91-.93a1,1,0,0,1,.65-1.16C136,165.07,136.37,165.48,136.44,166.06Z" transform="translate(-91.49 -103.65)"/><path d="M134.47,166.51a1,1,0,0,1-.65,1.16c-.43.06-.84-.35-.91-.93a1,1,0,0,1,.65-1.16C134,165.52,134.39,165.93,134.47,166.51Z" transform="translate(-91.49 -103.65)"/><path d="M137,167.92a1,1,0,0,1-.65,1.16c-.43.06-.84-.35-.91-.93a1,1,0,0,1,.65-1.16C136.55,166.93,137,167.35,137,167.92Z" transform="translate(-91.49 -103.65)"/><path d="M135.11,168.54a1,1,0,0,1-.65,1.16c-.43.06-.84-.35-.91-.93a1,1,0,0,1,.65-1.16C134.63,167.55,135,168,135.11,168.54Z" transform="translate(-91.49 -103.65)"/><path d="M133,168.38a1,1,0,0,1-.65,1.16c-.43.06-.84-.35-.91-.93a1,1,0,0,1,.65-1.16C132.53,167.39,132.93,167.8,133,168.38Z" transform="translate(-91.49 -103.65)"/><path d="M135.63,170.58a1,1,0,0,1-.65,1.16c-.43.06-.84-.35-.91-.93a1,1,0,0,1,.65-1.16C135.15,169.59,135.56,170,135.63,170.58Z" transform="translate(-91.49 -103.65)"/><path d="M133.62,170.55a1,1,0,0,1-.65,1.16c-.43.06-.84-.35-.91-.93a1,1,0,0,1,.65-1.16C133.14,169.56,133.55,170,133.62,170.55Z" transform="translate(-91.49 -103.65)"/><path d="M131.22,169.84a1,1,0,0,1-.65,1.16c-.43.06-.84-.35-.91-.93a1,1,0,0,1,.65-1.16C130.74,168.85,131.15,169.26,131.22,169.84Z" transform="translate(-91.49 -103.65)"/><path d="M134.16,172.59a1,1,0,0,1-.65,1.16c-.43.06-.84-.35-.91-.93a1,1,0,0,1,.65-1.16C133.68,171.6,134.09,172,134.16,172.59Z" transform="translate(-91.49 -103.65)"/><path d="M132.15,172.16a1,1,0,0,1-.65,1.16c-.43.06-.84-.35-.91-.93a1,1,0,0,1,.65-1.16C131.67,171.17,132.08,171.58,132.15,172.16Z" transform="translate(-91.49 -103.65)"/><path d="M130.41,172.41a1,1,0,0,1-.65,1.16c-.43.06-.84-.35-.91-.93a1,1,0,0,1,.65-1.16C129.93,171.42,130.33,171.83,130.41,172.41Z" transform="translate(-91.49 -103.65)"/><path d="M132.78,175.36a.66.66,0,0,1-1.12,0,1.3,1.3,0,0,1,0-1.48.66.66,0,0,1,1.12,0A1.3,1.3,0,0,1,132.78,175.36Z" transform="translate(-91.49 -103.65)"/><path d="M131.22,174.41a1,1,0,0,1-.65,1.16c-.43.06-.84-.35-.91-.93a1,1,0,0,1,.65-1.16C130.74,173.42,131.14,173.84,131.22,174.41Z" transform="translate(-91.49 -103.65)"/><path d="M129.9,176a1,1,0,0,1-.65,1.16c-.43.06-.84-.35-.91-.93A1,1,0,0,1,129,175C129.42,175,129.83,175.39,129.9,176Z" transform="translate(-91.49 -103.65)"/><path d="M132,176.23a1.06,1.06,0,0,1-.52,1.27c-.42.14-.86-.21-1-.77a1.06,1.06,0,0,1,.52-1.27C131.46,175.32,131.9,175.67,132,176.23Z" transform="translate(-91.49 -103.65)"/><path d="M130.85,177.56a1.2,1.2,0,0,1-.29,1.41c-.38.26-.86.05-1.08-.46a1.2,1.2,0,0,1,.29-1.41C130.15,176.84,130.63,177,130.85,177.56Z" transform="translate(-91.49 -103.65)"/><path d="M128.53,177a1.07,1.07,0,0,1,.39,1.18c-.13.45-.52.65-.87.45a1.07,1.07,0,0,1-.39-1.18C127.79,177,128.18,176.81,128.53,177Z" transform="translate(-91.49 -103.65)"/><path d="M129.75,179.77a.84.84,0,0,1-.56,1c-.37.05-.72-.3-.79-.8a.84.84,0,0,1,.56-1C129.34,178.92,129.69,179.28,129.75,179.77Z" transform="translate(-91.49 -103.65)"/><path d="M127.86,182.13a1.05,1.05,0,0,1-.77-1.13c0-.58.37-1,.81-1a1.05,1.05,0,0,1,.77,1.13C128.65,181.75,128.29,182.18,127.86,182.13Z" transform="translate(-91.49 -103.65)"/><path d="M127.72,179.73a.53.53,0,0,1-.39-.57c0-.29.19-.5.4-.48a.53.53,0,0,1,.39.57C128.12,179.54,127.94,179.76,127.72,179.73Z" transform="translate(-91.49 -103.65)"/><path d="M129,174.73a.53.53,0,0,1-.39-.57c0-.29.19-.5.4-.48a.53.53,0,0,1,.39.57C129.44,174.53,129.26,174.75,129,174.73Z" transform="translate(-91.49 -103.65)"/><path d="M130.55,168.2a.53.53,0,0,1-.39-.57c0-.29.19-.5.4-.48a.53.53,0,0,1,.39.57C130.95,168,130.77,168.22,130.55,168.2Z" transform="translate(-91.49 -103.65)"/><path d="M131.64,164.48a.53.53,0,0,1-.39-.57c0-.29.19-.5.4-.48a.53.53,0,0,1,.39.57C132,164.29,131.86,164.5,131.64,164.48Z" transform="translate(-91.49 -103.65)"/><path d="M132.52,161.24a.53.53,0,0,1-.39-.57c0-.29.19-.5.4-.48a.53.53,0,0,1,.39.57C132.92,161.05,132.74,161.27,132.52,161.24Z" transform="translate(-91.49 -103.65)"/><path d="M134.44,154.43a.53.53,0,0,1-.39-.57c0-.29.19-.5.4-.48a.53.53,0,0,1,.39.57C134.84,154.23,134.66,154.45,134.44,154.43Z" transform="translate(-91.49 -103.65)"/><path d="M135.94,147.22c.06-.27.28-.42.49-.32a.61.61,0,0,1,.27.67c-.06.27-.28.42-.49.32A.61.61,0,0,1,135.94,147.22Z" transform="translate(-91.49 -103.65)"/><path d="M137.11,143.23c.06-.27.28-.42.49-.32a.61.61,0,0,1,.27.67c-.06.27-.28.42-.49.32A.61.61,0,0,1,137.11,143.23Z" transform="translate(-91.49 -103.65)"/><path d="M135.49,150.77a.53.53,0,0,1-.39-.57c0-.29.19-.5.4-.48a.53.53,0,0,1,.39.57C135.89,150.58,135.7,150.8,135.49,150.77Z" transform="translate(-91.49 -103.65)"/><path d="M133.46,157.71a.53.53,0,0,1-.39-.57c0-.29.19-.5.4-.48a.53.53,0,0,1,.39.57C133.86,157.52,133.68,157.73,133.46,157.71Z" transform="translate(-91.49 -103.65)"/><path d="M127.52,183.67a.66.66,0,0,1-1.12,0,1.3,1.3,0,0,1,0-1.48.66.66,0,0,1,1.12,0A1.3,1.3,0,0,1,127.52,183.67Z" transform="translate(-91.49 -103.65)"/><path d="M136.81,120.76a1,1,0,0,1-.65,1.16c-.43.06-.84-.35-.91-.93a1,1,0,0,1,.65-1.16C136.33,119.77,136.74,120.18,136.81,120.76Z" transform="translate(-91.49 -103.65)" fill="#25c7d9"/><path d="M138.64,120.49a1,1,0,0,1-.65,1.16c-.43.06-.84-.35-.91-.93a1,1,0,0,1,.65-1.16C138.16,119.5,138.57,119.92,138.64,120.49Z" transform="translate(-91.49 -103.65)" fill="#25c7d9"/><path d="M140.56,120.21a1,1,0,0,1-.65,1.16c-.43.06-.84-.35-.91-.93a1,1,0,0,1,.65-1.16C140.08,119.22,140.49,119.63,140.56,120.21Z" transform="translate(-91.49 -103.65)" fill="#25c7d9"/><path d="M142.51,119.92a1,1,0,0,1-.65,1.16c-.43.06-.84-.35-.91-.93a1,1,0,0,1,.65-1.16C142,118.93,142.44,119.35,142.51,119.92Z" transform="translate(-91.49 -103.65)" fill="#25c7d9"/><path d="M144.4,119.64a1,1,0,0,1-.65,1.16c-.43.06-.84-.35-.91-.93a1,1,0,0,1,.65-1.16C143.92,118.65,144.33,119.07,144.4,119.64Z" transform="translate(-91.49 -103.65)" fill="#25c7d9"/><path d="M146.28,119.37a1,1,0,0,1-.65,1.16c-.43.06-.84-.35-.91-.93a1,1,0,0,1,.65-1.16C145.8,118.38,146.21,118.79,146.28,119.37Z" transform="translate(-91.49 -103.65)" fill="#25c7d9"/><path d="M152.14,118.51a1,1,0,0,1-.65,1.16c-.43.06-.84-.35-.91-.93a1,1,0,0,1,.65-1.16C151.65,117.52,152.06,117.93,152.14,118.51Z" transform="translate(-91.49 -103.65)" fill="#25c7d9"/><path d="M150.29,118.78a1,1,0,0,1-.65,1.16c-.43.06-.84-.35-.91-.93a1,1,0,0,1,.65-1.16C149.81,117.79,150.22,118.2,150.29,118.78Z" transform="translate(-91.49 -103.65)" fill="#25c7d9"/><path d="M148.32,119.07a1,1,0,0,1-.65,1.16c-.43.06-.84-.35-.91-.93a1,1,0,0,1,.65-1.16C147.84,118.08,148.24,118.49,148.32,119.07Z" transform="translate(-91.49 -103.65)" fill="#25c7d9"/><path d="M135.81,123.47a1,1,0,0,1-.65,1.16c-.43.06-.84-.35-.91-.93a1,1,0,0,1,.65-1.16C135.33,122.48,135.74,122.89,135.81,123.47Z" transform="translate(-91.49 -103.65)" fill="#25c7d9"/><path d="M137.64,123.2a1,1,0,0,1-.65,1.16c-.43.06-.84-.35-.91-.93a1,1,0,0,1,.65-1.16C137.16,122.21,137.57,122.63,137.64,123.2Z" transform="translate(-91.49 -103.65)" fill="#25c7d9"/><path d="M139.56,122.92a1,1,0,0,1-.65,1.16c-.43.06-.84-.35-.91-.93a1,1,0,0,1,.65-1.16C139.08,121.93,139.49,122.34,139.56,122.92Z" transform="translate(-91.49 -103.65)" fill="#25c7d9"/><path d="M141.51,122.63a1,1,0,0,1-.65,1.16c-.43.06-.84-.35-.91-.93a1,1,0,0,1,.65-1.16C141,121.64,141.44,122.06,141.51,122.63Z" transform="translate(-91.49 -103.65)" fill="#25c7d9"/><path d="M143.4,122.35a1,1,0,0,1-.65,1.16c-.43.06-.84-.35-.91-.93a1,1,0,0,1,.65-1.16C142.92,121.36,143.33,121.78,143.4,122.35Z" transform="translate(-91.49 -103.65)" fill="#25c7d9"/><path d="M145.28,122.08a1,1,0,0,1-.65,1.16c-.43.06-.84-.35-.91-.93a1,1,0,0,1,.65-1.16C144.8,121.09,145.21,121.5,145.28,122.08Z" transform="translate(-91.49 -103.65)" fill="#25c7d9"/><path d="M151.14,121.22a1,1,0,0,1-.65,1.16c-.43.06-.84-.35-.91-.93a1,1,0,0,1,.65-1.16C150.66,120.23,151.06,120.64,151.14,121.22Z" transform="translate(-91.49 -103.65)" fill="#25c7d9"/><path d="M149.29,121.49a1,1,0,0,1-.65,1.16c-.43.06-.84-.35-.91-.93a1,1,0,0,1,.65-1.16C148.81,120.5,149.22,120.91,149.29,121.49Z" transform="translate(-91.49 -103.65)" fill="#25c7d9"/><path d="M147.32,121.78a1,1,0,0,1-.65,1.16c-.43.06-.84-.35-.91-.93a1,1,0,0,1,.65-1.16C146.84,120.79,147.25,121.2,147.32,121.78Z" transform="translate(-91.49 -103.65)" fill="#25c7d9"/><path d="M134.71,126.2a1,1,0,0,1-.65,1.16c-.43.06-.84-.35-.91-.93a1,1,0,0,1,.65-1.16C134.23,125.21,134.63,125.62,134.71,126.2Z" transform="translate(-91.49 -103.65)" fill="#25c7d9"/><path d="M136.54,125.93a1,1,0,0,1-.65,1.16c-.43.06-.84-.35-.91-.93a1,1,0,0,1,.65-1.16C136.05,124.94,136.46,125.35,136.54,125.93Z" transform="translate(-91.49 -103.65)" fill="#25c7d9"/><path d="M138.46,125.65a1,1,0,0,1-.65,1.16c-.43.06-.84-.35-.91-.93a1,1,0,0,1,.65-1.16C138,124.65,138.38,125.07,138.46,125.65Z" transform="translate(-91.49 -103.65)" fill="#25c7d9"/><path d="M140.41,125.36a1,1,0,0,1-.65,1.16c-.43.06-.84-.35-.91-.93a1,1,0,0,1,.65-1.16C139.93,124.37,140.33,124.78,140.41,125.36Z" transform="translate(-91.49 -103.65)" fill="#25c7d9"/><path d="M142.3,125.08a1,1,0,0,1-.65,1.16c-.43.06-.84-.35-.91-.93a1,1,0,0,1,.65-1.16C141.81,124.09,142.22,124.5,142.3,125.08Z" transform="translate(-91.49 -103.65)" fill="#25c7d9"/><path d="M144.18,124.8a1,1,0,0,1-.65,1.16c-.43.06-.84-.35-.91-.93a1,1,0,0,1,.65-1.16C143.7,123.81,144.1,124.23,144.18,124.8Z" transform="translate(-91.49 -103.65)" fill="#25c7d9"/><path d="M150,123.94a1,1,0,0,1-.65,1.16c-.43.06-.84-.35-.91-.93a1,1,0,0,1,.65-1.16C149.55,123,150,123.37,150,123.94Z" transform="translate(-91.49 -103.65)" fill="#25c7d9"/><path d="M148.19,124.21a1,1,0,0,1-.65,1.16c-.43.06-.84-.35-.91-.93a1,1,0,0,1,.65-1.16C147.71,123.22,148.12,123.64,148.19,124.21Z" transform="translate(-91.49 -103.65)" fill="#25c7d9"/><path d="M146.22,124.5a1,1,0,0,1-.65,1.16c-.43.06-.84-.35-.91-.93a1,1,0,0,1,.65-1.16C145.73,123.51,146.14,123.93,146.22,124.5Z" transform="translate(-91.49 -103.65)" fill="#25c7d9"/><path d="M133.6,128.92a1,1,0,0,1-.65,1.16c-.43.06-.84-.35-.91-.93a1,1,0,0,1,.65-1.16C133.12,127.93,133.53,128.35,133.6,128.92Z" transform="translate(-91.49 -103.65)" fill="#25c7d9"/><path d="M135.43,128.65a1,1,0,0,1-.65,1.16c-.43.06-.84-.35-.91-.93a1,1,0,0,1,.65-1.16C134.95,127.66,135.36,128.08,135.43,128.65Z" transform="translate(-91.49 -103.65)" fill="#25c7d9"/><path d="M137.35,128.37a1,1,0,0,1-.65,1.16c-.43.06-.84-.35-.91-.93a1,1,0,0,1,.65-1.16C136.87,127.38,137.28,127.8,137.35,128.37Z" transform="translate(-91.49 -103.65)" fill="#25c7d9"/><path d="M139.3,128.08a1,1,0,0,1-.65,1.16c-.43.06-.84-.35-.91-.93a1,1,0,0,1,.65-1.16C138.82,127.09,139.23,127.51,139.3,128.08Z" transform="translate(-91.49 -103.65)" fill="#25c7d9"/><path d="M141.19,127.81a1,1,0,0,1-.65,1.16c-.43.06-.84-.35-.91-.93a1,1,0,0,1,.65-1.16C140.71,126.82,141.12,127.23,141.19,127.81Z" transform="translate(-91.49 -103.65)" fill="#25c7d9"/><path d="M143.07,127.53a1,1,0,0,1-.65,1.16c-.43.06-.84-.35-.91-.93a1,1,0,0,1,.65-1.16C142.59,126.54,143,127,143.07,127.53Z" transform="translate(-91.49 -103.65)" fill="#25c7d9"/><path d="M148.93,126.67a1,1,0,0,1-.65,1.16c-.43.06-.84-.35-.91-.93a1,1,0,0,1,.65-1.16C148.45,125.68,148.85,126.09,148.93,126.67Z" transform="translate(-91.49 -103.65)" fill="#25c7d9"/><path d="M147.08,126.94a1,1,0,0,1-.65,1.16c-.43.06-.84-.35-.91-.93a1,1,0,0,1,.65-1.16C146.6,125.95,147,126.36,147.08,126.94Z" transform="translate(-91.49 -103.65)" fill="#25c7d9"/><path d="M145.11,127.23a1,1,0,0,1-.65,1.16c-.43.06-.84-.35-.91-.93a1,1,0,0,1,.65-1.16C144.63,126.24,145,126.65,145.11,127.23Z" transform="translate(-91.49 -103.65)" fill="#25c7d9"/><path d="M132.5,131.65a1,1,0,0,1-.65,1.16c-.43.06-.84-.35-.91-.93a1,1,0,0,1,.65-1.16C132,130.66,132.42,131.07,132.5,131.65Z" transform="translate(-91.49 -103.65)" fill="#25c7d9"/><path d="M134.33,131.38a1,1,0,0,1-.65,1.16c-.43.06-.84-.35-.91-.93a1,1,0,0,1,.65-1.16C133.84,130.39,134.25,130.8,134.33,131.38Z" transform="translate(-91.49 -103.65)" fill="#25c7d9"/><path d="M136.25,131.1a1,1,0,0,1-.65,1.16c-.43.06-.84-.35-.91-.93a1,1,0,0,1,.65-1.16C135.76,130.11,136.17,130.52,136.25,131.1Z" transform="translate(-91.49 -103.65)" fill="#25c7d9"/><path d="M138.2,130.81a1,1,0,0,1-.65,1.16c-.43.06-.84-.35-.91-.93a1,1,0,0,1,.65-1.16C137.72,129.82,138.12,130.23,138.2,130.81Z" transform="translate(-91.49 -103.65)" fill="#25c7d9"/><path d="M140.09,130.53a1,1,0,0,1-.65,1.16c-.43.06-.84-.35-.91-.93a1,1,0,0,1,.65-1.16C139.6,129.54,140,130,140.09,130.53Z" transform="translate(-91.49 -103.65)" fill="#25c7d9"/><path d="M142,130.26a1,1,0,0,1-.65,1.16c-.43.06-.84-.35-.91-.93a1,1,0,0,1,.65-1.16C141.49,129.26,141.89,129.68,142,130.26Z" transform="translate(-91.49 -103.65)" fill="#25c7d9"/><path d="M147.82,129.39a1,1,0,0,1-.65,1.16c-.43.06-.84-.35-.91-.93a1,1,0,0,1,.65-1.16C147.34,128.4,147.75,128.82,147.82,129.39Z" transform="translate(-91.49 -103.65)" fill="#25c7d9"/><path d="M146,129.67a1,1,0,0,1-.65,1.16c-.43.06-.84-.35-.91-.93a1,1,0,0,1,.65-1.16C145.5,128.67,145.91,129.09,146,129.67Z" transform="translate(-91.49 -103.65)" fill="#25c7d9"/><path d="M144,130a1,1,0,0,1-.65,1.16c-.43.06-.84-.35-.91-.93a1,1,0,0,1,.65-1.16C143.52,129,143.93,129.38,144,130Z" transform="translate(-91.49 -103.65)" fill="#25c7d9"/><path d="M131.39,134.37a1,1,0,0,1-.65,1.16c-.43.06-.84-.35-.91-.93a1,1,0,0,1,.65-1.16C130.91,133.38,131.32,133.8,131.39,134.37Z" transform="translate(-91.49 -103.65)" fill="#25c7d9"/><path d="M133.22,134.11a1,1,0,0,1-.65,1.16c-.43.06-.84-.35-.91-.93a1,1,0,0,1,.65-1.16C132.74,133.11,133.15,133.53,133.22,134.11Z" transform="translate(-91.49 -103.65)" fill="#25c7d9"/><path d="M135.14,133.82a1,1,0,0,1-.65,1.16c-.43.06-.84-.35-.91-.93a1,1,0,0,1,.65-1.16C134.66,132.83,135.07,133.25,135.14,133.82Z" transform="translate(-91.49 -103.65)" fill="#25c7d9"/><path d="M137.09,133.54a1,1,0,0,1-.65,1.16c-.43.06-.84-.35-.91-.93a1,1,0,0,1,.65-1.16C136.61,132.54,137,133,137.09,133.54Z" transform="translate(-91.49 -103.65)" fill="#25c7d9"/><path d="M139,133.26a1,1,0,0,1-.65,1.16c-.43.06-.84-.35-.91-.93a1,1,0,0,1,.65-1.16C138.5,132.27,138.91,132.68,139,133.26Z" transform="translate(-91.49 -103.65)" fill="#25c7d9"/><path d="M140.86,133a1,1,0,0,1-.65,1.16c-.43.06-.84-.35-.91-.93a1,1,0,0,1,.65-1.16C140.38,132,140.79,132.41,140.86,133Z" transform="translate(-91.49 -103.65)" fill="#25c7d9"/><path d="M146.72,132.12a1,1,0,0,1-.65,1.16c-.43.06-.84-.35-.91-.93a1,1,0,0,1,.65-1.16C146.24,131.13,146.64,131.54,146.72,132.12Z" transform="translate(-91.49 -103.65)" fill="#25c7d9"/><path d="M144.87,132.39a1,1,0,0,1-.65,1.16c-.43.06-.84-.35-.91-.93a1,1,0,0,1,.65-1.16C144.39,131.4,144.8,131.82,144.87,132.39Z" transform="translate(-91.49 -103.65)" fill="#25c7d9"/><path d="M142.9,132.68a1,1,0,0,1-.65,1.16c-.43.06-.84-.35-.91-.93a1,1,0,0,1,.65-1.16C142.42,131.69,142.83,132.11,142.9,132.68Z" transform="translate(-91.49 -103.65)" fill="#25c7d9"/><path d="M130.29,137.1a1,1,0,0,1-.65,1.16c-.43.06-.84-.35-.91-.93a1,1,0,0,1,.65-1.16C129.81,136.11,130.21,136.52,130.29,137.1Z" transform="translate(-91.49 -103.65)" fill="#25c7d9"/><path d="M132.12,136.83a1,1,0,0,1-.65,1.16c-.43.06-.84-.35-.91-.93a1,1,0,0,1,.65-1.16C131.63,135.84,132,136.26,132.12,136.83Z" transform="translate(-91.49 -103.65)" fill="#25c7d9"/><path d="M134,136.55a1,1,0,0,1-.65,1.16c-.43.06-.84-.35-.91-.93a1,1,0,0,1,.65-1.16C133.55,135.56,134,136,134,136.55Z" transform="translate(-91.49 -103.65)" fill="#25c7d9"/><path d="M136,136.26a1,1,0,0,1-.65,1.16c-.43.06-.84-.35-.91-.93a1,1,0,0,1,.65-1.16C135.51,135.27,135.91,135.69,136,136.26Z" transform="translate(-91.49 -103.65)" fill="#25c7d9"/><path d="M137.88,136a1,1,0,0,1-.65,1.16c-.43.06-.84-.35-.91-.93a1,1,0,0,1,.65-1.16C137.39,135,137.8,135.41,137.88,136Z" transform="translate(-91.49 -103.65)" fill="#25c7d9"/><path d="M139.76,135.71a1,1,0,0,1-.65,1.16c-.43.06-.84-.35-.91-.93a1,1,0,0,1,.65-1.16C139.28,134.72,139.68,135.13,139.76,135.71Z" transform="translate(-91.49 -103.65)" fill="#25c7d9"/><path d="M145.61,134.85A1,1,0,0,1,145,136c-.43.06-.84-.35-.91-.93a1,1,0,0,1,.65-1.16C145.13,133.85,145.54,134.27,145.61,134.85Z" transform="translate(-91.49 -103.65)" fill="#25c7d9"/><path d="M143.77,135.12a1,1,0,0,1-.65,1.16c-.43.06-.84-.35-.91-.93a1,1,0,0,1,.65-1.16C143.29,134.13,143.7,134.54,143.77,135.12Z" transform="translate(-91.49 -103.65)" fill="#25c7d9"/><path d="M141.79,135.41a1,1,0,0,1-.65,1.16c-.43.06-.84-.35-.91-.93a1,1,0,0,1,.65-1.16C141.31,134.42,141.72,134.83,141.79,135.41Z" transform="translate(-91.49 -103.65)" fill="#25c7d9"/><path d="M129.18,139.83a1,1,0,0,1-.65,1.16c-.43.06-.84-.35-.91-.93a1,1,0,0,1,.65-1.16C128.7,138.83,129.11,139.25,129.18,139.83Z" transform="translate(-91.49 -103.65)" fill="#25c7d9"/><path d="M131,139.56a1,1,0,0,1-.65,1.16c-.43.06-.84-.35-.91-.93a1,1,0,0,1,.65-1.16C130.53,138.57,130.94,139,131,139.56Z" transform="translate(-91.49 -103.65)" fill="#25c7d9"/><path d="M132.93,139.27a1,1,0,0,1-.65,1.16c-.43.06-.84-.35-.91-.93a1,1,0,0,1,.65-1.16C132.45,138.28,132.86,138.7,132.93,139.27Z" transform="translate(-91.49 -103.65)" fill="#25c7d9"/><path d="M134.88,139a1,1,0,0,1-.65,1.16c-.43.06-.84-.35-.91-.93a1,1,0,0,1,.65-1.16C134.4,138,134.81,138.41,134.88,139Z" transform="translate(-91.49 -103.65)" fill="#25c7d9"/><path d="M136.77,138.71a1,1,0,0,1-.65,1.16c-.43.06-.84-.35-.91-.93a1,1,0,0,1,.65-1.16C136.29,137.72,136.7,138.13,136.77,138.71Z" transform="translate(-91.49 -103.65)" fill="#25c7d9"/><path d="M138.65,138.43a1,1,0,0,1-.65,1.16c-.43.06-.84-.35-.91-.93a1,1,0,0,1,.65-1.16C138.17,137.44,138.58,137.86,138.65,138.43Z" transform="translate(-91.49 -103.65)" fill="#25c7d9"/><path d="M144.51,137.57a1,1,0,0,1-.65,1.16c-.43.06-.84-.35-.91-.93a1,1,0,0,1,.65-1.16C144,136.58,144.43,137,144.51,137.57Z" transform="translate(-91.49 -103.65)" fill="#25c7d9"/><path d="M142.66,137.84A1,1,0,0,1,142,139c-.43.06-.84-.35-.91-.93a1,1,0,0,1,.65-1.16C142.18,136.85,142.59,137.27,142.66,137.84Z" transform="translate(-91.49 -103.65)" fill="#25c7d9"/><path d="M140.69,138.13a1,1,0,0,1-.65,1.16c-.43.06-.84-.35-.91-.93a1,1,0,0,1,.65-1.16C140.21,137.14,140.62,137.56,140.69,138.13Z" transform="translate(-91.49 -103.65)" fill="#25c7d9"/><path d="M128.08,142.55a1,1,0,0,1-.65,1.16c-.43.06-.84-.35-.91-.93a1,1,0,0,1,.65-1.16C127.6,141.56,128,142,128.08,142.55Z" transform="translate(-91.49 -103.65)" fill="#25c7d9"/><path d="M129.91,142.28a1,1,0,0,1-.65,1.16c-.43.06-.84-.35-.91-.93a1,1,0,0,1,.65-1.16C129.42,141.29,129.83,141.71,129.91,142.28Z" transform="translate(-91.49 -103.65)" fill="#25c7d9"/><path d="M131.83,142a1,1,0,0,1-.65,1.16c-.43.06-.84-.35-.91-.93a1,1,0,0,1,.65-1.16C131.34,141,131.75,141.42,131.83,142Z" transform="translate(-91.49 -103.65)" fill="#25c7d9"/><path d="M133.78,141.71a1,1,0,0,1-.65,1.16c-.43.06-.84-.35-.91-.93a1,1,0,0,1,.65-1.16C133.3,140.72,133.7,141.14,133.78,141.71Z" transform="translate(-91.49 -103.65)" fill="#25c7d9"/><path d="M135.67,141.44a1,1,0,0,1-.65,1.16c-.43.06-.84-.35-.91-.93a1,1,0,0,1,.65-1.16C135.18,140.44,135.59,140.86,135.67,141.44Z" transform="translate(-91.49 -103.65)" fill="#25c7d9"/><path d="M137.55,141.16a1,1,0,0,1-.65,1.16c-.43.06-.84-.35-.91-.93a1,1,0,0,1,.65-1.16C137.07,140.17,137.47,140.58,137.55,141.16Z" transform="translate(-91.49 -103.65)" fill="#25c7d9"/><path d="M143.4,140.3a1,1,0,0,1-.65,1.16c-.43.06-.84-.35-.91-.93a1,1,0,0,1,.65-1.16C142.92,139.31,143.33,139.72,143.4,140.3Z" transform="translate(-91.49 -103.65)" fill="#25c7d9"/><path d="M141.56,140.57a1,1,0,0,1-.65,1.16c-.43.06-.84-.35-.91-.93a1,1,0,0,1,.65-1.16C141.08,139.58,141.48,140,141.56,140.57Z" transform="translate(-91.49 -103.65)" fill="#25c7d9"/><path d="M139.58,140.86a1,1,0,0,1-.65,1.16c-.43.06-.84-.35-.91-.93a1,1,0,0,1,.65-1.16C139.1,139.87,139.51,140.28,139.58,140.86Z" transform="translate(-91.49 -103.65)" fill="#25c7d9"/><path d="M137.79,141.12a1,1,0,0,1-.65,1.16c-.43.06-.84-.35-.91-.93a1,1,0,0,1,.65-1.16C137.31,140.13,137.72,140.55,137.79,141.12Z" transform="translate(-91.49 -103.65)" fill="#25c7d9"/><path d="M139.62,140.85A1,1,0,0,1,139,142c-.43.06-.84-.35-.91-.93a1,1,0,0,1,.65-1.16C139.14,139.86,139.54,140.28,139.62,140.85Z" transform="translate(-91.49 -103.65)" fill="#25c7d9"/><path d="M141.54,140.57a1,1,0,0,1-.65,1.16c-.43.06-.84-.35-.91-.93a1,1,0,0,1,.65-1.16C141.06,139.58,141.46,140,141.54,140.57Z" transform="translate(-91.49 -103.65)" fill="#25c7d9"/><path d="M143.49,140.28a1,1,0,0,1-.65,1.16c-.43.06-.84-.35-.91-.93a1,1,0,0,1,.65-1.16C143,139.29,143.42,139.71,143.49,140.28Z" transform="translate(-91.49 -103.65)" fill="#25c7d9"/><path d="M145.38,140a1,1,0,0,1-.65,1.16c-.43.06-.84-.35-.91-.93a1,1,0,0,1,.65-1.16C144.9,139,145.3,139.43,145.38,140Z" transform="translate(-91.49 -103.65)" fill="#25c7d9"/><path d="M147.26,139.73a1,1,0,0,1-.65,1.16c-.43.06-.84-.35-.91-.93a1,1,0,0,1,.65-1.16C146.78,138.74,147.19,139.15,147.26,139.73Z" transform="translate(-91.49 -103.65)" fill="#25c7d9"/><path d="M153.11,138.87a1,1,0,0,1-.65,1.16c-.43.06-.84-.35-.91-.93a1,1,0,0,1,.65-1.16C152.63,137.88,153,138.29,153.11,138.87Z" transform="translate(-91.49 -103.65)" fill="#25c7d9"/><path d="M151.27,139.14a1,1,0,0,1-.65,1.16c-.43.06-.84-.35-.91-.93a1,1,0,0,1,.65-1.16C150.79,138.15,151.2,138.56,151.27,139.14Z" transform="translate(-91.49 -103.65)" fill="#25c7d9"/><path d="M149.3,139.43a1,1,0,0,1-.65,1.16c-.43.06-.84-.35-.91-.93a1,1,0,0,1,.65-1.16C148.81,138.44,149.22,138.85,149.3,139.43Z" transform="translate(-91.49 -103.65)" fill="#25c7d9"/><path d="M138.29,143.17a1,1,0,0,1-.65,1.16c-.43.06-.84-.35-.91-.93a1,1,0,0,1,.65-1.16C137.81,142.18,138.22,142.6,138.29,143.17Z" transform="translate(-91.49 -103.65)" fill="#25c7d9"/><path d="M140.21,142.89a1,1,0,0,1-.65,1.16c-.43.06-.84-.35-.91-.93a1,1,0,0,1,.65-1.16C139.73,141.9,140.14,142.32,140.21,142.89Z" transform="translate(-91.49 -103.65)" fill="#25c7d9"/><path d="M142.16,142.6a1,1,0,0,1-.65,1.16c-.43.06-.84-.35-.91-.93a1,1,0,0,1,.65-1.16C141.68,141.61,142.09,142,142.16,142.6Z" transform="translate(-91.49 -103.65)" fill="#25c7d9"/><path d="M144,142.33a1,1,0,0,1-.65,1.16c-.43.06-.84-.35-.91-.93a1,1,0,0,1,.65-1.16C143.57,141.34,144,141.75,144,142.33Z" transform="translate(-91.49 -103.65)" fill="#25c7d9"/><path d="M145.93,142a1,1,0,0,1-.65,1.16c-.43.06-.84-.35-.91-.93a1,1,0,0,1,.65-1.16C145.45,141.06,145.86,141.47,145.93,142Z" transform="translate(-91.49 -103.65)" fill="#25c7d9"/><path d="M151.79,141.19a1,1,0,0,1-.65,1.16c-.43.06-.84-.35-.91-.93a1,1,0,0,1,.65-1.16C151.31,140.2,151.71,140.61,151.79,141.19Z" transform="translate(-91.49 -103.65)" fill="#25c7d9"/><path d="M149.94,141.46a1,1,0,0,1-.65,1.16c-.43.06-.84-.35-.91-.93a1,1,0,0,1,.65-1.16C149.46,140.47,149.87,140.88,149.94,141.46Z" transform="translate(-91.49 -103.65)" fill="#25c7d9"/><path d="M148,141.75a1,1,0,0,1-.65,1.16c-.43.06-.84-.35-.91-.93a1,1,0,0,1,.65-1.16C147.49,140.76,147.9,141.17,148,141.75Z" transform="translate(-91.49 -103.65)" fill="#25c7d9"/><path d="M137,145.73a1,1,0,0,1-.65,1.16c-.43.06-.84-.35-.91-.93a1,1,0,0,1,.65-1.16C136.52,144.74,136.93,145.16,137,145.73Z" transform="translate(-91.49 -103.65)" fill="#25c7d9"/><path d="M138.88,145.21a1,1,0,0,1-.65,1.16c-.43.06-.84-.35-.91-.93a1,1,0,0,1,.65-1.16C138.4,144.22,138.81,144.63,138.88,145.21Z" transform="translate(-91.49 -103.65)" fill="#25c7d9"/><path d="M140.83,144.92a1,1,0,0,1-.65,1.16c-.43.06-.84-.35-.91-.93a1,1,0,0,1,.65-1.16C140.35,143.93,140.76,144.35,140.83,144.92Z" transform="translate(-91.49 -103.65)" fill="#25c7d9"/><path d="M142.72,144.65a1,1,0,0,1-.65,1.16c-.43.06-.84-.35-.91-.93a1,1,0,0,1,.65-1.16C142.24,143.65,142.65,144.07,142.72,144.65Z" transform="translate(-91.49 -103.65)" fill="#25c7d9"/><path d="M144.6,144.37a1,1,0,0,1-.65,1.16c-.43.06-.84-.35-.91-.93a1,1,0,0,1,.65-1.16C144.12,143.38,144.53,143.79,144.6,144.37Z" transform="translate(-91.49 -103.65)" fill="#25c7d9"/><path d="M150.46,143.51a1,1,0,0,1-.65,1.16c-.43.06-.84-.35-.91-.93a1,1,0,0,1,.65-1.16C150,142.52,150.39,142.93,150.46,143.51Z" transform="translate(-91.49 -103.65)" fill="#25c7d9"/><path d="M148.62,143.78a1,1,0,0,1-.65,1.16c-.43.06-.84-.35-.91-.93a1,1,0,0,1,.65-1.16C148.13,142.79,148.54,143.2,148.62,143.78Z" transform="translate(-91.49 -103.65)" fill="#25c7d9"/><path d="M146.64,144.07a1,1,0,0,1-.65,1.16c-.43.06-.84-.35-.91-.93a1,1,0,0,1,.65-1.16C146.16,143.08,146.57,143.49,146.64,144.07Z" transform="translate(-91.49 -103.65)" fill="#25c7d9"/><path d="M137.56,147.53a1,1,0,0,1-.65,1.16c-.43.06-.84-.35-.91-.93a1,1,0,0,1,.65-1.16C137.08,146.54,137.49,147,137.56,147.53Z" transform="translate(-91.49 -103.65)" fill="#25c7d9"/><path d="M139.51,147.24a1,1,0,0,1-.65,1.16c-.43.06-.84-.35-.91-.93a1,1,0,0,1,.65-1.16C139,146.25,139.43,146.67,139.51,147.24Z" transform="translate(-91.49 -103.65)" fill="#25c7d9"/><path d="M141.4,147a1,1,0,0,1-.65,1.16c-.43.06-.84-.35-.91-.93a1,1,0,0,1,.65-1.16C140.91,146,141.32,146.39,141.4,147Z" transform="translate(-91.49 -103.65)" fill="#25c7d9"/><path d="M143.28,146.69a1,1,0,0,1-.65,1.16c-.43.06-.84-.35-.91-.93a1,1,0,0,1,.65-1.16C142.8,145.7,143.2,146.11,143.28,146.69Z" transform="translate(-91.49 -103.65)" fill="#25c7d9"/><path d="M149.13,145.83a1,1,0,0,1-.65,1.16c-.43.06-.84-.35-.91-.93a1,1,0,0,1,.65-1.16C148.65,144.84,149.06,145.25,149.13,145.83Z" transform="translate(-91.49 -103.65)" fill="#25c7d9"/><path d="M147.29,146.1a1,1,0,0,1-.65,1.16c-.43.06-.84-.35-.91-.93a1,1,0,0,1,.65-1.16C146.81,145.11,147.21,145.52,147.29,146.1Z" transform="translate(-91.49 -103.65)" fill="#25c7d9"/><path d="M145.31,146.39a1,1,0,0,1-.65,1.16c-.43.06-.84-.35-.91-.93a1,1,0,0,1,.65-1.16C144.83,145.4,145.24,145.81,145.31,146.39Z" transform="translate(-91.49 -103.65)" fill="#25c7d9"/><path d="M136.23,149.85a1,1,0,0,1-.65,1.16c-.43.06-.84-.35-.91-.93a1,1,0,0,1,.65-1.16C135.75,148.86,136.15,149.27,136.23,149.85Z" transform="translate(-91.49 -103.65)" fill="#25c7d9"/><path d="M138.18,149.56a1,1,0,0,1-.65,1.16c-.43.06-.84-.35-.91-.93a1,1,0,0,1,.65-1.16C137.7,148.57,138.11,149,138.18,149.56Z" transform="translate(-91.49 -103.65)" fill="#25c7d9"/><path d="M140.07,149.28a1,1,0,0,1-.65,1.16c-.43.06-.84-.35-.91-.93a1,1,0,0,1,.65-1.16C139.59,148.29,140,148.71,140.07,149.28Z" transform="translate(-91.49 -103.65)" fill="#25c7d9"/><path d="M141.95,149a1,1,0,0,1-.65,1.16c-.43.06-.84-.35-.91-.93a1,1,0,0,1,.65-1.16C141.47,148,141.88,148.43,141.95,149Z" transform="translate(-91.49 -103.65)" fill="#25c7d9"/><path d="M147.8,148.15a1,1,0,0,1-.65,1.16c-.43.06-.84-.35-.91-.93a1,1,0,0,1,.65-1.16C147.32,147.15,147.73,147.57,147.8,148.15Z" transform="translate(-91.49 -103.65)" fill="#25c7d9"/><path d="M146,148.42a1,1,0,0,1-.65,1.16c-.43.06-.84-.35-.91-.93a1,1,0,0,1,.65-1.16C145.48,147.43,145.89,147.84,146,148.42Z" transform="translate(-91.49 -103.65)" fill="#25c7d9"/><path d="M144,148.71a1,1,0,0,1-.65,1.16c-.43.06-.84-.35-.91-.93a1,1,0,0,1,.65-1.16C143.51,147.72,143.91,148.13,144,148.71Z" transform="translate(-91.49 -103.65)" fill="#25c7d9"/><path d="M133.42,152.74c0-.58.32-1,.76-1a1,1,0,0,1,.82,1.07c0,.58-.32,1-.76,1A1,1,0,0,1,133.42,152.74Z" transform="translate(-91.49 -103.65)" fill="#25c7d9"/><path d="M134,154.42c0-.58.32-1,.76-1a1,1,0,0,1,.82,1.07c0,.58-.32,1-.76,1A1,1,0,0,1,134,154.42Z" transform="translate(-91.49 -103.65)" fill="#25c7d9"/><path d="M136.85,151.88a1,1,0,0,1-.65,1.16c-.43.06-.84-.35-.91-.93a1,1,0,0,1,.65-1.16C136.37,150.89,136.78,151.3,136.85,151.88Z" transform="translate(-91.49 -103.65)" fill="#25c7d9"/><path d="M138.74,151.6a1,1,0,0,1-.65,1.16c-.43.06-.84-.35-.91-.93a1,1,0,0,1,.65-1.16C138.26,150.61,138.67,151,138.74,151.6Z" transform="translate(-91.49 -103.65)" fill="#25c7d9"/><path d="M140.62,151.33a1,1,0,0,1-.65,1.16c-.43.06-.84-.35-.91-.93a1,1,0,0,1,.65-1.16C140.14,150.33,140.55,150.75,140.62,151.33Z" transform="translate(-91.49 -103.65)" fill="#25c7d9"/><path d="M146.48,150.46a1,1,0,0,1-.65,1.16c-.43.06-.84-.35-.91-.93a1,1,0,0,1,.65-1.16C146,149.47,146.4,149.89,146.48,150.46Z" transform="translate(-91.49 -103.65)" fill="#25c7d9"/><path d="M144.63,150.74a1,1,0,0,1-.65,1.16c-.43.06-.84-.35-.91-.93a1,1,0,0,1,.65-1.16C144.15,149.74,144.56,150.16,144.63,150.74Z" transform="translate(-91.49 -103.65)" fill="#25c7d9"/><path d="M142.66,151a1,1,0,0,1-.65,1.16c-.43.06-.84-.35-.91-.93a1,1,0,0,1,.65-1.16C142.18,150,142.59,150.45,142.66,151Z" transform="translate(-91.49 -103.65)" fill="#25c7d9"/><path d="M136.24,156.22a1,1,0,0,1-.65,1.16c-.43.06-.84-.35-.91-.93a1,1,0,0,1,.65-1.16C135.76,155.23,136.17,155.64,136.24,156.22Z" transform="translate(-91.49 -103.65)" fill="#25c7d9"/><path d="M137.41,153.92a1,1,0,0,1-.65,1.16c-.43.06-.84-.35-.91-.93a1,1,0,0,1,.65-1.16C136.93,152.93,137.34,153.35,137.41,153.92Z" transform="translate(-91.49 -103.65)" fill="#25c7d9"/><path d="M139.29,153.65a1,1,0,0,1-.65,1.16c-.43.06-.84-.35-.91-.93a1,1,0,0,1,.65-1.16C138.81,152.65,139.22,153.07,139.29,153.65Z" transform="translate(-91.49 -103.65)" fill="#25c7d9"/><path d="M145.15,152.78a1,1,0,0,1-.65,1.16c-.43.06-.84-.35-.91-.93a1,1,0,0,1,.65-1.16C144.67,151.79,145.08,152.21,145.15,152.78Z" transform="translate(-91.49 -103.65)" fill="#25c7d9"/><path d="M143.31,153.06a1,1,0,0,1-.65,1.16c-.43.06-.84-.35-.91-.93a1,1,0,0,1,.65-1.16C142.82,152.06,143.23,152.48,143.31,153.06Z" transform="translate(-91.49 -103.65)" fill="#25c7d9"/><path d="M141.33,153.35a1,1,0,0,1-.65,1.16c-.43.06-.84-.35-.91-.93a1,1,0,0,1,.65-1.16C140.85,152.35,141.26,152.77,141.33,153.35Z" transform="translate(-91.49 -103.65)" fill="#25c7d9"/><path d="M134.17,156.61a1,1,0,0,1-.65,1.16c-.43.06-.84-.35-.91-.93a1,1,0,0,1,.65-1.16C133.69,155.62,134.1,156,134.17,156.61Z" transform="translate(-91.49 -103.65)" fill="#25c7d9"/><path d="M136.89,158.12a1,1,0,0,1-.65,1.16c-.43.06-.84-.35-.91-.93a1,1,0,0,1,.65-1.16C136.41,157.13,136.82,157.54,136.89,158.12Z" transform="translate(-91.49 -103.65)" fill="#25c7d9"/><path d="M138,156a1,1,0,0,1-.65,1.16c-.43.06-.84-.35-.91-.93a1,1,0,0,1,.65-1.16C137.49,155,137.89,155.39,138,156Z" transform="translate(-91.49 -103.65)" fill="#25c7d9"/><path d="M143.82,155.1a1,1,0,0,1-.65,1.16c-.43.06-.84-.35-.91-.93a1,1,0,0,1,.65-1.16C143.34,154.11,143.75,154.53,143.82,155.1Z" transform="translate(-91.49 -103.65)" fill="#25c7d9"/><path d="M142,155.37a1,1,0,0,1-.65,1.16c-.43.06-.84-.35-.91-.93a1,1,0,0,1,.65-1.16C141.5,154.38,141.91,154.8,142,155.37Z" transform="translate(-91.49 -103.65)" fill="#25c7d9"/><path d="M140,155.66a1,1,0,0,1-.65,1.16c-.43.06-.84-.35-.91-.93a1,1,0,0,1,.65-1.16C139.52,154.67,139.93,155.09,140,155.66Z" transform="translate(-91.49 -103.65)" fill="#25c7d9"/><path d="M134.76,158.56a1,1,0,0,1-.65,1.16c-.43.06-.84-.35-.91-.93a1,1,0,0,1,.65-1.16C134.28,157.57,134.68,158,134.76,158.56Z" transform="translate(-91.49 -103.65)" fill="#25c7d9"/><path d="M142.5,157.42a1,1,0,0,1-.65,1.16c-.43.06-.84-.35-.91-.93a1,1,0,0,1,.65-1.16C142,156.43,142.42,156.85,142.5,157.42Z" transform="translate(-91.49 -103.65)" fill="#25c7d9"/><path d="M140.65,157.69a1,1,0,0,1-.65,1.16c-.43.06-.84-.35-.91-.93a1,1,0,0,1,.65-1.16C140.17,156.7,140.58,157.12,140.65,157.69Z" transform="translate(-91.49 -103.65)" fill="#25c7d9"/><path d="M138.68,158a1,1,0,0,1-.65,1.16c-.43.06-.84-.35-.91-.93a1,1,0,0,1,.65-1.16C138.2,157,138.6,157.41,138.68,158Z" transform="translate(-91.49 -103.65)" fill="#25c7d9"/><path d="M133.11,160.16a1,1,0,0,1-.65,1.16c-.43.06-.84-.35-.91-.93a1,1,0,0,1,.65-1.16C132.63,159.17,133,159.59,133.11,160.16Z" transform="translate(-91.49 -103.65)" fill="#25c7d9"/><path d="M135.35,160.52a1,1,0,0,1-.65,1.16c-.43.06-.84-.35-.91-.93a1,1,0,0,1,.65-1.16C134.87,159.53,135.28,159.94,135.35,160.52Z" transform="translate(-91.49 -103.65)" fill="#25c7d9"/><path d="M141.17,159.74a1,1,0,0,1-.65,1.16c-.43.06-.84-.35-.91-.93a1,1,0,0,1,.65-1.16C140.69,158.75,141.09,159.17,141.17,159.74Z" transform="translate(-91.49 -103.65)" fill="#25c7d9"/><path d="M139.32,160a1,1,0,0,1-.65,1.16c-.43.06-.84-.35-.91-.93a1,1,0,0,1,.65-1.16C138.84,159,139.25,159.44,139.32,160Z" transform="translate(-91.49 -103.65)" fill="#25c7d9"/><path d="M137.54,160.15a1,1,0,0,1-.65,1.16c-.43.06-.84-.35-.91-.93a1,1,0,0,1,.65-1.16C137.06,159.16,137.46,159.57,137.54,160.15Z" transform="translate(-91.49 -103.65)" fill="#25c7d9"/><path d="M132.1,163.2a1,1,0,0,1-.65,1.16c-.43.06-.84-.35-.91-.93a1,1,0,0,1,.65-1.16C131.62,162.21,132,162.62,132.1,163.2Z" transform="translate(-91.49 -103.65)" fill="#25c7d9"/><path d="M133.94,162.47a1,1,0,0,1-.65,1.16c-.43.06-.84-.35-.91-.93a1,1,0,0,1,.65-1.16C133.46,161.48,133.87,161.89,133.94,162.47Z" transform="translate(-91.49 -103.65)" fill="#25c7d9"/><path d="M139.84,162.06a1,1,0,0,1-.65,1.16c-.43.06-.84-.35-.91-.93a1,1,0,0,1,.65-1.16C139.36,161.07,139.77,161.48,139.84,162.06Z" transform="translate(-91.49 -103.65)" fill="#25c7d9"/><path d="M138.16,162.15a1,1,0,0,1-.65,1.16c-.43.06-.84-.35-.91-.93a1,1,0,0,1,.65-1.16C137.68,161.16,138.08,161.57,138.16,162.15Z" transform="translate(-91.49 -103.65)" fill="#25c7d9"/><path d="M136,162.62a1,1,0,0,1-.65,1.16c-.43.06-.84-.35-.91-.93a1,1,0,0,1,.65-1.16C135.54,161.63,135.95,162,136,162.62Z" transform="translate(-91.49 -103.65)" fill="#25c7d9"/><path d="M132.7,165.23a1,1,0,0,1-.65,1.16c-.43.06-.84-.35-.91-.93a1,1,0,0,1,.65-1.16C132.22,164.24,132.63,164.66,132.7,165.23Z" transform="translate(-91.49 -103.65)" fill="#25c7d9"/><path d="M138.67,164.2a1,1,0,0,1-.65,1.16c-.43.06-.84-.35-.91-.93a1,1,0,0,1,.65-1.16C138.19,163.2,138.6,163.62,138.67,164.2Z" transform="translate(-91.49 -103.65)" fill="#25c7d9"/><path d="M136.67,164.65a1,1,0,0,1-.65,1.16c-.43.06-.84-.35-.91-.93a1,1,0,0,1,.65-1.16C136.19,163.66,136.6,164.08,136.67,164.65Z" transform="translate(-91.49 -103.65)" fill="#25c7d9"/><path d="M134.62,164.64a1,1,0,0,1-.65,1.16c-.43.06-.84-.35-.91-.93a1,1,0,0,1,.65-1.16C134.14,163.65,134.55,164.07,134.62,164.64Z" transform="translate(-91.49 -103.65)" fill="#25c7d9"/><path d="M131.12,166.53a1,1,0,0,1-.65,1.16c-.43.06-.84-.35-.91-.93a1,1,0,0,1,.65-1.16C130.64,165.54,131,166,131.12,166.53Z" transform="translate(-91.49 -103.65)" fill="#25c7d9"/><path d="M137.19,166.7a1,1,0,0,1-.65,1.16c-.43.06-.84-.35-.91-.93a1,1,0,0,1,.65-1.16C136.7,165.71,137.11,166.12,137.19,166.7Z" transform="translate(-91.49 -103.65)" fill="#25c7d9"/><path d="M135.34,166.81a1,1,0,0,1-.65,1.16c-.43.06-.84-.35-.91-.93a1,1,0,0,1,.65-1.16C134.86,165.82,135.27,166.23,135.34,166.81Z" transform="translate(-91.49 -103.65)" fill="#25c7d9"/><path d="M133.37,167.26a1,1,0,0,1-.65,1.16c-.43.06-.84-.35-.91-.93a1,1,0,0,1,.65-1.16C132.89,166.27,133.29,166.68,133.37,167.26Z" transform="translate(-91.49 -103.65)" fill="#25c7d9"/><path d="M135.93,168.68a1,1,0,0,1-.65,1.16c-.43.06-.84-.35-.91-.93a1,1,0,0,1,.65-1.16C135.45,167.68,135.86,168.1,135.93,168.68Z" transform="translate(-91.49 -103.65)" fill="#25c7d9"/><path d="M134,169.29a1,1,0,0,1-.65,1.16c-.43.06-.84-.35-.91-.93a1,1,0,0,1,.65-1.16C133.53,168.3,133.94,168.71,134,169.29Z" transform="translate(-91.49 -103.65)" fill="#25c7d9"/><path d="M131.91,169.13a1,1,0,0,1-.65,1.16c-.43.06-.84-.35-.91-.93a1,1,0,0,1,.65-1.16C131.43,168.14,131.84,168.55,131.91,169.13Z" transform="translate(-91.49 -103.65)" fill="#25c7d9"/><path d="M134.53,171.34a1,1,0,0,1-.65,1.16c-.43.06-.84-.35-.91-.93a1,1,0,0,1,.65-1.16C134,170.35,134.46,170.76,134.53,171.34Z" transform="translate(-91.49 -103.65)" fill="#25c7d9"/><path d="M132.52,171.3a1,1,0,0,1-.65,1.16c-.43.06-.84-.35-.91-.93a1,1,0,0,1,.65-1.16C132,170.31,132.45,170.73,132.52,171.3Z" transform="translate(-91.49 -103.65)" fill="#25c7d9"/><path d="M130.13,170.59a1,1,0,0,1-.65,1.16c-.43.06-.84-.35-.91-.93a1,1,0,0,1,.65-1.16C129.64,169.6,130.05,170,130.13,170.59Z" transform="translate(-91.49 -103.65)" fill="#25c7d9"/><path d="M133.06,173.35a1,1,0,0,1-.65,1.16c-.43.06-.84-.35-.91-.93a1,1,0,0,1,.65-1.16C132.58,172.35,133,172.77,133.06,173.35Z" transform="translate(-91.49 -103.65)" fill="#25c7d9"/><path d="M131.05,172.91a1,1,0,0,1-.65,1.16c-.43.06-.84-.35-.91-.93a1,1,0,0,1,.65-1.16C130.57,171.92,131,172.34,131.05,172.91Z" transform="translate(-91.49 -103.65)" fill="#25c7d9"/><path d="M129.31,173.16a1,1,0,0,1-.65,1.16c-.43.06-.84-.35-.91-.93a1,1,0,0,1,.65-1.16C128.83,172.17,129.24,172.59,129.31,173.16Z" transform="translate(-91.49 -103.65)" fill="#25c7d9"/><path d="M131.68,176.11a.66.66,0,0,1-1.12,0,1.3,1.3,0,0,1,0-1.48.66.66,0,0,1,1.12,0A1.3,1.3,0,0,1,131.68,176.11Z" transform="translate(-91.49 -103.65)" fill="#25c7d9"/><path d="M130.12,175.17a1,1,0,0,1-.65,1.16c-.43.06-.84-.35-.91-.93a1,1,0,0,1,.65-1.16C129.64,174.18,130,174.59,130.12,175.17Z" transform="translate(-91.49 -103.65)" fill="#25c7d9"/><path d="M128.81,176.72a1,1,0,0,1-.65,1.16c-.43.06-.84-.35-.91-.93a1,1,0,0,1,.65-1.16C128.32,175.73,128.73,176.14,128.81,176.72Z" transform="translate(-91.49 -103.65)" fill="#25c7d9"/><path d="M130.93,177a1.06,1.06,0,0,1-.52,1.27c-.42.14-.86-.21-1-.77a1.06,1.06,0,0,1,.52-1.27C130.36,176.08,130.8,176.42,130.93,177Z" transform="translate(-91.49 -103.65)" fill="#25c7d9"/><path d="M129.75,178.31a1.2,1.2,0,0,1-.29,1.41c-.38.26-.86.05-1.08-.46a1.2,1.2,0,0,1,.29-1.41C129,177.59,129.53,177.8,129.75,178.31Z" transform="translate(-91.49 -103.65)" fill="#25c7d9"/><path d="M127.43,177.76a1.07,1.07,0,0,1,.39,1.18c-.13.45-.52.65-.87.45a1.07,1.07,0,0,1-.39-1.18C126.69,177.76,127.09,177.56,127.43,177.76Z" transform="translate(-91.49 -103.65)" fill="#25c7d9"/><path d="M128.66,180.52a.84.84,0,0,1-.56,1c-.37.05-.72-.3-.79-.8a.84.84,0,0,1,.56-1C128.24,179.67,128.59,180,128.66,180.52Z" transform="translate(-91.49 -103.65)" fill="#25c7d9"/><path d="M126.76,182.88a1.05,1.05,0,0,1-.77-1.13c0-.58.37-1,.81-1a1.05,1.05,0,0,1,.77,1.13C127.56,182.5,127.19,182.93,126.76,182.88Z" transform="translate(-91.49 -103.65)" fill="#25c7d9"/><path d="M126.63,180.48a.53.53,0,0,1-.39-.57c0-.29.19-.5.4-.48a.53.53,0,0,1,.39.57C127,180.29,126.84,180.51,126.63,180.48Z" transform="translate(-91.49 -103.65)" fill="#25c7d9"/><path d="M127.94,175.48a.53.53,0,0,1-.39-.57c0-.29.19-.5.4-.48a.53.53,0,0,1,.39.57C128.34,175.29,128.16,175.5,127.94,175.48Z" transform="translate(-91.49 -103.65)" fill="#25c7d9"/><path d="M129.45,169a.53.53,0,0,1-.39-.57c0-.29.19-.5.4-.48a.53.53,0,0,1,.39.57C129.85,168.76,129.67,169,129.45,169Z" transform="translate(-91.49 -103.65)" fill="#25c7d9"/><path d="M130.54,165.23a.53.53,0,0,1-.39-.57c0-.29.19-.5.4-.48a.53.53,0,0,1,.39.57C130.94,165,130.76,165.26,130.54,165.23Z" transform="translate(-91.49 -103.65)" fill="#25c7d9"/><path d="M131.42,162a.53.53,0,0,1-.39-.57c0-.29.19-.5.4-.48a.53.53,0,0,1,.39.57C131.82,161.81,131.64,162,131.42,162Z" transform="translate(-91.49 -103.65)" fill="#25c7d9"/><path d="M133.35,155.18a.53.53,0,0,1-.39-.57c0-.29.19-.5.4-.48a.53.53,0,0,1,.39.57C133.75,155,133.56,155.2,133.35,155.18Z" transform="translate(-91.49 -103.65)" fill="#25c7d9"/><path d="M134.84,148c.06-.27.28-.42.49-.32a.61.61,0,0,1,.27.67c-.06.27-.28.42-.49.32A.61.61,0,0,1,134.84,148Z" transform="translate(-91.49 -103.65)" fill="#25c7d9"/><path d="M136,144c.06-.27.28-.42.49-.32a.61.61,0,0,1,.27.67c-.06.27-.28.42-.49.32A.61.61,0,0,1,136,144Z" transform="translate(-91.49 -103.65)" fill="#25c7d9"/><path d="M134.39,151.53A.53.53,0,0,1,134,151c0-.29.19-.5.4-.48a.53.53,0,0,1,.39.57C134.79,151.34,134.61,151.55,134.39,151.53Z" transform="translate(-91.49 -103.65)" fill="#25c7d9"/><path d="M132.36,158.46a.53.53,0,0,1-.39-.57c0-.29.19-.5.4-.48a.53.53,0,0,1,.39.57C132.76,158.27,132.58,158.49,132.36,158.46Z" transform="translate(-91.49 -103.65)" fill="#25c7d9"/><path d="M126.42,184.42a.66.66,0,0,1-1.12,0,1.3,1.3,0,0,1,0-1.48.66.66,0,0,1,1.12,0A1.3,1.3,0,0,1,126.42,184.42Z" transform="translate(-91.49 -103.65)" fill="#25c7d9"/><path d="M99.13,146.08c.25.19-9.37,8-7.37,13.47,2.76,7.54,26,6.71,41,2.87A83.57,83.57,0,0,0,145,158.21a86.53,86.53,0,0,0,9.58-4.92,102.77,102.77,0,0,0,9.77-6.67c2.75-2.06,4.73-3.71,5.24-4.14,3.92-3.28,6.66-6,7.56-6.91a57.77,57.77,0,0,0,5.39-5.86c2.38-3.11,7.05-9.24,5.53-12.73s-9.32-4.57-18.86-2.16a24.06,24.06,0,0,1,11.74.08c2.23.63,3.83,1.1,4.56,2.48,1.48,2.79-1.8,7.2-4,10.21a41.25,41.25,0,0,1-4.47,5,108.66,108.66,0,0,1-10.12,8.83c-4.29,3.44-6.87,5.2-8.17,6.08-1,.69-2.12,1.39-3.32,2.13A98.4,98.4,0,0,1,141,156.86a80,80,0,0,1-7.54,2.69,83.61,83.61,0,0,1-15.49,3c-3.78.37-6.49.4-7.41.4a64.36,64.36,0,0,1-11.77-1.39c-2-.42-3.14-.82-4.13-1.8a6.45,6.45,0,0,1-1.31-2C91.72,153.55,98.89,145.9,99.13,146.08Z" transform="translate(-91.49 -103.65)" fill="#f2d338"/><path d="M184.63,135.39a14,14,0,0,1,1.16-5.67,14.85,14.85,0,0,1,7.78-7.78,14.05,14.05,0,0,1,5.67-1.16H221.6v9.75H199.24a4.82,4.82,0,0,0-4.86,4.86,5,5,0,0,0,.37,1.92,4.77,4.77,0,0,0,2.58,2.6,4.83,4.83,0,0,0,1.9.37H209a14.35,14.35,0,0,1,5.69,1.14,14.54,14.54,0,0,1,7.78,7.78,14.76,14.76,0,0,1,0,11.37,14.7,14.7,0,0,1-3.13,4.64,14.86,14.86,0,0,1-4.65,3.14A14.16,14.16,0,0,1,209,169.5H187.35v-9.75H209a4.86,4.86,0,1,0,0-9.72h-9.75a14,14,0,0,1-5.67-1.16,14.79,14.79,0,0,1-7.78-7.8A14.16,14.16,0,0,1,184.63,135.39Z" transform="translate(-91.49 -103.65)" fill="#041066"/><path d="M246.64,169.5a15.79,15.79,0,0,1-6.32-1.27,16.44,16.44,0,0,1-8.68-8.68,15.8,15.8,0,0,1-1.27-6.32v-10.8h-4.52v-9.24h4.52V118.64h9.24v14.54h14.07v9.24H239.61v10.8a6.9,6.9,0,0,0,.54,2.74,7,7,0,0,0,1.5,2.23,7.15,7.15,0,0,0,2.24,1.51,6.83,6.83,0,0,0,2.75.56h7v9.24Z" transform="translate(-91.49 -103.65)" fill="#041066"/><path d="M294,151a19.6,19.6,0,0,1-1.46,7.59,19,19,0,0,1-4,6.08,18.6,18.6,0,0,1-5.89,4,18.45,18.45,0,0,1-14.47,0,18.62,18.62,0,0,1-9.9-10.12,19.59,19.59,0,0,1-1.46-7.59,19.89,19.89,0,0,1,1.46-7.68,18.79,18.79,0,0,1,4-6.1,18.55,18.55,0,0,1,5.91-4,18,18,0,0,1,7.22-1.46,19.05,19.05,0,0,1,7.25,1.38A17.53,17.53,0,0,1,288.6,137a18.53,18.53,0,0,1,4,6.08A20.58,20.58,0,0,1,294,151Zm-9.34,0a10.8,10.8,0,0,0-.73-4.06,9.67,9.67,0,0,0-2-3.13,8.61,8.61,0,0,0-2.94-2,9.56,9.56,0,0,0-7.17,0,8.42,8.42,0,0,0-2.92,2,9.58,9.58,0,0,0-2,3.13,11,11,0,0,0-.71,4.06,10.51,10.51,0,0,0,.71,3.91,9.8,9.8,0,0,0,2,3.13,9.14,9.14,0,0,0,2.92,2.09,8.56,8.56,0,0,0,3.58.76,9.09,9.09,0,0,0,3.58-.71,8.92,8.92,0,0,0,2.94-2,9.41,9.41,0,0,0,2-3.13A10.83,10.83,0,0,0,284.69,151Z" transform="translate(-91.49 -103.65)" fill="#041066"/><path d="M308.44,169.5h-9.28V133.11h2.24l3.06,4.32a16.39,16.39,0,0,1,11-4.25h8.19v9.24h-8.19a7,7,0,0,0-2.75.54,6.87,6.87,0,0,0-3.74,3.74,7,7,0,0,0-.54,2.75Z" transform="translate(-91.49 -103.65)" fill="#041066"/><path d="M374.26,169.5H365V146.4a4.64,4.64,0,0,0-4.65-4.66,4.48,4.48,0,0,0-3.25,1.36,4.79,4.79,0,0,0-1,1.5,4.61,4.61,0,0,0-.36,1.8v23.1H346.5V146.4a4.64,4.64,0,0,0-4.65-4.66,4.48,4.48,0,0,0-3.25,1.36,4.79,4.79,0,0,0-1,1.5,4.61,4.61,0,0,0-.36,1.8v23.1H328V133.11h2.24l2.51,2.79a15,15,0,0,1,4.26-2.53,13.31,13.31,0,0,1,4.84-.9,13.55,13.55,0,0,1,5,1,10.08,10.08,0,0,1,4.26,3.3,9.42,9.42,0,0,1,1.94-2,10.82,10.82,0,0,1,2.29-1.33,11.29,11.29,0,0,1,2.5-.73,15.18,15.18,0,0,1,2.55-.22,13.59,13.59,0,0,1,5.42,1.09,13.85,13.85,0,0,1,7.39,7.41,13.71,13.71,0,0,1,1.09,5.44Z" transform="translate(-91.49 -103.65)" fill="#041066"/><path d="M412.82,140.35,406,147.18a9.22,9.22,0,0,0-1.39-2.57,9.39,9.39,0,0,0-2-1.92,8.6,8.6,0,0,0-2.4-1.19,8.76,8.76,0,0,0-2.65-.41,8.39,8.39,0,0,0-3.58.78,8.77,8.77,0,0,0-2.92,2.19,10.5,10.5,0,0,0-2,3.35,12.3,12.3,0,0,0-.71,4.28,9,9,0,0,0,.71,3.57,9.36,9.36,0,0,0,2,2.92,9,9,0,0,0,2.92,2,9.35,9.35,0,0,0,6.2.34,9.44,9.44,0,0,0,2.36-1.07,8.75,8.75,0,0,0,2-1.7A8.91,8.91,0,0,0,406,155.5l6.8,6.83a18.29,18.29,0,0,1-3,3.3,18.79,18.79,0,0,1-3.63,2.48,18.27,18.27,0,0,1-4.11,1.55,18.67,18.67,0,0,1-4.43.53,18.18,18.18,0,0,1-7.22-1.44,18.62,18.62,0,0,1-9.9-9.84,17.88,17.88,0,0,1-1.46-7.2,20.76,20.76,0,0,1,1.46-7.82,20.15,20.15,0,0,1,4-6.34,18.89,18.89,0,0,1,5.91-4.26,17,17,0,0,1,7.22-1.56,17.47,17.47,0,0,1,4.47.58,18,18,0,0,1,7.85,4.38A16.82,16.82,0,0,1,412.82,140.35Z" transform="translate(-91.49 -103.65)" fill="#ff6f0f"/><path d="M431.27,160.6a5.18,5.18,0,0,0,1.09.22c.36,0,.73.05,1.09.05a9.14,9.14,0,0,0,2.62-.37,9.44,9.44,0,0,0,2.36-1.07,8.8,8.8,0,0,0,2-1.7,9,9,0,0,0,1.41-2.23l6.79,6.83a18.29,18.29,0,0,1-3,3.3,18.77,18.77,0,0,1-3.64,2.48,18.23,18.23,0,0,1-4.11,1.55,18.65,18.65,0,0,1-4.43.53,18.37,18.37,0,0,1-13.13-5.4,18.65,18.65,0,0,1-4-6.07,20,20,0,0,1-1.46-7.73,20.62,20.62,0,0,1,1.46-7.88,17.81,17.81,0,0,1,9.9-10,18.76,18.76,0,0,1,7.22-1.39,18.34,18.34,0,0,1,4.45.54,18.64,18.64,0,0,1,7.78,4.06,18.48,18.48,0,0,1,3,3.31ZM436,141.47a5.39,5.39,0,0,0-1.27-.31,12.26,12.26,0,0,0-1.31-.07,9.27,9.27,0,0,0-3.58.7,8.52,8.52,0,0,0-2.92,2,9.39,9.39,0,0,0-2,3.11,11.13,11.13,0,0,0-.71,4.09q0,.51.05,1.16a13.14,13.14,0,0,0,.17,1.31q.12.66.29,1.27a4.68,4.68,0,0,0,.44,1.09Z" transform="translate(-91.49 -103.65)" fill="#ff6f0f"/><path d="M462.67,169.5h-9.34V118.64h9.34Z" transform="translate(-91.49 -103.65)" fill="#ff6f0f"/><path d="M479.08,169.5h-9.34V118.64h9.34Z" transform="translate(-91.49 -103.65)" fill="#ff6f0f"/></svg>