<svg xmlns="http://www.w3.org/2000/svg" xmlns:xlink="http://www.w3.org/1999/xlink" width="103.39mm" height="18.89mm" viewBox="0 0 293.09 53.55"><defs><linearGradient id="a" x1="68.28" y1="31.77" x2="109.09" y2="31.77" gradientUnits="userSpaceOnUse"><stop offset="0" stop-color="#f2762e"/><stop offset="1" stop-color="#248ea6"/></linearGradient><linearGradient id="b" x1="69.28" y1="32.03" x2="107.54" y2="32.03" gradientUnits="userSpaceOnUse"><stop offset="0" stop-color="#030540"/><stop offset="1" stop-color="#2a329b"/></linearGradient></defs><title>stormcell-logo-vect</title><path d="M136.1,91.74a14,14,0,0,1,1.16-5.67A14.85,14.85,0,0,1,145,78.29a14.05,14.05,0,0,1,5.67-1.16h22.36v9.75H150.71a4.82,4.82,0,0,0-4.86,4.86,5,5,0,0,0,.37,1.92,4.77,4.77,0,0,0,2.58,2.6,4.83,4.83,0,0,0,1.9.37h9.75a14.35,14.35,0,0,1,5.69,1.14,14.54,14.54,0,0,1,7.78,7.78,14.76,14.76,0,0,1,0,11.37,14.7,14.7,0,0,1-3.13,4.64,14.86,14.86,0,0,1-4.65,3.14,14.16,14.16,0,0,1-5.69,1.16H138.82V116.1h21.64a4.86,4.86,0,1,0,0-9.72h-9.75a14,14,0,0,1-5.67-1.16,14.79,14.79,0,0,1-7.78-7.8A14.16,14.16,0,0,1,136.1,91.74Z" transform="translate(-136.1 -74.99)" fill="#041066"/><path d="M198.11,125.86a15.79,15.79,0,0,1-6.32-1.27,16.44,16.44,0,0,1-8.68-8.68,15.8,15.8,0,0,1-1.27-6.32V98.78h-4.52V89.53h4.52V75h9.24V89.53h14.07v9.24H191.08v10.8a6.9,6.9,0,0,0,.54,2.74,7,7,0,0,0,1.5,2.23,7.15,7.15,0,0,0,2.24,1.51,6.83,6.83,0,0,0,2.75.56h7v9.24Z" transform="translate(-136.1 -74.99)" fill="#041066"/><path d="M258.56,125.86h-9.28V89.47h2.24l3.06,4.32a16.39,16.39,0,0,1,11-4.25h8.19v9.24h-8.19a7,7,0,0,0-2.75.54,6.87,6.87,0,0,0-3.74,3.74,7,7,0,0,0-.54,2.75Z" transform="translate(-136.1 -74.99)" fill="#041066"/><path d="M324.37,125.86h-9.24v-23.1a4.64,4.64,0,0,0-4.65-4.66,4.48,4.48,0,0,0-3.25,1.36,4.79,4.79,0,0,0-1,1.5,4.61,4.61,0,0,0-.36,1.8v23.1h-9.28v-23.1A4.64,4.64,0,0,0,292,98.1a4.48,4.48,0,0,0-3.25,1.36,4.79,4.79,0,0,0-1,1.5,4.61,4.61,0,0,0-.36,1.8v23.1h-9.28V89.47h2.24l2.51,2.79a15,15,0,0,1,4.26-2.53,13.31,13.31,0,0,1,4.84-.9,13.55,13.55,0,0,1,5,1,10.08,10.08,0,0,1,4.26,3.3,9.42,9.42,0,0,1,1.94-2,10.82,10.82,0,0,1,2.29-1.33,11.29,11.29,0,0,1,2.5-.73,15.18,15.18,0,0,1,2.55-.22,13.59,13.59,0,0,1,5.42,1.09,13.85,13.85,0,0,1,7.39,7.41,13.71,13.71,0,0,1,1.09,5.44Z" transform="translate(-136.1 -74.99)" fill="#041066"/><path d="M362.93,96.7l-6.79,6.83a9.22,9.22,0,0,0-1.39-2.57,9.39,9.39,0,0,0-2-1.92,8.6,8.6,0,0,0-2.4-1.19,8.76,8.76,0,0,0-2.65-.41,8.39,8.39,0,0,0-3.58.78,8.77,8.77,0,0,0-2.92,2.19,10.5,10.5,0,0,0-2,3.35,12.3,12.3,0,0,0-.71,4.28,9,9,0,0,0,.71,3.57,9.36,9.36,0,0,0,2,2.92,9,9,0,0,0,2.92,2,9.35,9.35,0,0,0,6.2.34,9.44,9.44,0,0,0,2.36-1.07,8.75,8.75,0,0,0,2-1.7,8.91,8.91,0,0,0,1.41-2.23l6.8,6.83a18.29,18.29,0,0,1-3,3.3,18.79,18.79,0,0,1-3.63,2.48,18.27,18.27,0,0,1-4.11,1.55,18.67,18.67,0,0,1-4.43.53,18.18,18.18,0,0,1-7.22-1.44,18.62,18.62,0,0,1-9.9-9.84,17.88,17.88,0,0,1-1.46-7.2,20.76,20.76,0,0,1,1.46-7.82,20.15,20.15,0,0,1,4-6.34,18.89,18.89,0,0,1,5.91-4.26,17,17,0,0,1,7.22-1.56,17.47,17.47,0,0,1,4.47.58A18,18,0,0,1,360,93,16.82,16.82,0,0,1,362.93,96.7Z" transform="translate(-136.1 -74.99)" fill="#ff6f0f"/><path d="M381.38,117a5.18,5.18,0,0,0,1.09.22c.36,0,.73.05,1.09.05a9.14,9.14,0,0,0,2.62-.37,9.44,9.44,0,0,0,2.36-1.07,8.8,8.8,0,0,0,2-1.7,9,9,0,0,0,1.41-2.23l6.79,6.83a18.29,18.29,0,0,1-3,3.3,18.77,18.77,0,0,1-3.64,2.48A18.23,18.23,0,0,1,388,126a18.65,18.65,0,0,1-4.43.53,18.37,18.37,0,0,1-13.13-5.4,18.65,18.65,0,0,1-4-6.07,20,20,0,0,1-1.46-7.73,20.62,20.62,0,0,1,1.46-7.88,17.81,17.81,0,0,1,9.9-10,18.76,18.76,0,0,1,7.22-1.39,18.34,18.34,0,0,1,4.45.54,18.64,18.64,0,0,1,7.78,4.06,18.48,18.48,0,0,1,3,3.31Zm4.76-19.13a5.39,5.39,0,0,0-1.27-.31,12.26,12.26,0,0,0-1.31-.07,9.27,9.27,0,0,0-3.58.7,8.52,8.52,0,0,0-2.92,2,9.39,9.39,0,0,0-2,3.11,11.13,11.13,0,0,0-.71,4.09q0,.51.05,1.16a13.14,13.14,0,0,0,.17,1.31q.12.66.29,1.27a4.68,4.68,0,0,0,.44,1.09Z" transform="translate(-136.1 -74.99)" fill="#ff6f0f"/><path d="M412.78,125.86h-9.34V75h9.34Z" transform="translate(-136.1 -74.99)" fill="#ff6f0f"/><path d="M429.19,125.86h-9.34V75h9.34Z" transform="translate(-136.1 -74.99)" fill="#ff6f0f"/><circle cx="88.69" cy="31.77" r="20.41" fill="url(#a)"/><circle cx="88.41" cy="32.03" r="19.13" fill="url(#b)"/><path d="M224.1,94.87a.51.51,0,0,1-.34.6c-.22,0-.44-.18-.47-.48a.51.51,0,0,1,.34-.6C223.84,94.35,224.06,94.57,224.1,94.87Z" transform="translate(-136.1 -74.99)"/><path d="M225,94.73a.51.51,0,0,1-.34.6c-.22,0-.44-.18-.47-.48a.51.51,0,0,1,.34-.6C224.8,94.21,225,94.43,225,94.73Z" transform="translate(-136.1 -74.99)"/><path d="M226,94.58a.51.51,0,0,1-.34.6c-.22,0-.44-.18-.47-.48a.51.51,0,0,1,.34-.6C225.8,94.06,226,94.28,226,94.58Z" transform="translate(-136.1 -74.99)"/><path d="M227.06,94.43a.51.51,0,0,1-.34.6c-.22,0-.44-.18-.47-.48a.51.51,0,0,1,.34-.6C226.81,93.91,227,94.13,227.06,94.43Z" transform="translate(-136.1 -74.99)"/><path d="M228,94.29a.51.51,0,0,1-.34.6c-.22,0-.44-.18-.47-.48a.51.51,0,0,1,.34-.6C227.79,93.77,228,94,228,94.29Z" transform="translate(-136.1 -74.99)"/><path d="M229,94.14a.51.51,0,0,1-.34.6c-.22,0-.44-.18-.47-.48a.51.51,0,0,1,.34-.6C228.77,93.63,229,93.84,229,94.14Z" transform="translate(-136.1 -74.99)"/><path d="M232.07,93.69a.51.51,0,0,1-.34.6c-.22,0-.44-.18-.47-.48a.51.51,0,0,1,.34-.6C231.82,93.18,232,93.39,232.07,93.69Z" transform="translate(-136.1 -74.99)"/><path d="M231.11,93.83a.51.51,0,0,1-.34.6c-.22,0-.44-.18-.47-.48a.51.51,0,0,1,.34-.6C230.86,93.32,231.07,93.54,231.11,93.83Z" transform="translate(-136.1 -74.99)"/><path d="M230.08,94a.51.51,0,0,1-.34.6c-.22,0-.44-.18-.47-.48a.51.51,0,0,1,.34-.6C229.83,93.47,230,93.69,230.08,94Z" transform="translate(-136.1 -74.99)"/><path d="M223.58,96.28a.51.51,0,0,1-.34.6c-.22,0-.44-.18-.47-.48a.51.51,0,0,1,.34-.6C223.33,95.76,223.54,96,223.58,96.28Z" transform="translate(-136.1 -74.99)"/><path d="M224.53,96.14a.51.51,0,0,1-.34.6c-.22,0-.44-.18-.47-.48a.51.51,0,0,1,.34-.6C224.28,95.62,224.49,95.84,224.53,96.14Z" transform="translate(-136.1 -74.99)"/><path d="M225.53,96a.51.51,0,0,1-.34.6c-.22,0-.44-.18-.47-.48a.51.51,0,0,1,.34-.6C225.28,95.47,225.49,95.69,225.53,96Z" transform="translate(-136.1 -74.99)"/><path d="M226.54,95.84a.51.51,0,0,1-.34.6c-.22,0-.44-.18-.47-.48a.51.51,0,0,1,.34-.6C226.29,95.33,226.5,95.54,226.54,95.84Z" transform="translate(-136.1 -74.99)"/><path d="M227.52,95.7a.51.51,0,0,1-.34.6c-.22,0-.44-.18-.47-.48a.51.51,0,0,1,.34-.6C227.27,95.18,227.49,95.4,227.52,95.7Z" transform="translate(-136.1 -74.99)"/><path d="M228.5,95.55a.51.51,0,0,1-.34.6c-.22,0-.44-.18-.47-.48a.51.51,0,0,1,.34-.6C228.25,95,228.47,95.25,228.5,95.55Z" transform="translate(-136.1 -74.99)"/><path d="M231.55,95.1a.51.51,0,0,1-.34.6c-.22,0-.44-.18-.47-.48a.51.51,0,0,1,.34-.6C231.3,94.59,231.51,94.8,231.55,95.1Z" transform="translate(-136.1 -74.99)"/><path d="M230.59,95.25a.51.51,0,0,1-.34.6c-.22,0-.44-.18-.47-.48a.51.51,0,0,1,.34-.6C230.34,94.73,230.55,94.95,230.59,95.25Z" transform="translate(-136.1 -74.99)"/><path d="M229.56,95.4a.51.51,0,0,1-.34.6c-.22,0-.44-.18-.47-.48a.51.51,0,0,1,.34-.6C229.31,94.88,229.53,95.1,229.56,95.4Z" transform="translate(-136.1 -74.99)"/><path d="M223,97.7a.51.51,0,0,1-.34.6c-.22,0-.44-.18-.47-.48a.51.51,0,0,1,.34-.6C222.75,97.18,223,97.4,223,97.7Z" transform="translate(-136.1 -74.99)"/><path d="M224,97.56a.51.51,0,0,1-.34.6c-.22,0-.44-.18-.47-.48a.51.51,0,0,1,.34-.6C223.7,97,223.91,97.26,224,97.56Z" transform="translate(-136.1 -74.99)"/><path d="M225,97.41a.51.51,0,0,1-.34.6c-.22,0-.44-.18-.47-.48a.51.51,0,0,1,.34-.6C224.7,96.89,224.91,97.11,225,97.41Z" transform="translate(-136.1 -74.99)"/><path d="M226,97.26a.51.51,0,0,1-.34.6c-.22,0-.44-.18-.47-.48a.51.51,0,0,1,.34-.6C225.72,96.74,225.93,97,226,97.26Z" transform="translate(-136.1 -74.99)"/><path d="M226.95,97.12a.51.51,0,0,1-.34.6c-.22,0-.44-.18-.47-.48a.51.51,0,0,1,.34-.6C226.7,96.6,226.91,96.82,226.95,97.12Z" transform="translate(-136.1 -74.99)"/><path d="M227.93,97a.51.51,0,0,1-.34.6c-.22,0-.44-.18-.47-.48a.51.51,0,0,1,.34-.6C227.68,96.46,227.89,96.67,227.93,97Z" transform="translate(-136.1 -74.99)"/><path d="M231,96.52a.51.51,0,0,1-.34.6c-.22,0-.44-.18-.47-.48a.51.51,0,0,1,.34-.6C230.73,96,230.94,96.22,231,96.52Z" transform="translate(-136.1 -74.99)"/><path d="M230,96.66a.51.51,0,0,1-.34.6c-.22,0-.44-.18-.47-.48a.51.51,0,0,1,.34-.6C229.77,96.15,230,96.36,230,96.66Z" transform="translate(-136.1 -74.99)"/><path d="M229,96.82a.51.51,0,0,1-.34.6c-.22,0-.44-.18-.47-.48a.51.51,0,0,1,.34-.6C228.74,96.3,229,96.52,229,96.82Z" transform="translate(-136.1 -74.99)"/><path d="M222.43,99.11a.51.51,0,0,1-.34.6c-.22,0-.44-.18-.47-.48a.51.51,0,0,1,.34-.6C222.17,98.6,222.39,98.82,222.43,99.11Z" transform="translate(-136.1 -74.99)"/><path d="M223.38,99a.51.51,0,0,1-.34.6c-.22,0-.44-.18-.47-.48a.51.51,0,0,1,.34-.6C223.13,98.46,223.34,98.68,223.38,99Z" transform="translate(-136.1 -74.99)"/><path d="M224.38,98.83a.51.51,0,0,1-.34.6c-.22,0-.44-.18-.47-.48a.51.51,0,0,1,.34-.6C224.13,98.31,224.34,98.53,224.38,98.83Z" transform="translate(-136.1 -74.99)"/><path d="M225.39,98.68a.51.51,0,0,1-.34.6c-.22,0-.44-.18-.47-.48a.51.51,0,0,1,.34-.6C225.14,98.16,225.35,98.38,225.39,98.68Z" transform="translate(-136.1 -74.99)"/><path d="M226.37,98.53a.51.51,0,0,1-.34.6c-.22,0-.44-.18-.47-.48a.51.51,0,0,1,.34-.6C226.12,98,226.34,98.23,226.37,98.53Z" transform="translate(-136.1 -74.99)"/><path d="M227.35,98.39a.51.51,0,0,1-.34.6c-.22,0-.44-.18-.47-.48a.51.51,0,0,1,.34-.6C227.1,97.87,227.32,98.09,227.35,98.39Z" transform="translate(-136.1 -74.99)"/><path d="M230.4,97.94a.51.51,0,0,1-.34.6c-.22,0-.44-.18-.47-.48a.51.51,0,0,1,.34-.6C230.15,97.43,230.36,97.64,230.4,97.94Z" transform="translate(-136.1 -74.99)"/><path d="M229.44,98.08a.51.51,0,0,1-.34.6c-.22,0-.44-.18-.47-.48a.51.51,0,0,1,.34-.6C229.19,97.57,229.4,97.78,229.44,98.08Z" transform="translate(-136.1 -74.99)"/><path d="M228.41,98.23a.51.51,0,0,1-.34.6c-.22,0-.44-.18-.47-.48a.51.51,0,0,1,.34-.6C228.16,97.72,228.38,97.93,228.41,98.23Z" transform="translate(-136.1 -74.99)"/><path d="M221.85,100.53a.51.51,0,0,1-.34.6c-.22,0-.44-.18-.47-.48a.51.51,0,0,1,.34-.6C221.6,100,221.81,100.23,221.85,100.53Z" transform="translate(-136.1 -74.99)"/><path d="M222.8,100.39a.51.51,0,0,1-.34.6c-.22,0-.44-.18-.47-.48a.51.51,0,0,1,.34-.6C222.55,99.88,222.76,100.09,222.8,100.39Z" transform="translate(-136.1 -74.99)"/><path d="M223.8,100.25a.51.51,0,0,1-.34.6c-.22,0-.44-.18-.47-.48a.51.51,0,0,1,.34-.6C223.55,99.73,223.76,99.95,223.8,100.25Z" transform="translate(-136.1 -74.99)"/><path d="M224.82,100.1a.51.51,0,0,1-.34.6c-.22,0-.44-.18-.47-.48a.51.51,0,0,1,.34-.6C224.57,99.58,224.78,99.8,224.82,100.1Z" transform="translate(-136.1 -74.99)"/><path d="M225.8,100a.51.51,0,0,1-.34.6c-.22,0-.44-.18-.47-.48a.51.51,0,0,1,.34-.6C225.55,99.44,225.76,99.65,225.8,100Z" transform="translate(-136.1 -74.99)"/><path d="M226.78,99.81a.51.51,0,0,1-.34.6c-.22,0-.44-.18-.47-.48a.51.51,0,0,1,.34-.6C226.53,99.29,226.74,99.51,226.78,99.81Z" transform="translate(-136.1 -74.99)"/><path d="M229.83,99.36a.51.51,0,0,1-.34.6c-.22,0-.44-.18-.47-.48a.51.51,0,0,1,.34-.6C229.58,98.84,229.79,99.06,229.83,99.36Z" transform="translate(-136.1 -74.99)"/><path d="M228.87,99.5a.51.51,0,0,1-.34.6c-.22,0-.44-.18-.47-.48a.51.51,0,0,1,.34-.6C228.62,99,228.83,99.2,228.87,99.5Z" transform="translate(-136.1 -74.99)"/><path d="M227.84,99.65a.51.51,0,0,1-.34.6c-.22,0-.44-.18-.47-.48a.51.51,0,0,1,.34-.6C227.59,99.14,227.8,99.35,227.84,99.65Z" transform="translate(-136.1 -74.99)"/><path d="M221.28,102a.51.51,0,0,1-.34.6c-.22,0-.44-.18-.47-.48a.51.51,0,0,1,.34-.6C221,101.44,221.24,101.65,221.28,102Z" transform="translate(-136.1 -74.99)"/><path d="M222.23,101.81a.51.51,0,0,1-.34.6c-.22,0-.44-.18-.47-.48a.51.51,0,0,1,.34-.6C222,101.3,222.19,101.51,222.23,101.81Z" transform="translate(-136.1 -74.99)"/><path d="M223.23,101.67a.51.51,0,0,1-.34.6c-.22,0-.44-.18-.47-.48a.51.51,0,0,1,.34-.6C223,101.15,223.19,101.37,223.23,101.67Z" transform="translate(-136.1 -74.99)"/><path d="M224.24,101.52a.51.51,0,0,1-.34.6c-.22,0-.44-.18-.47-.48a.51.51,0,0,1,.34-.6C224,101,224.2,101.22,224.24,101.52Z" transform="translate(-136.1 -74.99)"/><path d="M225.22,101.37a.51.51,0,0,1-.34.6c-.22,0-.44-.18-.47-.48a.51.51,0,0,1,.34-.6C225,100.86,225.19,101.07,225.22,101.37Z" transform="translate(-136.1 -74.99)"/><path d="M226.2,101.23a.51.51,0,0,1-.34.6c-.22,0-.44-.18-.47-.48a.51.51,0,0,1,.34-.6C226,100.71,226.17,100.93,226.2,101.23Z" transform="translate(-136.1 -74.99)"/><path d="M229.25,100.78a.51.51,0,0,1-.34.6c-.22,0-.44-.18-.47-.48a.51.51,0,0,1,.34-.6C229,100.26,229.21,100.48,229.25,100.78Z" transform="translate(-136.1 -74.99)"/><path d="M228.29,100.92a.51.51,0,0,1-.34.6c-.22,0-.44-.18-.47-.48a.51.51,0,0,1,.34-.6C228,100.4,228.25,100.62,228.29,100.92Z" transform="translate(-136.1 -74.99)"/><path d="M227.26,101.07a.51.51,0,0,1-.34.6c-.22,0-.44-.18-.47-.48a.51.51,0,0,1,.34-.6C227,100.56,227.23,100.77,227.26,101.07Z" transform="translate(-136.1 -74.99)"/><path d="M220.7,103.37a.51.51,0,0,1-.34.6c-.22,0-.44-.18-.47-.48a.51.51,0,0,1,.34-.6C220.45,102.85,220.66,103.07,220.7,103.37Z" transform="translate(-136.1 -74.99)"/><path d="M221.65,103.23a.51.51,0,0,1-.34.6c-.22,0-.44-.18-.47-.48a.51.51,0,0,1,.34-.6C221.4,102.71,221.61,102.93,221.65,103.23Z" transform="translate(-136.1 -74.99)"/><path d="M222.65,103.08a.51.51,0,0,1-.34.6c-.22,0-.44-.18-.47-.48a.51.51,0,0,1,.34-.6C222.4,102.57,222.61,102.78,222.65,103.08Z" transform="translate(-136.1 -74.99)"/><path d="M223.67,102.93a.51.51,0,0,1-.34.6c-.22,0-.44-.18-.47-.48a.51.51,0,0,1,.34-.6C223.42,102.42,223.63,102.63,223.67,102.93Z" transform="translate(-136.1 -74.99)"/><path d="M224.65,102.79a.51.51,0,0,1-.34.6c-.22,0-.44-.18-.47-.48a.51.51,0,0,1,.34-.6C224.4,102.27,224.61,102.49,224.65,102.79Z" transform="translate(-136.1 -74.99)"/><path d="M225.63,102.65a.51.51,0,0,1-.34.6c-.22,0-.44-.18-.47-.48a.51.51,0,0,1,.34-.6C225.38,102.13,225.59,102.35,225.63,102.65Z" transform="translate(-136.1 -74.99)"/><path d="M228.68,102.2a.51.51,0,0,1-.34.6c-.22,0-.44-.18-.47-.48a.51.51,0,0,1,.34-.6C228.43,101.68,228.64,101.9,228.68,102.2Z" transform="translate(-136.1 -74.99)"/><path d="M227.72,102.34a.51.51,0,0,1-.34.6c-.22,0-.44-.18-.47-.48a.51.51,0,0,1,.34-.6C227.47,101.82,227.68,102,227.72,102.34Z" transform="translate(-136.1 -74.99)"/><path d="M226.69,102.49a.51.51,0,0,1-.34.6c-.22,0-.44-.18-.47-.48a.51.51,0,0,1,.34-.6C226.44,102,226.65,102.19,226.69,102.49Z" transform="translate(-136.1 -74.99)"/><path d="M220.13,104.79a.51.51,0,0,1-.34.6c-.22,0-.44-.18-.47-.48a.51.51,0,0,1,.34-.6C219.87,104.27,220.09,104.49,220.13,104.79Z" transform="translate(-136.1 -74.99)"/><path d="M221.08,104.65a.51.51,0,0,1-.34.6c-.22,0-.44-.18-.47-.48a.51.51,0,0,1,.34-.6C220.83,104.13,221,104.35,221.08,104.65Z" transform="translate(-136.1 -74.99)"/><path d="M222.08,104.5a.51.51,0,0,1-.34.6c-.22,0-.44-.18-.47-.48a.51.51,0,0,1,.34-.6C221.83,104,222,104.2,222.08,104.5Z" transform="translate(-136.1 -74.99)"/><path d="M223.09,104.35a.51.51,0,0,1-.34.6c-.22,0-.44-.18-.47-.48a.51.51,0,0,1,.34-.6C222.84,103.84,223.05,104.05,223.09,104.35Z" transform="translate(-136.1 -74.99)"/><path d="M224.07,104.21a.51.51,0,0,1-.34.6c-.22,0-.44-.18-.47-.48a.51.51,0,0,1,.34-.6C223.82,103.69,224,103.91,224.07,104.21Z" transform="translate(-136.1 -74.99)"/><path d="M225.05,104.06a.51.51,0,0,1-.34.6c-.22,0-.44-.18-.47-.48a.51.51,0,0,1,.34-.6C224.8,103.55,225,103.76,225.05,104.06Z" transform="translate(-136.1 -74.99)"/><path d="M228.1,103.62a.51.51,0,0,1-.34.6c-.22,0-.44-.18-.47-.48a.51.51,0,0,1,.34-.6C227.85,103.1,228.06,103.32,228.1,103.62Z" transform="translate(-136.1 -74.99)"/><path d="M227.14,103.76a.51.51,0,0,1-.34.6c-.22,0-.44-.18-.47-.48a.51.51,0,0,1,.34-.6C226.89,103.24,227.1,103.46,227.14,103.76Z" transform="translate(-136.1 -74.99)"/><path d="M226.11,103.91a.51.51,0,0,1-.34.6c-.22,0-.44-.18-.47-.48a.51.51,0,0,1,.34-.6C225.86,103.39,226.08,103.61,226.11,103.91Z" transform="translate(-136.1 -74.99)"/><path d="M219.55,106.21a.51.51,0,0,1-.34.6c-.22,0-.44-.18-.47-.48a.51.51,0,0,1,.34-.6C219.3,105.69,219.51,105.91,219.55,106.21Z" transform="translate(-136.1 -74.99)"/><path d="M220.5,106.07a.51.51,0,0,1-.34.6c-.22,0-.44-.18-.47-.48a.51.51,0,0,1,.34-.6C220.25,105.55,220.46,105.77,220.5,106.07Z" transform="translate(-136.1 -74.99)"/><path d="M221.5,105.92a.51.51,0,0,1-.34.6c-.22,0-.44-.18-.47-.48a.51.51,0,0,1,.34-.6C221.25,105.41,221.46,105.62,221.5,105.92Z" transform="translate(-136.1 -74.99)"/><path d="M222.52,105.77a.51.51,0,0,1-.34.6c-.22,0-.44-.18-.47-.48a.51.51,0,0,1,.34-.6C222.27,105.26,222.48,105.47,222.52,105.77Z" transform="translate(-136.1 -74.99)"/><path d="M223.5,105.63a.51.51,0,0,1-.34.6c-.22,0-.44-.18-.47-.48a.51.51,0,0,1,.34-.6C223.25,105.11,223.46,105.33,223.5,105.63Z" transform="translate(-136.1 -74.99)"/><path d="M224.48,105.48a.51.51,0,0,1-.34.6c-.22,0-.44-.18-.47-.48a.51.51,0,0,1,.34-.6C224.23,105,224.44,105.18,224.48,105.48Z" transform="translate(-136.1 -74.99)"/><path d="M227.53,105a.51.51,0,0,1-.34.6c-.22,0-.44-.18-.47-.48a.51.51,0,0,1,.34-.6C227.28,104.52,227.49,104.74,227.53,105Z" transform="translate(-136.1 -74.99)"/><path d="M226.57,105.18a.51.51,0,0,1-.34.6c-.22,0-.44-.18-.47-.48a.51.51,0,0,1,.34-.6C226.32,104.66,226.53,104.88,226.57,105.18Z" transform="translate(-136.1 -74.99)"/><path d="M225.54,105.33a.51.51,0,0,1-.34.6c-.22,0-.44-.18-.47-.48a.51.51,0,0,1,.34-.6C225.29,104.81,225.5,105,225.54,105.33Z" transform="translate(-136.1 -74.99)"/><path d="M224.6,105.46a.51.51,0,0,1-.34.6c-.22,0-.44-.18-.47-.48a.51.51,0,0,1,.34-.6C224.35,104.95,224.57,105.16,224.6,105.46Z" transform="translate(-136.1 -74.99)"/><path d="M225.56,105.32a.51.51,0,0,1-.34.6c-.22,0-.44-.18-.47-.48a.51.51,0,0,1,.34-.6C225.31,104.81,225.52,105,225.56,105.32Z" transform="translate(-136.1 -74.99)"/><path d="M226.56,105.18a.51.51,0,0,1-.34.6c-.22,0-.44-.18-.47-.48a.51.51,0,0,1,.34-.6C226.3,104.66,226.52,104.88,226.56,105.18Z" transform="translate(-136.1 -74.99)"/><path d="M227.57,105a.51.51,0,0,1-.34.6c-.22,0-.44-.18-.47-.48a.51.51,0,0,1,.34-.6C227.32,104.51,227.53,104.73,227.57,105Z" transform="translate(-136.1 -74.99)"/><path d="M228.55,104.88a.51.51,0,0,1-.34.6c-.22,0-.44-.18-.47-.48a.51.51,0,0,1,.34-.6C228.3,104.37,228.52,104.58,228.55,104.88Z" transform="translate(-136.1 -74.99)"/><path d="M229.53,104.74a.51.51,0,0,1-.34.6c-.22,0-.44-.18-.47-.48a.51.51,0,0,1,.34-.6C229.28,104.22,229.49,104.44,229.53,104.74Z" transform="translate(-136.1 -74.99)"/><path d="M232.58,104.29a.51.51,0,0,1-.34.6c-.22,0-.44-.18-.47-.48a.51.51,0,0,1,.34-.6C232.33,103.78,232.54,104,232.58,104.29Z" transform="translate(-136.1 -74.99)"/><path d="M231.62,104.43a.51.51,0,0,1-.34.6c-.22,0-.44-.18-.47-.48a.51.51,0,0,1,.34-.6C231.37,103.92,231.58,104.13,231.62,104.43Z" transform="translate(-136.1 -74.99)"/><path d="M230.59,104.58a.51.51,0,0,1-.34.6c-.22,0-.44-.18-.47-.48a.51.51,0,0,1,.34-.6C230.34,104.07,230.56,104.28,230.59,104.58Z" transform="translate(-136.1 -74.99)"/><path d="M224.87,106.53a.51.51,0,0,1-.34.6c-.22,0-.44-.18-.47-.48a.51.51,0,0,1,.34-.6C224.61,106,224.83,106.23,224.87,106.53Z" transform="translate(-136.1 -74.99)"/><path d="M225.86,106.38a.51.51,0,0,1-.34.6c-.22,0-.44-.18-.47-.48a.51.51,0,0,1,.34-.6C225.61,105.87,225.83,106.08,225.86,106.38Z" transform="translate(-136.1 -74.99)"/><path d="M226.88,106.24a.51.51,0,0,1-.34.6c-.22,0-.44-.18-.47-.48a.51.51,0,0,1,.34-.6C226.63,105.72,226.84,105.94,226.88,106.24Z" transform="translate(-136.1 -74.99)"/><path d="M227.86,106.09a.51.51,0,0,1-.34.6c-.22,0-.44-.18-.47-.48a.51.51,0,0,1,.34-.6C227.61,105.57,227.82,105.79,227.86,106.09Z" transform="translate(-136.1 -74.99)"/><path d="M228.84,105.95a.51.51,0,0,1-.34.6c-.22,0-.44-.18-.47-.48a.51.51,0,0,1,.34-.6C228.59,105.43,228.8,105.65,228.84,105.95Z" transform="translate(-136.1 -74.99)"/><path d="M231.89,105.5a.51.51,0,0,1-.34.6c-.22,0-.44-.18-.47-.48a.51.51,0,0,1,.34-.6C231.64,105,231.85,105.2,231.89,105.5Z" transform="translate(-136.1 -74.99)"/><path d="M230.93,105.64a.51.51,0,0,1-.34.6c-.22,0-.44-.18-.47-.48a.51.51,0,0,1,.34-.6C230.68,105.12,230.89,105.34,230.93,105.64Z" transform="translate(-136.1 -74.99)"/><path d="M229.9,105.79a.51.51,0,0,1-.34.6c-.22,0-.44-.18-.47-.48a.51.51,0,0,1,.34-.6C229.65,105.27,229.86,105.49,229.9,105.79Z" transform="translate(-136.1 -74.99)"/><path d="M224.2,107.86a.51.51,0,0,1-.34.6c-.22,0-.44-.18-.47-.48a.51.51,0,0,1,.34-.6C223.95,107.35,224.16,107.56,224.2,107.86Z" transform="translate(-136.1 -74.99)"/><path d="M225.17,107.59a.51.51,0,0,1-.34.6c-.22,0-.44-.18-.47-.48a.51.51,0,0,1,.34-.6C224.92,107.08,225.14,107.29,225.17,107.59Z" transform="translate(-136.1 -74.99)"/><path d="M226.19,107.44a.51.51,0,0,1-.34.6c-.22,0-.44-.18-.47-.48a.51.51,0,0,1,.34-.6C225.94,106.93,226.15,107.14,226.19,107.44Z" transform="translate(-136.1 -74.99)"/><path d="M227.17,107.3a.51.51,0,0,1-.34.6c-.22,0-.44-.18-.47-.48a.51.51,0,0,1,.34-.6C226.92,106.78,227.13,107,227.17,107.3Z" transform="translate(-136.1 -74.99)"/><path d="M228.15,107.15a.51.51,0,0,1-.34.6c-.22,0-.44-.18-.47-.48a.51.51,0,0,1,.34-.6C227.9,106.64,228.11,106.85,228.15,107.15Z" transform="translate(-136.1 -74.99)"/><path d="M231.2,106.71a.51.51,0,0,1-.34.6c-.22,0-.44-.18-.47-.48a.51.51,0,0,1,.34-.6C230.95,106.19,231.16,106.41,231.2,106.71Z" transform="translate(-136.1 -74.99)"/><path d="M230.24,106.85a.51.51,0,0,1-.34.6c-.22,0-.44-.18-.47-.48a.51.51,0,0,1,.34-.6C230,106.33,230.2,106.55,230.24,106.85Z" transform="translate(-136.1 -74.99)"/><path d="M229.21,107a.51.51,0,0,1-.34.6c-.22,0-.44-.18-.47-.48a.51.51,0,0,1,.34-.6C229,106.48,229.17,106.7,229.21,107Z" transform="translate(-136.1 -74.99)"/><path d="M224.49,108.8a.51.51,0,0,1-.34.6c-.22,0-.44-.18-.47-.48a.51.51,0,0,1,.34-.6C224.24,108.28,224.45,108.5,224.49,108.8Z" transform="translate(-136.1 -74.99)"/><path d="M225.5,108.65a.51.51,0,0,1-.34.6c-.22,0-.44-.18-.47-.48a.51.51,0,0,1,.34-.6C225.25,108.13,225.46,108.35,225.5,108.65Z" transform="translate(-136.1 -74.99)"/><path d="M226.48,108.5a.51.51,0,0,1-.34.6c-.22,0-.44-.18-.47-.48a.51.51,0,0,1,.34-.6C226.23,108,226.44,108.2,226.48,108.5Z" transform="translate(-136.1 -74.99)"/><path d="M227.46,108.36a.51.51,0,0,1-.34.6c-.22,0-.44-.18-.47-.48a.51.51,0,0,1,.34-.6C227.21,107.84,227.42,108.06,227.46,108.36Z" transform="translate(-136.1 -74.99)"/><path d="M230.51,107.91a.51.51,0,0,1-.34.6c-.22,0-.44-.18-.47-.48a.51.51,0,0,1,.34-.6C230.26,107.4,230.47,107.61,230.51,107.91Z" transform="translate(-136.1 -74.99)"/><path d="M229.55,108.05a.51.51,0,0,1-.34.6c-.22,0-.44-.18-.47-.48a.51.51,0,0,1,.34-.6C229.3,107.54,229.51,107.75,229.55,108.05Z" transform="translate(-136.1 -74.99)"/><path d="M228.52,108.2a.51.51,0,0,1-.34.6c-.22,0-.44-.18-.47-.48a.51.51,0,0,1,.34-.6C228.27,107.69,228.48,107.9,228.52,108.2Z" transform="translate(-136.1 -74.99)"/><path d="M223.79,110a.51.51,0,0,1-.34.6c-.22,0-.44-.18-.47-.48a.51.51,0,0,1,.34-.6C223.54,109.49,223.75,109.71,223.79,110Z" transform="translate(-136.1 -74.99)"/><path d="M224.81,109.86a.51.51,0,0,1-.34.6c-.22,0-.44-.18-.47-.48a.51.51,0,0,1,.34-.6C224.56,109.34,224.77,109.56,224.81,109.86Z" transform="translate(-136.1 -74.99)"/><path d="M225.79,109.71a.51.51,0,0,1-.34.6c-.22,0-.44-.18-.47-.48a.51.51,0,0,1,.34-.6C225.54,109.2,225.75,109.41,225.79,109.71Z" transform="translate(-136.1 -74.99)"/><path d="M226.77,109.57a.51.51,0,0,1-.34.6c-.22,0-.44-.18-.47-.48a.51.51,0,0,1,.34-.6C226.52,109.05,226.73,109.27,226.77,109.57Z" transform="translate(-136.1 -74.99)"/><path d="M229.82,109.12a.51.51,0,0,1-.34.6c-.22,0-.44-.18-.47-.48a.51.51,0,0,1,.34-.6C229.57,108.6,229.78,108.82,229.82,109.12Z" transform="translate(-136.1 -74.99)"/><path d="M228.86,109.26a.51.51,0,0,1-.34.6c-.22,0-.44-.18-.47-.48a.51.51,0,0,1,.34-.6C228.61,108.74,228.82,109,228.86,109.26Z" transform="translate(-136.1 -74.99)"/><path d="M227.83,109.41a.51.51,0,0,1-.34.6c-.22,0-.44-.18-.47-.48a.51.51,0,0,1,.34-.6C227.58,108.9,227.79,109.11,227.83,109.41Z" transform="translate(-136.1 -74.99)"/><path d="M222.33,111.51c0-.3.17-.54.39-.54a.53.53,0,0,1,.43.55c0,.3-.17.54-.39.54A.53.53,0,0,1,222.33,111.51Z" transform="translate(-136.1 -74.99)"/><path d="M222.65,112.39c0-.3.17-.54.39-.54a.53.53,0,0,1,.43.55c0,.3-.17.54-.39.54A.53.53,0,0,1,222.65,112.39Z" transform="translate(-136.1 -74.99)"/><path d="M224.12,111.06a.51.51,0,0,1-.34.6c-.22,0-.44-.18-.47-.48a.51.51,0,0,1,.34-.6C223.87,110.55,224.08,110.76,224.12,111.06Z" transform="translate(-136.1 -74.99)"/><path d="M225.1,110.92a.51.51,0,0,1-.34.6c-.22,0-.44-.18-.47-.48a.51.51,0,0,1,.34-.6C224.85,110.4,225.06,110.62,225.1,110.92Z" transform="translate(-136.1 -74.99)"/><path d="M226.08,110.77a.51.51,0,0,1-.34.6c-.22,0-.44-.18-.47-.48a.51.51,0,0,1,.34-.6C225.83,110.26,226,110.47,226.08,110.77Z" transform="translate(-136.1 -74.99)"/><path d="M229.13,110.33a.51.51,0,0,1-.34.6c-.22,0-.44-.18-.47-.48a.51.51,0,0,1,.34-.6C228.88,109.81,229.09,110,229.13,110.33Z" transform="translate(-136.1 -74.99)"/><path d="M228.17,110.47a.51.51,0,0,1-.34.6c-.22,0-.44-.18-.47-.48a.51.51,0,0,1,.34-.6C227.92,110,228.13,110.17,228.17,110.47Z" transform="translate(-136.1 -74.99)"/><path d="M227.14,110.62a.51.51,0,0,1-.34.6c-.22,0-.44-.18-.47-.48a.51.51,0,0,1,.34-.6C226.89,110.1,227.1,110.32,227.14,110.62Z" transform="translate(-136.1 -74.99)"/><path d="M223.8,113.32a.51.51,0,0,1-.34.6c-.22,0-.44-.18-.47-.48a.51.51,0,0,1,.34-.6C223.55,112.8,223.76,113,223.8,113.32Z" transform="translate(-136.1 -74.99)"/><path d="M224.41,112.13a.51.51,0,0,1-.34.6c-.22,0-.44-.18-.47-.48a.51.51,0,0,1,.34-.6C224.16,111.61,224.37,111.83,224.41,112.13Z" transform="translate(-136.1 -74.99)"/><path d="M225.39,112a.51.51,0,0,1-.34.6c-.22,0-.44-.18-.47-.48a.51.51,0,0,1,.34-.6C225.14,111.47,225.35,111.68,225.39,112Z" transform="translate(-136.1 -74.99)"/><path d="M228.44,111.53a.51.51,0,0,1-.34.6c-.22,0-.44-.18-.47-.48a.51.51,0,0,1,.34-.6C228.18,111,228.4,111.23,228.44,111.53Z" transform="translate(-136.1 -74.99)"/><path d="M227.48,111.67a.51.51,0,0,1-.34.6c-.22,0-.44-.18-.47-.48a.51.51,0,0,1,.34-.6C227.22,111.16,227.44,111.37,227.48,111.67Z" transform="translate(-136.1 -74.99)"/><path d="M226.45,111.83a.51.51,0,0,1-.34.6c-.22,0-.44-.18-.47-.48a.51.51,0,0,1,.34-.6C226.2,111.31,226.41,111.53,226.45,111.83Z" transform="translate(-136.1 -74.99)"/><path d="M222.72,113.53a.51.51,0,0,1-.34.6c-.22,0-.44-.18-.47-.48a.51.51,0,0,1,.34-.6C222.47,113,222.68,113.23,222.72,113.53Z" transform="translate(-136.1 -74.99)"/><path d="M224.14,114.31a.51.51,0,0,1-.34.6c-.22,0-.44-.18-.47-.48a.51.51,0,0,1,.34-.6C223.89,113.79,224.1,114,224.14,114.31Z" transform="translate(-136.1 -74.99)"/><path d="M224.7,113.19a.51.51,0,0,1-.34.6c-.22,0-.44-.18-.47-.48a.51.51,0,0,1,.34-.6C224.45,112.67,224.66,112.89,224.7,113.19Z" transform="translate(-136.1 -74.99)"/><path d="M227.74,112.74a.51.51,0,0,1-.34.6c-.22,0-.44-.18-.47-.48a.51.51,0,0,1,.34-.6C227.49,112.22,227.71,112.44,227.74,112.74Z" transform="translate(-136.1 -74.99)"/><path d="M226.78,112.88a.51.51,0,0,1-.34.6c-.22,0-.44-.18-.47-.48a.51.51,0,0,1,.34-.6C226.53,112.37,226.75,112.58,226.78,112.88Z" transform="translate(-136.1 -74.99)"/><path d="M225.76,113a.51.51,0,0,1-.34.6c-.22,0-.44-.18-.47-.48a.51.51,0,0,1,.34-.6C225.51,112.52,225.72,112.73,225.76,113Z" transform="translate(-136.1 -74.99)"/><path d="M223,114.54a.51.51,0,0,1-.34.6c-.22,0-.44-.18-.47-.48a.51.51,0,0,1,.34-.6C222.78,114,223,114.24,223,114.54Z" transform="translate(-136.1 -74.99)"/><path d="M227.05,113.95a.51.51,0,0,1-.34.6c-.22,0-.44-.18-.47-.48a.51.51,0,0,1,.34-.6C226.8,113.43,227,113.65,227.05,113.95Z" transform="translate(-136.1 -74.99)"/><path d="M226.09,114.09a.51.51,0,0,1-.34.6c-.22,0-.44-.18-.47-.48a.51.51,0,0,1,.34-.6C225.84,113.57,226.06,113.79,226.09,114.09Z" transform="translate(-136.1 -74.99)"/><path d="M225.07,114.24a.51.51,0,0,1-.34.6c-.22,0-.44-.18-.47-.48a.51.51,0,0,1,.34-.6C224.82,113.72,225,113.94,225.07,114.24Z" transform="translate(-136.1 -74.99)"/><path d="M222.17,115.37a.51.51,0,0,1-.34.6c-.22,0-.44-.18-.47-.48a.51.51,0,0,1,.34-.6C221.92,114.86,222.13,115.07,222.17,115.37Z" transform="translate(-136.1 -74.99)"/><path d="M223.33,115.56a.51.51,0,0,1-.34.6c-.22,0-.44-.18-.47-.48a.51.51,0,0,1,.34-.6C223.08,115,223.3,115.26,223.33,115.56Z" transform="translate(-136.1 -74.99)"/><path d="M226.36,115.15a.51.51,0,0,1-.34.6c-.22,0-.44-.18-.47-.48a.51.51,0,0,1,.34-.6C226.11,114.64,226.32,114.85,226.36,115.15Z" transform="translate(-136.1 -74.99)"/><path d="M225.4,115.3a.51.51,0,0,1-.34.6c-.22,0-.44-.18-.47-.48a.51.51,0,0,1,.34-.6C225.15,114.78,225.36,115,225.4,115.3Z" transform="translate(-136.1 -74.99)"/><path d="M224.47,115.37a.51.51,0,0,1-.34.6c-.22,0-.44-.18-.47-.48a.51.51,0,0,1,.34-.6C224.22,114.85,224.44,115.07,224.47,115.37Z" transform="translate(-136.1 -74.99)"/><path d="M221.65,117a.51.51,0,0,1-.34.6c-.22,0-.44-.18-.47-.48a.51.51,0,0,1,.34-.6C221.39,116.44,221.61,116.65,221.65,117Z" transform="translate(-136.1 -74.99)"/><path d="M222.6,116.57a.51.51,0,0,1-.34.6c-.22,0-.44-.18-.47-.48a.51.51,0,0,1,.34-.6C222.35,116.06,222.56,116.27,222.6,116.57Z" transform="translate(-136.1 -74.99)"/><path d="M225.67,116.36a.51.51,0,0,1-.34.6c-.22,0-.44-.18-.47-.48a.51.51,0,0,1,.34-.6C225.42,115.85,225.63,116.06,225.67,116.36Z" transform="translate(-136.1 -74.99)"/><path d="M224.8,116.41a.51.51,0,0,1-.34.6c-.22,0-.44-.18-.47-.48a.51.51,0,0,1,.34-.6C224.55,115.89,224.76,116.11,224.8,116.41Z" transform="translate(-136.1 -74.99)"/><path d="M223.69,116.65a.51.51,0,0,1-.34.6c-.22,0-.44-.18-.47-.48a.51.51,0,0,1,.34-.6C223.43,116.14,223.65,116.35,223.69,116.65Z" transform="translate(-136.1 -74.99)"/><path d="M222,118a.51.51,0,0,1-.34.6c-.22,0-.44-.18-.47-.48a.51.51,0,0,1,.34-.6C221.71,117.5,221.92,117.71,222,118Z" transform="translate(-136.1 -74.99)"/><path d="M225.06,117.47a.51.51,0,0,1-.34.6c-.22,0-.44-.18-.47-.48a.51.51,0,0,1,.34-.6C224.81,117,225,117.17,225.06,117.47Z" transform="translate(-136.1 -74.99)"/><path d="M224,117.71a.51.51,0,0,1-.34.6c-.22,0-.44-.18-.47-.48a.51.51,0,0,1,.34-.6C223.77,117.19,224,117.41,224,117.71Z" transform="translate(-136.1 -74.99)"/><path d="M223,117.7a.51.51,0,0,1-.34.6c-.22,0-.44-.18-.47-.48a.51.51,0,0,1,.34-.6C222.71,117.19,222.92,117.4,223,117.7Z" transform="translate(-136.1 -74.99)"/><path d="M221.13,118.69a.51.51,0,0,1-.34.6c-.22,0-.44-.18-.47-.48a.51.51,0,0,1,.34-.6C220.88,118.17,221.1,118.39,221.13,118.69Z" transform="translate(-136.1 -74.99)"/><path d="M224.29,118.78a.51.51,0,0,1-.34.6c-.22,0-.44-.18-.47-.48a.51.51,0,0,1,.34-.6C224,118.26,224.25,118.48,224.29,118.78Z" transform="translate(-136.1 -74.99)"/><path d="M223.33,118.83a.51.51,0,0,1-.34.6c-.22,0-.44-.18-.47-.48a.51.51,0,0,1,.34-.6C223.08,118.32,223.29,118.53,223.33,118.83Z" transform="translate(-136.1 -74.99)"/><path d="M222.3,119.07a.51.51,0,0,1-.34.6c-.22,0-.44-.18-.47-.48a.51.51,0,0,1,.34-.6C222.05,118.55,222.27,118.77,222.3,119.07Z" transform="translate(-136.1 -74.99)"/><path d="M223.64,119.8a.51.51,0,0,1-.34.6c-.22,0-.44-.18-.47-.48a.51.51,0,0,1,.34-.6C223.39,119.29,223.6,119.5,223.64,119.8Z" transform="translate(-136.1 -74.99)"/><path d="M222.64,120.12a.51.51,0,0,1-.34.6c-.22,0-.44-.18-.47-.48a.51.51,0,0,1,.34-.6C222.39,119.61,222.6,119.82,222.64,120.12Z" transform="translate(-136.1 -74.99)"/><path d="M221.54,120a.51.51,0,0,1-.34.6c-.22,0-.44-.18-.47-.48a.51.51,0,0,1,.34-.6C221.29,119.52,221.51,119.74,221.54,120Z" transform="translate(-136.1 -74.99)"/><path d="M222.91,121.19a.51.51,0,0,1-.34.6c-.22,0-.44-.18-.47-.48a.51.51,0,0,1,.34-.6C222.66,120.67,222.87,120.89,222.91,121.19Z" transform="translate(-136.1 -74.99)"/><path d="M221.86,121.17a.51.51,0,0,1-.34.6c-.22,0-.44-.18-.47-.48a.51.51,0,0,1,.34-.6C221.61,120.65,221.83,120.87,221.86,121.17Z" transform="translate(-136.1 -74.99)"/><path d="M220.62,120.8a.51.51,0,0,1-.34.6c-.22,0-.44-.18-.47-.48a.51.51,0,0,1,.34-.6C220.37,120.28,220.58,120.5,220.62,120.8Z" transform="translate(-136.1 -74.99)"/><path d="M222.15,122.23a.51.51,0,0,1-.34.6c-.22,0-.44-.18-.47-.48a.51.51,0,0,1,.34-.6C221.89,121.72,222.11,121.93,222.15,122.23Z" transform="translate(-136.1 -74.99)"/><path d="M221.1,122a.51.51,0,0,1-.34.6c-.22,0-.44-.18-.47-.48a.51.51,0,0,1,.34-.6C220.85,121.49,221.06,121.71,221.1,122Z" transform="translate(-136.1 -74.99)"/><path d="M220.19,122.14a.51.51,0,0,1-.34.6c-.22,0-.44-.18-.47-.48a.51.51,0,0,1,.34-.6C219.94,121.62,220.15,121.84,220.19,122.14Z" transform="translate(-136.1 -74.99)"/><path d="M221.43,123.68a.35.35,0,0,1-.58,0,.68.68,0,0,1,0-.77.35.35,0,0,1,.58,0A.68.68,0,0,1,221.43,123.68Z" transform="translate(-136.1 -74.99)"/><path d="M220.61,123.18a.51.51,0,0,1-.34.6c-.22,0-.44-.18-.47-.48a.51.51,0,0,1,.34-.6C220.36,122.67,220.57,122.88,220.61,123.18Z" transform="translate(-136.1 -74.99)"/><path d="M219.93,124a.51.51,0,0,1-.34.6c-.22,0-.44-.18-.47-.48a.51.51,0,0,1,.34-.6C219.68,123.47,219.89,123.69,219.93,124Z" transform="translate(-136.1 -74.99)"/><path d="M221,124.13a.55.55,0,0,1-.27.66c-.22.07-.45-.11-.51-.4a.55.55,0,0,1,.27-.66C220.74,123.66,221,123.83,221,124.13Z" transform="translate(-136.1 -74.99)"/><path d="M220.42,124.82a.62.62,0,0,1-.15.73c-.2.14-.45,0-.56-.24a.62.62,0,0,1,.15-.73C220.06,124.44,220.31,124.55,220.42,124.82Z" transform="translate(-136.1 -74.99)"/><path d="M219.21,124.53a.56.56,0,0,1,.2.62c-.07.23-.27.34-.45.23a.56.56,0,0,1-.2-.62C218.83,124.53,219,124.43,219.21,124.53Z" transform="translate(-136.1 -74.99)"/><path d="M219.85,126a.43.43,0,0,1-.29.52c-.19,0-.38-.16-.41-.42a.43.43,0,0,1,.29-.52C219.64,125.53,219.82,125.71,219.85,126Z" transform="translate(-136.1 -74.99)"/><path d="M218.86,127.2a.55.55,0,0,1-.4-.59c0-.3.19-.52.42-.5a.55.55,0,0,1,.4.59C219.28,127,219.09,127.22,218.86,127.2Z" transform="translate(-136.1 -74.99)"/><path d="M218.79,125.95a.27.27,0,0,1-.2-.29c0-.15.1-.26.21-.25a.27.27,0,0,1,.2.29C219,125.85,218.91,126,218.79,125.95Z" transform="translate(-136.1 -74.99)"/><path d="M219.48,123.34a.27.27,0,0,1-.2-.29c0-.15.1-.26.21-.25a.27.27,0,0,1,.2.29C219.69,123.24,219.59,123.36,219.48,123.34Z" transform="translate(-136.1 -74.99)"/><path d="M220.26,119.95a.27.27,0,0,1-.2-.29c0-.15.1-.26.21-.25a.27.27,0,0,1,.2.29C220.47,119.85,220.38,120,220.26,119.95Z" transform="translate(-136.1 -74.99)"/><path d="M220.83,118a.27.27,0,0,1-.2-.29c0-.15.1-.26.21-.25a.27.27,0,0,1,.2.29C221,117.91,220.95,118,220.83,118Z" transform="translate(-136.1 -74.99)"/><path d="M221.29,116.33a.27.27,0,0,1-.2-.29c0-.15.1-.26.21-.25a.27.27,0,0,1,.2.29C221.5,116.23,221.4,116.34,221.29,116.33Z" transform="translate(-136.1 -74.99)"/><path d="M222.29,112.78a.27.27,0,0,1-.2-.29c0-.15.1-.26.21-.25a.27.27,0,0,1,.2.29C222.5,112.68,222.41,112.79,222.29,112.78Z" transform="translate(-136.1 -74.99)"/><path d="M223.07,109c0-.14.15-.22.25-.17a.31.31,0,0,1,.14.35c0,.14-.15.22-.25.17A.31.31,0,0,1,223.07,109Z" transform="translate(-136.1 -74.99)"/><path d="M223.68,107c0-.14.15-.22.25-.17a.31.31,0,0,1,.14.35c0,.14-.15.22-.25.17A.31.31,0,0,1,223.68,107Z" transform="translate(-136.1 -74.99)"/><path d="M222.83,110.88a.27.27,0,0,1-.2-.29c0-.15.1-.26.21-.25a.27.27,0,0,1,.2.29C223,110.78,222.95,110.89,222.83,110.88Z" transform="translate(-136.1 -74.99)"/><path d="M221.78,114.49a.27.27,0,0,1-.2-.29c0-.15.1-.26.21-.25a.27.27,0,0,1,.2.29C222,114.39,221.89,114.5,221.78,114.49Z" transform="translate(-136.1 -74.99)"/><path d="M218.69,128a.35.35,0,0,1-.58,0,.68.68,0,0,1,0-.77.35.35,0,0,1,.58,0A.68.68,0,0,1,218.69,128Z" transform="translate(-136.1 -74.99)"/><path d="M223.52,95.26a.51.51,0,0,1-.34.6c-.22,0-.44-.18-.47-.48a.51.51,0,0,1,.34-.6C223.27,94.74,223.49,95,223.52,95.26Z" transform="translate(-136.1 -74.99)" fill="#25c7d9"/><path d="M224.47,95.12a.51.51,0,0,1-.34.6c-.22,0-.44-.18-.47-.48a.51.51,0,0,1,.34-.6C224.22,94.6,224.44,94.82,224.47,95.12Z" transform="translate(-136.1 -74.99)" fill="#25c7d9"/><path d="M225.47,95a.51.51,0,0,1-.34.6c-.22,0-.44-.18-.47-.48a.51.51,0,0,1,.34-.6C225.22,94.46,225.44,94.67,225.47,95Z" transform="translate(-136.1 -74.99)" fill="#25c7d9"/><path d="M226.49,94.82a.51.51,0,0,1-.34.6c-.22,0-.44-.18-.47-.48a.51.51,0,0,1,.34-.6C226.24,94.31,226.45,94.52,226.49,94.82Z" transform="translate(-136.1 -74.99)" fill="#25c7d9"/><path d="M227.47,94.68a.51.51,0,0,1-.34.6c-.22,0-.44-.18-.47-.48a.51.51,0,0,1,.34-.6C227.22,94.16,227.43,94.38,227.47,94.68Z" transform="translate(-136.1 -74.99)" fill="#25c7d9"/><path d="M228.45,94.53a.51.51,0,0,1-.34.6c-.22,0-.44-.18-.47-.48a.51.51,0,0,1,.34-.6C228.2,94,228.41,94.23,228.45,94.53Z" transform="translate(-136.1 -74.99)" fill="#25c7d9"/><path d="M231.5,94.09a.51.51,0,0,1-.34.6c-.22,0-.44-.18-.47-.48a.51.51,0,0,1,.34-.6C231.25,93.57,231.46,93.79,231.5,94.09Z" transform="translate(-136.1 -74.99)" fill="#25c7d9"/><path d="M230.54,94.23a.51.51,0,0,1-.34.6c-.22,0-.44-.18-.47-.48a.51.51,0,0,1,.34-.6C230.29,93.71,230.5,93.93,230.54,94.23Z" transform="translate(-136.1 -74.99)" fill="#25c7d9"/><path d="M229.51,94.38a.51.51,0,0,1-.34.6c-.22,0-.44-.18-.47-.48a.51.51,0,0,1,.34-.6C229.26,93.86,229.47,94.08,229.51,94.38Z" transform="translate(-136.1 -74.99)" fill="#25c7d9"/><path d="M223,96.67a.51.51,0,0,1-.34.6c-.22,0-.44-.18-.47-.48a.51.51,0,0,1,.34-.6C222.75,96.15,223,96.37,223,96.67Z" transform="translate(-136.1 -74.99)" fill="#25c7d9"/><path d="M224,96.53a.51.51,0,0,1-.34.6c-.22,0-.44-.18-.47-.48a.51.51,0,0,1,.34-.6C223.7,96,223.92,96.23,224,96.53Z" transform="translate(-136.1 -74.99)" fill="#25c7d9"/><path d="M225,96.38a.51.51,0,0,1-.34.6c-.22,0-.44-.18-.47-.48a.51.51,0,0,1,.34-.6C224.7,95.87,224.92,96.08,225,96.38Z" transform="translate(-136.1 -74.99)" fill="#25c7d9"/><path d="M226,96.23a.51.51,0,0,1-.34.6c-.22,0-.44-.18-.47-.48a.51.51,0,0,1,.34-.6C225.72,95.72,225.93,95.93,226,96.23Z" transform="translate(-136.1 -74.99)" fill="#25c7d9"/><path d="M227,96.09a.51.51,0,0,1-.34.6c-.22,0-.44-.18-.47-.48a.51.51,0,0,1,.34-.6C226.7,95.57,226.92,95.79,227,96.09Z" transform="translate(-136.1 -74.99)" fill="#25c7d9"/><path d="M227.93,95.94a.51.51,0,0,1-.34.6c-.22,0-.44-.18-.47-.48a.51.51,0,0,1,.34-.6C227.68,95.43,227.89,95.64,227.93,95.94Z" transform="translate(-136.1 -74.99)" fill="#25c7d9"/><path d="M231,95.5a.51.51,0,0,1-.34.6c-.22,0-.44-.18-.47-.48a.51.51,0,0,1,.34-.6C230.73,95,230.94,95.2,231,95.5Z" transform="translate(-136.1 -74.99)" fill="#25c7d9"/><path d="M230,95.64a.51.51,0,0,1-.34.6c-.22,0-.44-.18-.47-.48a.51.51,0,0,1,.34-.6C229.77,95.12,230,95.34,230,95.64Z" transform="translate(-136.1 -74.99)" fill="#25c7d9"/><path d="M229,95.79a.51.51,0,0,1-.34.6c-.22,0-.44-.18-.47-.48a.51.51,0,0,1,.34-.6C228.74,95.27,229,95.49,229,95.79Z" transform="translate(-136.1 -74.99)" fill="#25c7d9"/><path d="M222.43,98.09a.51.51,0,0,1-.34.6c-.22,0-.44-.18-.47-.48a.51.51,0,0,1,.34-.6C222.18,97.57,222.39,97.79,222.43,98.09Z" transform="translate(-136.1 -74.99)" fill="#25c7d9"/><path d="M223.38,97.95a.51.51,0,0,1-.34.6c-.22,0-.44-.18-.47-.48a.51.51,0,0,1,.34-.6C223.13,97.43,223.34,97.65,223.38,97.95Z" transform="translate(-136.1 -74.99)" fill="#25c7d9"/><path d="M224.38,97.8a.51.51,0,0,1-.34.6c-.22,0-.44-.18-.47-.48a.51.51,0,0,1,.34-.6C224.13,97.29,224.34,97.5,224.38,97.8Z" transform="translate(-136.1 -74.99)" fill="#25c7d9"/><path d="M225.4,97.65a.51.51,0,0,1-.34.6c-.22,0-.44-.18-.47-.48a.51.51,0,0,1,.34-.6C225.14,97.14,225.36,97.35,225.4,97.65Z" transform="translate(-136.1 -74.99)" fill="#25c7d9"/><path d="M226.38,97.51a.51.51,0,0,1-.34.6c-.22,0-.44-.18-.47-.48a.51.51,0,0,1,.34-.6C226.13,97,226.34,97.21,226.38,97.51Z" transform="translate(-136.1 -74.99)" fill="#25c7d9"/><path d="M227.36,97.36a.51.51,0,0,1-.34.6c-.22,0-.44-.18-.47-.48a.51.51,0,0,1,.34-.6C227.11,96.85,227.32,97.06,227.36,97.36Z" transform="translate(-136.1 -74.99)" fill="#25c7d9"/><path d="M230.4,96.91a.51.51,0,0,1-.34.6c-.22,0-.44-.18-.47-.48a.51.51,0,0,1,.34-.6C230.15,96.4,230.37,96.62,230.4,96.91Z" transform="translate(-136.1 -74.99)" fill="#25c7d9"/><path d="M229.44,97.06a.51.51,0,0,1-.34.6c-.22,0-.44-.18-.47-.48a.51.51,0,0,1,.34-.6C229.19,96.54,229.41,96.76,229.44,97.06Z" transform="translate(-136.1 -74.99)" fill="#25c7d9"/><path d="M228.42,97.21a.51.51,0,0,1-.34.6c-.22,0-.44-.18-.47-.48a.51.51,0,0,1,.34-.6C228.17,96.69,228.38,96.91,228.42,97.21Z" transform="translate(-136.1 -74.99)" fill="#25c7d9"/><path d="M221.85,99.51a.51.51,0,0,1-.34.6c-.22,0-.44-.18-.47-.48a.51.51,0,0,1,.34-.6C221.6,99,221.82,99.21,221.85,99.51Z" transform="translate(-136.1 -74.99)" fill="#25c7d9"/><path d="M222.81,99.37a.51.51,0,0,1-.34.6c-.22,0-.44-.18-.47-.48a.51.51,0,0,1,.34-.6C222.55,98.85,222.77,99.07,222.81,99.37Z" transform="translate(-136.1 -74.99)" fill="#25c7d9"/><path d="M223.8,99.22a.51.51,0,0,1-.34.6c-.22,0-.44-.18-.47-.48a.51.51,0,0,1,.34-.6C223.55,98.7,223.77,98.92,223.8,99.22Z" transform="translate(-136.1 -74.99)" fill="#25c7d9"/><path d="M224.82,99.07a.51.51,0,0,1-.34.6c-.22,0-.44-.18-.47-.48a.51.51,0,0,1,.34-.6C224.57,98.55,224.78,98.77,224.82,99.07Z" transform="translate(-136.1 -74.99)" fill="#25c7d9"/><path d="M225.8,98.93a.51.51,0,0,1-.34.6c-.22,0-.44-.18-.47-.48a.51.51,0,0,1,.34-.6C225.55,98.41,225.76,98.63,225.8,98.93Z" transform="translate(-136.1 -74.99)" fill="#25c7d9"/><path d="M226.78,98.78a.51.51,0,0,1-.34.6c-.22,0-.44-.18-.47-.48a.51.51,0,0,1,.34-.6C226.53,98.27,226.74,98.48,226.78,98.78Z" transform="translate(-136.1 -74.99)" fill="#25c7d9"/><path d="M229.83,98.33a.51.51,0,0,1-.34.6c-.22,0-.44-.18-.47-.48a.51.51,0,0,1,.34-.6C229.58,97.82,229.79,98,229.83,98.33Z" transform="translate(-136.1 -74.99)" fill="#25c7d9"/><path d="M228.87,98.47a.51.51,0,0,1-.34.6c-.22,0-.44-.18-.47-.48a.51.51,0,0,1,.34-.6C228.62,98,228.83,98.17,228.87,98.47Z" transform="translate(-136.1 -74.99)" fill="#25c7d9"/><path d="M227.84,98.63a.51.51,0,0,1-.34.6c-.22,0-.44-.18-.47-.48a.51.51,0,0,1,.34-.6C227.59,98.11,227.8,98.33,227.84,98.63Z" transform="translate(-136.1 -74.99)" fill="#25c7d9"/><path d="M221.28,100.93a.51.51,0,0,1-.34.6c-.22,0-.44-.18-.47-.48a.51.51,0,0,1,.34-.6C221,100.41,221.24,100.63,221.28,100.93Z" transform="translate(-136.1 -74.99)" fill="#25c7d9"/><path d="M222.23,100.79a.51.51,0,0,1-.34.6c-.22,0-.44-.18-.47-.48a.51.51,0,0,1,.34-.6C222,100.27,222.19,100.49,222.23,100.79Z" transform="translate(-136.1 -74.99)" fill="#25c7d9"/><path d="M223.23,100.64a.51.51,0,0,1-.34.6c-.22,0-.44-.18-.47-.48a.51.51,0,0,1,.34-.6C223,100.12,223.19,100.34,223.23,100.64Z" transform="translate(-136.1 -74.99)" fill="#25c7d9"/><path d="M224.25,100.49a.51.51,0,0,1-.34.6c-.22,0-.44-.18-.47-.48a.51.51,0,0,1,.34-.6C224,100,224.21,100.19,224.25,100.49Z" transform="translate(-136.1 -74.99)" fill="#25c7d9"/><path d="M225.23,100.34a.51.51,0,0,1-.34.6c-.22,0-.44-.18-.47-.48a.51.51,0,0,1,.34-.6C225,99.83,225.19,100,225.23,100.34Z" transform="translate(-136.1 -74.99)" fill="#25c7d9"/><path d="M226.21,100.2a.51.51,0,0,1-.34.6c-.22,0-.44-.18-.47-.48a.51.51,0,0,1,.34-.6C226,99.68,226.17,99.9,226.21,100.2Z" transform="translate(-136.1 -74.99)" fill="#25c7d9"/><path d="M229.25,99.75a.51.51,0,0,1-.34.6c-.22,0-.44-.18-.47-.48a.51.51,0,0,1,.34-.6C229,99.24,229.22,99.45,229.25,99.75Z" transform="translate(-136.1 -74.99)" fill="#25c7d9"/><path d="M228.29,99.89a.51.51,0,0,1-.34.6c-.22,0-.44-.18-.47-.48a.51.51,0,0,1,.34-.6C228,99.38,228.26,99.59,228.29,99.89Z" transform="translate(-136.1 -74.99)" fill="#25c7d9"/><path d="M227.27,100a.51.51,0,0,1-.34.6c-.22,0-.44-.18-.47-.48a.51.51,0,0,1,.34-.6C227,99.53,227.23,99.74,227.27,100Z" transform="translate(-136.1 -74.99)" fill="#25c7d9"/><path d="M220.7,102.34a.51.51,0,0,1-.34.6c-.22,0-.44-.18-.47-.48a.51.51,0,0,1,.34-.6C220.45,101.83,220.67,102,220.7,102.34Z" transform="translate(-136.1 -74.99)" fill="#25c7d9"/><path d="M221.66,102.2a.51.51,0,0,1-.34.6c-.22,0-.44-.18-.47-.48a.51.51,0,0,1,.34-.6C221.4,101.69,221.62,101.9,221.66,102.2Z" transform="translate(-136.1 -74.99)" fill="#25c7d9"/><path d="M222.65,102.06a.51.51,0,0,1-.34.6c-.22,0-.44-.18-.47-.48a.51.51,0,0,1,.34-.6C222.4,101.54,222.62,101.76,222.65,102.06Z" transform="translate(-136.1 -74.99)" fill="#25c7d9"/><path d="M223.67,101.91a.51.51,0,0,1-.34.6c-.22,0-.44-.18-.47-.48a.51.51,0,0,1,.34-.6C223.42,101.39,223.63,101.61,223.67,101.91Z" transform="translate(-136.1 -74.99)" fill="#25c7d9"/><path d="M224.65,101.76a.51.51,0,0,1-.34.6c-.22,0-.44-.18-.47-.48a.51.51,0,0,1,.34-.6C224.4,101.25,224.61,101.46,224.65,101.76Z" transform="translate(-136.1 -74.99)" fill="#25c7d9"/><path d="M225.63,101.62a.51.51,0,0,1-.34.6c-.22,0-.44-.18-.47-.48a.51.51,0,0,1,.34-.6C225.38,101.1,225.59,101.32,225.63,101.62Z" transform="translate(-136.1 -74.99)" fill="#25c7d9"/><path d="M228.68,101.17a.51.51,0,0,1-.34.6c-.22,0-.44-.18-.47-.48a.51.51,0,0,1,.34-.6C228.43,100.65,228.64,100.87,228.68,101.17Z" transform="translate(-136.1 -74.99)" fill="#25c7d9"/><path d="M227.72,101.31a.51.51,0,0,1-.34.6c-.22,0-.44-.18-.47-.48a.51.51,0,0,1,.34-.6C227.47,100.8,227.68,101,227.72,101.31Z" transform="translate(-136.1 -74.99)" fill="#25c7d9"/><path d="M226.69,101.46a.51.51,0,0,1-.34.6c-.22,0-.44-.18-.47-.48a.51.51,0,0,1,.34-.6C226.44,100.95,226.65,101.16,226.69,101.46Z" transform="translate(-136.1 -74.99)" fill="#25c7d9"/><path d="M220.13,103.76a.51.51,0,0,1-.34.6c-.22,0-.44-.18-.47-.48a.51.51,0,0,1,.34-.6C219.88,103.25,220.09,103.46,220.13,103.76Z" transform="translate(-136.1 -74.99)" fill="#25c7d9"/><path d="M221.08,103.62a.51.51,0,0,1-.34.6c-.22,0-.44-.18-.47-.48a.51.51,0,0,1,.34-.6C220.83,103.11,221,103.32,221.08,103.62Z" transform="translate(-136.1 -74.99)" fill="#25c7d9"/><path d="M222.08,103.48a.51.51,0,0,1-.34.6c-.22,0-.44-.18-.47-.48a.51.51,0,0,1,.34-.6C221.83,103,222,103.18,222.08,103.48Z" transform="translate(-136.1 -74.99)" fill="#25c7d9"/><path d="M223.09,103.33a.51.51,0,0,1-.34.6c-.22,0-.44-.18-.47-.48a.51.51,0,0,1,.34-.6C222.84,102.81,223.06,103,223.09,103.33Z" transform="translate(-136.1 -74.99)" fill="#25c7d9"/><path d="M224.08,103.18a.51.51,0,0,1-.34.6c-.22,0-.44-.18-.47-.48a.51.51,0,0,1,.34-.6C223.83,102.67,224,102.88,224.08,103.18Z" transform="translate(-136.1 -74.99)" fill="#25c7d9"/><path d="M225.06,103a.51.51,0,0,1-.34.6c-.22,0-.44-.18-.47-.48a.51.51,0,0,1,.34-.6C224.81,102.52,225,102.74,225.06,103Z" transform="translate(-136.1 -74.99)" fill="#25c7d9"/><path d="M228.1,102.59a.51.51,0,0,1-.34.6c-.22,0-.44-.18-.47-.48a.51.51,0,0,1,.34-.6C227.85,102.07,228.07,102.29,228.1,102.59Z" transform="translate(-136.1 -74.99)" fill="#25c7d9"/><path d="M227.14,102.73a.51.51,0,0,1-.34.6c-.22,0-.44-.18-.47-.48a.51.51,0,0,1,.34-.6C226.89,102.21,227.11,102.43,227.14,102.73Z" transform="translate(-136.1 -74.99)" fill="#25c7d9"/><path d="M226.12,102.88a.51.51,0,0,1-.34.6c-.22,0-.44-.18-.47-.48a.51.51,0,0,1,.34-.6C225.87,102.37,226.08,102.58,226.12,102.88Z" transform="translate(-136.1 -74.99)" fill="#25c7d9"/><path d="M219.55,105.18a.51.51,0,0,1-.34.6c-.22,0-.44-.18-.47-.48a.51.51,0,0,1,.34-.6C219.3,104.67,219.52,104.88,219.55,105.18Z" transform="translate(-136.1 -74.99)" fill="#25c7d9"/><path d="M220.5,105a.51.51,0,0,1-.34.6c-.22,0-.44-.18-.47-.48a.51.51,0,0,1,.34-.6C220.25,104.53,220.47,104.74,220.5,105Z" transform="translate(-136.1 -74.99)" fill="#25c7d9"/><path d="M221.5,104.89a.51.51,0,0,1-.34.6c-.22,0-.44-.18-.47-.48a.51.51,0,0,1,.34-.6C221.25,104.38,221.47,104.59,221.5,104.89Z" transform="translate(-136.1 -74.99)" fill="#25c7d9"/><path d="M222.52,104.74a.51.51,0,0,1-.34.6c-.22,0-.44-.18-.47-.48a.51.51,0,0,1,.34-.6C222.27,104.23,222.48,104.45,222.52,104.74Z" transform="translate(-136.1 -74.99)" fill="#25c7d9"/><path d="M223.5,104.6a.51.51,0,0,1-.34.6c-.22,0-.44-.18-.47-.48a.51.51,0,0,1,.34-.6C223.25,104.08,223.46,104.3,223.5,104.6Z" transform="translate(-136.1 -74.99)" fill="#25c7d9"/><path d="M224.48,104.46a.51.51,0,0,1-.34.6c-.22,0-.44-.18-.47-.48a.51.51,0,0,1,.34-.6C224.23,103.94,224.44,104.16,224.48,104.46Z" transform="translate(-136.1 -74.99)" fill="#25c7d9"/><path d="M227.53,104a.51.51,0,0,1-.34.6c-.22,0-.44-.18-.47-.48a.51.51,0,0,1,.34-.6C227.28,103.49,227.49,103.71,227.53,104Z" transform="translate(-136.1 -74.99)" fill="#25c7d9"/><path d="M226.57,104.15a.51.51,0,0,1-.34.6c-.22,0-.44-.18-.47-.48a.51.51,0,0,1,.34-.6C226.32,103.63,226.53,103.85,226.57,104.15Z" transform="translate(-136.1 -74.99)" fill="#25c7d9"/><path d="M225.54,104.3a.51.51,0,0,1-.34.6c-.22,0-.44-.18-.47-.48a.51.51,0,0,1,.34-.6C225.29,103.78,225.5,104,225.54,104.3Z" transform="translate(-136.1 -74.99)" fill="#25c7d9"/><path d="M219,106.6a.51.51,0,0,1-.34.6c-.22,0-.44-.18-.47-.48a.51.51,0,0,1,.34-.6C218.73,106.08,218.94,106.3,219,106.6Z" transform="translate(-136.1 -74.99)" fill="#25c7d9"/><path d="M219.93,106.46a.51.51,0,0,1-.34.6c-.22,0-.44-.18-.47-.48a.51.51,0,0,1,.34-.6C219.68,105.94,219.89,106.16,219.93,106.46Z" transform="translate(-136.1 -74.99)" fill="#25c7d9"/><path d="M220.93,106.31a.51.51,0,0,1-.34.6c-.22,0-.44-.18-.47-.48a.51.51,0,0,1,.34-.6C220.68,105.8,220.89,106,220.93,106.31Z" transform="translate(-136.1 -74.99)" fill="#25c7d9"/><path d="M221.94,106.16a.51.51,0,0,1-.34.6c-.22,0-.44-.18-.47-.48a.51.51,0,0,1,.34-.6C221.69,105.65,221.91,105.86,221.94,106.16Z" transform="translate(-136.1 -74.99)" fill="#25c7d9"/><path d="M222.93,106a.51.51,0,0,1-.34.6c-.22,0-.44-.18-.47-.48a.51.51,0,0,1,.34-.6C222.68,105.5,222.89,105.72,222.93,106Z" transform="translate(-136.1 -74.99)" fill="#25c7d9"/><path d="M223.91,105.87a.51.51,0,0,1-.34.6c-.22,0-.44-.18-.47-.48a.51.51,0,0,1,.34-.6C223.66,105.36,223.87,105.58,223.91,105.87Z" transform="translate(-136.1 -74.99)" fill="#25c7d9"/><path d="M227,105.43a.51.51,0,0,1-.34.6c-.22,0-.44-.18-.47-.48a.51.51,0,0,1,.34-.6C226.7,104.91,226.92,105.13,227,105.43Z" transform="translate(-136.1 -74.99)" fill="#25c7d9"/><path d="M226,105.57a.51.51,0,0,1-.34.6c-.22,0-.44-.18-.47-.48a.51.51,0,0,1,.34-.6C225.74,105.05,226,105.27,226,105.57Z" transform="translate(-136.1 -74.99)" fill="#25c7d9"/><path d="M225,105.72a.51.51,0,0,1-.34.6c-.22,0-.44-.18-.47-.48a.51.51,0,0,1,.34-.6C224.72,105.2,224.93,105.42,225,105.72Z" transform="translate(-136.1 -74.99)" fill="#25c7d9"/><path d="M224,105.86a.51.51,0,0,1-.34.6c-.22,0-.44-.18-.47-.48a.51.51,0,0,1,.34-.6C223.78,105.34,224,105.56,224,105.86Z" transform="translate(-136.1 -74.99)" fill="#25c7d9"/><path d="M225,105.72a.51.51,0,0,1-.34.6c-.22,0-.44-.18-.47-.48a.51.51,0,0,1,.34-.6C224.73,105.2,224.95,105.42,225,105.72Z" transform="translate(-136.1 -74.99)" fill="#25c7d9"/><path d="M226,105.57a.51.51,0,0,1-.34.6c-.22,0-.44-.18-.47-.48a.51.51,0,0,1,.34-.6C225.73,105.05,225.95,105.27,226,105.57Z" transform="translate(-136.1 -74.99)" fill="#25c7d9"/><path d="M227,105.42a.51.51,0,0,1-.34.6c-.22,0-.44-.18-.47-.48a.51.51,0,0,1,.34-.6C226.75,104.9,227,105.12,227,105.42Z" transform="translate(-136.1 -74.99)" fill="#25c7d9"/><path d="M228,105.28a.51.51,0,0,1-.34.6c-.22,0-.44-.18-.47-.48a.51.51,0,0,1,.34-.6C227.73,104.76,227.94,105,228,105.28Z" transform="translate(-136.1 -74.99)" fill="#25c7d9"/><path d="M229,105.13a.51.51,0,0,1-.34.6c-.22,0-.44-.18-.47-.48a.51.51,0,0,1,.34-.6C228.71,104.62,228.92,104.83,229,105.13Z" transform="translate(-136.1 -74.99)" fill="#25c7d9"/><path d="M232,104.68a.51.51,0,0,1-.34.6c-.22,0-.44-.18-.47-.48a.51.51,0,0,1,.34-.6C231.76,104.17,232,104.38,232,104.68Z" transform="translate(-136.1 -74.99)" fill="#25c7d9"/><path d="M231,104.82a.51.51,0,0,1-.34.6c-.22,0-.44-.18-.47-.48a.51.51,0,0,1,.34-.6C230.8,104.31,231,104.52,231,104.82Z" transform="translate(-136.1 -74.99)" fill="#25c7d9"/><path d="M230,105a.51.51,0,0,1-.34.6c-.22,0-.44-.18-.47-.48a.51.51,0,0,1,.34-.6C229.77,104.46,230,104.68,230,105Z" transform="translate(-136.1 -74.99)" fill="#25c7d9"/><path d="M224.29,106.92a.51.51,0,0,1-.34.6c-.22,0-.44-.18-.47-.48a.51.51,0,0,1,.34-.6C224,106.41,224.26,106.62,224.29,106.92Z" transform="translate(-136.1 -74.99)" fill="#25c7d9"/><path d="M225.29,106.78a.51.51,0,0,1-.34.6c-.22,0-.44-.18-.47-.48a.51.51,0,0,1,.34-.6C225,106.26,225.25,106.48,225.29,106.78Z" transform="translate(-136.1 -74.99)" fill="#25c7d9"/><path d="M226.31,106.63a.51.51,0,0,1-.34.6c-.22,0-.44-.18-.47-.48a.51.51,0,0,1,.34-.6C226.06,106.11,226.27,106.33,226.31,106.63Z" transform="translate(-136.1 -74.99)" fill="#25c7d9"/><path d="M227.29,106.48a.51.51,0,0,1-.34.6c-.22,0-.44-.18-.47-.48a.51.51,0,0,1,.34-.6C227,106,227.25,106.18,227.29,106.48Z" transform="translate(-136.1 -74.99)" fill="#25c7d9"/><path d="M228.27,106.34a.51.51,0,0,1-.34.6c-.22,0-.44-.18-.47-.48a.51.51,0,0,1,.34-.6C228,105.82,228.23,106,228.27,106.34Z" transform="translate(-136.1 -74.99)" fill="#25c7d9"/><path d="M231.32,105.89a.51.51,0,0,1-.34.6c-.22,0-.44-.18-.47-.48a.51.51,0,0,1,.34-.6C231.07,105.37,231.28,105.59,231.32,105.89Z" transform="translate(-136.1 -74.99)" fill="#25c7d9"/><path d="M230.36,106a.51.51,0,0,1-.34.6c-.22,0-.44-.18-.47-.48a.51.51,0,0,1,.34-.6C230.11,105.52,230.32,105.73,230.36,106Z" transform="translate(-136.1 -74.99)" fill="#25c7d9"/><path d="M229.33,106.18a.51.51,0,0,1-.34.6c-.22,0-.44-.18-.47-.48a.51.51,0,0,1,.34-.6C229.08,105.67,229.29,105.88,229.33,106.18Z" transform="translate(-136.1 -74.99)" fill="#25c7d9"/><path d="M223.62,108.26a.51.51,0,0,1-.34.6c-.22,0-.44-.18-.47-.48a.51.51,0,0,1,.34-.6C223.37,107.74,223.59,108,223.62,108.26Z" transform="translate(-136.1 -74.99)" fill="#25c7d9"/><path d="M224.6,108a.51.51,0,0,1-.34.6c-.22,0-.44-.18-.47-.48a.51.51,0,0,1,.34-.6C224.35,107.47,224.56,107.68,224.6,108Z" transform="translate(-136.1 -74.99)" fill="#25c7d9"/><path d="M225.62,107.83a.51.51,0,0,1-.34.6c-.22,0-.44-.18-.47-.48a.51.51,0,0,1,.34-.6C225.37,107.32,225.58,107.53,225.62,107.83Z" transform="translate(-136.1 -74.99)" fill="#25c7d9"/><path d="M226.6,107.69a.51.51,0,0,1-.34.6c-.22,0-.44-.18-.47-.48a.51.51,0,0,1,.34-.6C226.35,107.17,226.56,107.39,226.6,107.69Z" transform="translate(-136.1 -74.99)" fill="#25c7d9"/><path d="M227.58,107.55a.51.51,0,0,1-.34.6c-.22,0-.44-.18-.47-.48a.51.51,0,0,1,.34-.6C227.33,107,227.54,107.25,227.58,107.55Z" transform="translate(-136.1 -74.99)" fill="#25c7d9"/><path d="M230.63,107.1a.51.51,0,0,1-.34.6c-.22,0-.44-.18-.47-.48a.51.51,0,0,1,.34-.6C230.38,106.58,230.59,106.8,230.63,107.1Z" transform="translate(-136.1 -74.99)" fill="#25c7d9"/><path d="M229.67,107.24a.51.51,0,0,1-.34.6c-.22,0-.44-.18-.47-.48a.51.51,0,0,1,.34-.6C229.42,106.72,229.63,106.94,229.67,107.24Z" transform="translate(-136.1 -74.99)" fill="#25c7d9"/><path d="M228.64,107.39a.51.51,0,0,1-.34.6c-.22,0-.44-.18-.47-.48a.51.51,0,0,1,.34-.6C228.39,106.87,228.6,107.09,228.64,107.39Z" transform="translate(-136.1 -74.99)" fill="#25c7d9"/><path d="M223.91,109.19a.51.51,0,0,1-.34.6c-.22,0-.44-.18-.47-.48a.51.51,0,0,1,.34-.6C223.66,108.67,223.88,108.89,223.91,109.19Z" transform="translate(-136.1 -74.99)" fill="#25c7d9"/><path d="M224.93,109a.51.51,0,0,1-.34.6c-.22,0-.44-.18-.47-.48a.51.51,0,0,1,.34-.6C224.68,108.53,224.89,108.74,224.93,109Z" transform="translate(-136.1 -74.99)" fill="#25c7d9"/><path d="M225.91,108.9a.51.51,0,0,1-.34.6c-.22,0-.44-.18-.47-.48a.51.51,0,0,1,.34-.6C225.66,108.38,225.87,108.6,225.91,108.9Z" transform="translate(-136.1 -74.99)" fill="#25c7d9"/><path d="M226.89,108.75a.51.51,0,0,1-.34.6c-.22,0-.44-.18-.47-.48a.51.51,0,0,1,.34-.6C226.64,108.24,226.85,108.45,226.89,108.75Z" transform="translate(-136.1 -74.99)" fill="#25c7d9"/><path d="M229.94,108.3a.51.51,0,0,1-.34.6c-.22,0-.44-.18-.47-.48a.51.51,0,0,1,.34-.6C229.69,107.79,229.9,108,229.94,108.3Z" transform="translate(-136.1 -74.99)" fill="#25c7d9"/><path d="M229,108.45a.51.51,0,0,1-.34.6c-.22,0-.44-.18-.47-.48a.51.51,0,0,1,.34-.6C228.73,107.93,228.94,108.15,229,108.45Z" transform="translate(-136.1 -74.99)" fill="#25c7d9"/><path d="M227.95,108.6a.51.51,0,0,1-.34.6c-.22,0-.44-.18-.47-.48a.51.51,0,0,1,.34-.6C227.7,108.08,227.91,108.3,227.95,108.6Z" transform="translate(-136.1 -74.99)" fill="#25c7d9"/><path d="M223.22,110.4a.51.51,0,0,1-.34.6c-.22,0-.44-.18-.47-.48a.51.51,0,0,1,.34-.6C223,109.88,223.18,110.1,223.22,110.4Z" transform="translate(-136.1 -74.99)" fill="#25c7d9"/><path d="M224.24,110.25a.51.51,0,0,1-.34.6c-.22,0-.44-.18-.47-.48a.51.51,0,0,1,.34-.6C224,109.73,224.2,109.95,224.24,110.25Z" transform="translate(-136.1 -74.99)" fill="#25c7d9"/><path d="M225.22,110.1a.51.51,0,0,1-.34.6c-.22,0-.44-.18-.47-.48a.51.51,0,0,1,.34-.6C225,109.59,225.18,109.8,225.22,110.1Z" transform="translate(-136.1 -74.99)" fill="#25c7d9"/><path d="M226.2,110a.51.51,0,0,1-.34.6c-.22,0-.44-.18-.47-.48a.51.51,0,0,1,.34-.6C225.95,109.44,226.16,109.66,226.2,110Z" transform="translate(-136.1 -74.99)" fill="#25c7d9"/><path d="M229.25,109.51a.51.51,0,0,1-.34.6c-.22,0-.44-.18-.47-.48a.51.51,0,0,1,.34-.6C229,109,229.21,109.21,229.25,109.51Z" transform="translate(-136.1 -74.99)" fill="#25c7d9"/><path d="M228.29,109.65a.51.51,0,0,1-.34.6c-.22,0-.44-.18-.47-.48a.51.51,0,0,1,.34-.6C228,109.14,228.25,109.35,228.29,109.65Z" transform="translate(-136.1 -74.99)" fill="#25c7d9"/><path d="M227.26,109.8a.51.51,0,0,1-.34.6c-.22,0-.44-.18-.47-.48a.51.51,0,0,1,.34-.6C227,109.29,227.22,109.5,227.26,109.8Z" transform="translate(-136.1 -74.99)" fill="#25c7d9"/><path d="M221.76,111.9c0-.3.17-.54.39-.54a.53.53,0,0,1,.43.55c0,.3-.17.54-.39.54A.53.53,0,0,1,221.76,111.9Z" transform="translate(-136.1 -74.99)" fill="#25c7d9"/><path d="M222.08,112.78c0-.3.17-.54.39-.54a.53.53,0,0,1,.43.55c0,.3-.17.54-.39.54A.53.53,0,0,1,222.08,112.78Z" transform="translate(-136.1 -74.99)" fill="#25c7d9"/><path d="M223.54,111.45a.51.51,0,0,1-.34.6c-.22,0-.44-.18-.47-.48a.51.51,0,0,1,.34-.6C223.29,110.94,223.51,111.16,223.54,111.45Z" transform="translate(-136.1 -74.99)" fill="#25c7d9"/><path d="M224.53,111.31a.51.51,0,0,1-.34.6c-.22,0-.44-.18-.47-.48a.51.51,0,0,1,.34-.6C224.28,110.79,224.49,111,224.53,111.31Z" transform="translate(-136.1 -74.99)" fill="#25c7d9"/><path d="M225.51,111.17a.51.51,0,0,1-.34.6c-.22,0-.44-.18-.47-.48a.51.51,0,0,1,.34-.6C225.26,110.65,225.47,110.87,225.51,111.17Z" transform="translate(-136.1 -74.99)" fill="#25c7d9"/><path d="M228.55,110.72a.51.51,0,0,1-.34.6c-.22,0-.44-.18-.47-.48a.51.51,0,0,1,.34-.6C228.3,110.2,228.52,110.42,228.55,110.72Z" transform="translate(-136.1 -74.99)" fill="#25c7d9"/><path d="M227.59,110.86a.51.51,0,0,1-.34.6c-.22,0-.44-.18-.47-.48a.51.51,0,0,1,.34-.6C227.34,110.34,227.56,110.56,227.59,110.86Z" transform="translate(-136.1 -74.99)" fill="#25c7d9"/><path d="M226.57,111a.51.51,0,0,1-.34.6c-.22,0-.44-.18-.47-.48a.51.51,0,0,1,.34-.6C226.32,110.49,226.53,110.71,226.57,111Z" transform="translate(-136.1 -74.99)" fill="#25c7d9"/><path d="M223.23,113.71a.51.51,0,0,1-.34.6c-.22,0-.44-.18-.47-.48a.51.51,0,0,1,.34-.6C223,113.2,223.19,113.41,223.23,113.71Z" transform="translate(-136.1 -74.99)" fill="#25c7d9"/><path d="M223.84,112.52a.51.51,0,0,1-.34.6c-.22,0-.44-.18-.47-.48a.51.51,0,0,1,.34-.6C223.59,112,223.8,112.22,223.84,112.52Z" transform="translate(-136.1 -74.99)" fill="#25c7d9"/><path d="M224.82,112.37a.51.51,0,0,1-.34.6c-.22,0-.44-.18-.47-.48a.51.51,0,0,1,.34-.6C224.57,111.86,224.78,112.07,224.82,112.37Z" transform="translate(-136.1 -74.99)" fill="#25c7d9"/><path d="M227.86,111.93a.51.51,0,0,1-.34.6c-.22,0-.44-.18-.47-.48a.51.51,0,0,1,.34-.6C227.61,111.41,227.83,111.63,227.86,111.93Z" transform="translate(-136.1 -74.99)" fill="#25c7d9"/><path d="M226.9,112.07a.51.51,0,0,1-.34.6c-.22,0-.44-.18-.47-.48a.51.51,0,0,1,.34-.6C226.65,111.55,226.87,111.77,226.9,112.07Z" transform="translate(-136.1 -74.99)" fill="#25c7d9"/><path d="M225.88,112.22a.51.51,0,0,1-.34.6c-.22,0-.44-.18-.47-.48a.51.51,0,0,1,.34-.6C225.63,111.7,225.84,111.92,225.88,112.22Z" transform="translate(-136.1 -74.99)" fill="#25c7d9"/><path d="M222.15,113.92a.51.51,0,0,1-.34.6c-.22,0-.44-.18-.47-.48a.51.51,0,0,1,.34-.6C221.9,113.4,222.11,113.62,222.15,113.92Z" transform="translate(-136.1 -74.99)" fill="#25c7d9"/><path d="M223.56,114.7a.51.51,0,0,1-.34.6c-.22,0-.44-.18-.47-.48a.51.51,0,0,1,.34-.6C223.31,114.19,223.53,114.4,223.56,114.7Z" transform="translate(-136.1 -74.99)" fill="#25c7d9"/><path d="M224.13,113.58a.51.51,0,0,1-.34.6c-.22,0-.44-.18-.47-.48a.51.51,0,0,1,.34-.6C223.87,113.06,224.09,113.28,224.13,113.58Z" transform="translate(-136.1 -74.99)" fill="#25c7d9"/><path d="M227.17,113.13a.51.51,0,0,1-.34.6c-.22,0-.44-.18-.47-.48a.51.51,0,0,1,.34-.6C226.92,112.62,227.13,112.83,227.17,113.13Z" transform="translate(-136.1 -74.99)" fill="#25c7d9"/><path d="M226.21,113.27a.51.51,0,0,1-.34.6c-.22,0-.44-.18-.47-.48a.51.51,0,0,1,.34-.6C226,112.76,226.17,113,226.21,113.27Z" transform="translate(-136.1 -74.99)" fill="#25c7d9"/><path d="M225.19,113.42a.51.51,0,0,1-.34.6c-.22,0-.44-.18-.47-.48a.51.51,0,0,1,.34-.6C224.94,112.91,225.15,113.12,225.19,113.42Z" transform="translate(-136.1 -74.99)" fill="#25c7d9"/><path d="M222.46,114.93a.51.51,0,0,1-.34.6c-.22,0-.44-.18-.47-.48a.51.51,0,0,1,.34-.6C222.2,114.42,222.42,114.63,222.46,114.93Z" transform="translate(-136.1 -74.99)" fill="#25c7d9"/><path d="M226.48,114.34a.51.51,0,0,1-.34.6c-.22,0-.44-.18-.47-.48a.51.51,0,0,1,.34-.6C226.23,113.82,226.44,114,226.48,114.34Z" transform="translate(-136.1 -74.99)" fill="#25c7d9"/><path d="M225.52,114.48a.51.51,0,0,1-.34.6c-.22,0-.44-.18-.47-.48a.51.51,0,0,1,.34-.6C225.27,114,225.48,114.18,225.52,114.48Z" transform="translate(-136.1 -74.99)" fill="#25c7d9"/><path d="M224.49,114.63a.51.51,0,0,1-.34.6c-.22,0-.44-.18-.47-.48a.51.51,0,0,1,.34-.6C224.24,114.12,224.46,114.33,224.49,114.63Z" transform="translate(-136.1 -74.99)" fill="#25c7d9"/><path d="M221.6,115.77a.51.51,0,0,1-.34.6c-.22,0-.44-.18-.47-.48a.51.51,0,0,1,.34-.6C221.35,115.25,221.56,115.47,221.6,115.77Z" transform="translate(-136.1 -74.99)" fill="#25c7d9"/><path d="M222.76,115.95a.51.51,0,0,1-.34.6c-.22,0-.44-.18-.47-.48a.51.51,0,0,1,.34-.6C222.51,115.43,222.72,115.65,222.76,115.95Z" transform="translate(-136.1 -74.99)" fill="#25c7d9"/><path d="M225.79,115.55a.51.51,0,0,1-.34.6c-.22,0-.44-.18-.47-.48a.51.51,0,0,1,.34-.6C225.54,115,225.75,115.25,225.79,115.55Z" transform="translate(-136.1 -74.99)" fill="#25c7d9"/><path d="M224.83,115.69a.51.51,0,0,1-.34.6c-.22,0-.44-.18-.47-.48a.51.51,0,0,1,.34-.6C224.58,115.17,224.79,115.39,224.83,115.69Z" transform="translate(-136.1 -74.99)" fill="#25c7d9"/><path d="M223.9,115.76a.51.51,0,0,1-.34.6c-.22,0-.44-.18-.47-.48a.51.51,0,0,1,.34-.6C223.65,115.24,223.86,115.46,223.9,115.76Z" transform="translate(-136.1 -74.99)" fill="#25c7d9"/><path d="M221.07,117.35a.51.51,0,0,1-.34.6c-.22,0-.44-.18-.47-.48a.51.51,0,0,1,.34-.6C220.82,116.83,221,117,221.07,117.35Z" transform="translate(-136.1 -74.99)" fill="#25c7d9"/><path d="M222,117a.51.51,0,0,1-.34.6c-.22,0-.44-.18-.47-.48a.51.51,0,0,1,.34-.6C221.78,116.45,222,116.67,222,117Z" transform="translate(-136.1 -74.99)" fill="#25c7d9"/><path d="M225.1,116.75a.51.51,0,0,1-.34.6c-.22,0-.44-.18-.47-.48a.51.51,0,0,1,.34-.6C224.85,116.24,225.06,116.45,225.1,116.75Z" transform="translate(-136.1 -74.99)" fill="#25c7d9"/><path d="M224.22,116.8a.51.51,0,0,1-.34.6c-.22,0-.44-.18-.47-.48a.51.51,0,0,1,.34-.6C224,116.28,224.19,116.5,224.22,116.8Z" transform="translate(-136.1 -74.99)" fill="#25c7d9"/><path d="M223.11,117a.51.51,0,0,1-.34.6c-.22,0-.44-.18-.47-.48a.51.51,0,0,1,.34-.6C222.86,116.53,223.08,116.75,223.11,117Z" transform="translate(-136.1 -74.99)" fill="#25c7d9"/><path d="M221.39,118.4a.51.51,0,0,1-.34.6c-.22,0-.44-.18-.47-.48a.51.51,0,0,1,.34-.6C221.14,117.89,221.35,118.11,221.39,118.4Z" transform="translate(-136.1 -74.99)" fill="#25c7d9"/><path d="M224.49,117.86a.51.51,0,0,1-.34.6c-.22,0-.44-.18-.47-.48a.51.51,0,0,1,.34-.6C224.24,117.35,224.45,117.56,224.49,117.86Z" transform="translate(-136.1 -74.99)" fill="#25c7d9"/><path d="M223.45,118.1a.51.51,0,0,1-.34.6c-.22,0-.44-.18-.47-.48a.51.51,0,0,1,.34-.6C223.2,117.59,223.41,117.8,223.45,118.1Z" transform="translate(-136.1 -74.99)" fill="#25c7d9"/><path d="M222.39,118.1a.51.51,0,0,1-.34.6c-.22,0-.44-.18-.47-.48a.51.51,0,0,1,.34-.6C222.13,117.58,222.35,117.8,222.39,118.1Z" transform="translate(-136.1 -74.99)" fill="#25c7d9"/><path d="M220.56,119.08a.51.51,0,0,1-.34.6c-.22,0-.44-.18-.47-.48a.51.51,0,0,1,.34-.6C220.31,118.56,220.52,118.78,220.56,119.08Z" transform="translate(-136.1 -74.99)" fill="#25c7d9"/><path d="M223.72,119.17a.51.51,0,0,1-.34.6c-.22,0-.44-.18-.47-.48a.51.51,0,0,1,.34-.6C223.47,118.65,223.68,118.87,223.72,119.17Z" transform="translate(-136.1 -74.99)" fill="#25c7d9"/><path d="M222.76,119.22a.51.51,0,0,1-.34.6c-.22,0-.44-.18-.47-.48a.51.51,0,0,1,.34-.6C222.51,118.71,222.72,118.92,222.76,119.22Z" transform="translate(-136.1 -74.99)" fill="#25c7d9"/><path d="M221.73,119.46a.51.51,0,0,1-.34.6c-.22,0-.44-.18-.47-.48a.51.51,0,0,1,.34-.6C221.48,118.94,221.69,119.16,221.73,119.46Z" transform="translate(-136.1 -74.99)" fill="#25c7d9"/><path d="M223.07,120.2a.51.51,0,0,1-.34.6c-.22,0-.44-.18-.47-.48a.51.51,0,0,1,.34-.6C222.82,119.68,223,119.9,223.07,120.2Z" transform="translate(-136.1 -74.99)" fill="#25c7d9"/><path d="M222.07,120.52a.51.51,0,0,1-.34.6c-.22,0-.44-.18-.47-.48a.51.51,0,0,1,.34-.6C221.82,120,222,120.22,222.07,120.52Z" transform="translate(-136.1 -74.99)" fill="#25c7d9"/><path d="M221,120.43a.51.51,0,0,1-.34.6c-.22,0-.44-.18-.47-.48a.51.51,0,0,1,.34-.6C220.72,119.92,220.93,120.13,221,120.43Z" transform="translate(-136.1 -74.99)" fill="#25c7d9"/><path d="M222.34,121.58a.51.51,0,0,1-.34.6c-.22,0-.44-.18-.47-.48a.51.51,0,0,1,.34-.6C222.09,121.07,222.3,121.28,222.34,121.58Z" transform="translate(-136.1 -74.99)" fill="#25c7d9"/><path d="M221.29,121.56a.51.51,0,0,1-.34.6c-.22,0-.44-.18-.47-.48a.51.51,0,0,1,.34-.6C221,121,221.25,121.26,221.29,121.56Z" transform="translate(-136.1 -74.99)" fill="#25c7d9"/><path d="M220,121.19a.51.51,0,0,1-.34.6c-.22,0-.44-.18-.47-.48a.51.51,0,0,1,.34-.6C219.79,120.68,220,120.89,220,121.19Z" transform="translate(-136.1 -74.99)" fill="#25c7d9"/><path d="M221.57,122.63a.51.51,0,0,1-.34.6c-.22,0-.44-.18-.47-.48a.51.51,0,0,1,.34-.6C221.32,122.11,221.54,122.33,221.57,122.63Z" transform="translate(-136.1 -74.99)" fill="#25c7d9"/><path d="M220.53,122.4a.51.51,0,0,1-.34.6c-.22,0-.44-.18-.47-.48a.51.51,0,0,1,.34-.6C220.28,121.88,220.49,122.1,220.53,122.4Z" transform="translate(-136.1 -74.99)" fill="#25c7d9"/><path d="M219.62,122.53a.51.51,0,0,1-.34.6c-.22,0-.44-.18-.47-.48a.51.51,0,0,1,.34-.6C219.37,122,219.58,122.23,219.62,122.53Z" transform="translate(-136.1 -74.99)" fill="#25c7d9"/><path d="M220.86,124.07a.35.35,0,0,1-.58,0,.68.68,0,0,1,0-.77.35.35,0,0,1,.58,0A.68.68,0,0,1,220.86,124.07Z" transform="translate(-136.1 -74.99)" fill="#25c7d9"/><path d="M220,123.57a.51.51,0,0,1-.34.6c-.22,0-.44-.18-.47-.48a.51.51,0,0,1,.34-.6C219.79,123.06,220,123.27,220,123.57Z" transform="translate(-136.1 -74.99)" fill="#25c7d9"/><path d="M219.36,124.38a.51.51,0,0,1-.34.6c-.22,0-.44-.18-.47-.48a.51.51,0,0,1,.34-.6C219.11,123.87,219.32,124.08,219.36,124.38Z" transform="translate(-136.1 -74.99)" fill="#25c7d9"/><path d="M220.46,124.52a.55.55,0,0,1-.27.66c-.22.07-.45-.11-.51-.4a.55.55,0,0,1,.27-.66C220.17,124,220.4,124.23,220.46,124.52Z" transform="translate(-136.1 -74.99)" fill="#25c7d9"/><path d="M219.85,125.21a.62.62,0,0,1-.15.73c-.2.14-.45,0-.56-.24a.62.62,0,0,1,.15-.73C219.48,124.84,219.74,124.94,219.85,125.21Z" transform="translate(-136.1 -74.99)" fill="#25c7d9"/><path d="M218.64,124.92a.56.56,0,0,1,.2.62c-.07.23-.27.34-.45.23a.56.56,0,0,1-.2-.62C218.26,124.92,218.46,124.82,218.64,124.92Z" transform="translate(-136.1 -74.99)" fill="#25c7d9"/><path d="M219.28,126.36a.43.43,0,0,1-.29.52c-.19,0-.38-.16-.41-.42a.43.43,0,0,1,.29-.52C219.06,125.92,219.25,126.1,219.28,126.36Z" transform="translate(-136.1 -74.99)" fill="#25c7d9"/><path d="M218.29,127.59a.55.55,0,0,1-.4-.59c0-.3.19-.52.42-.5a.55.55,0,0,1,.4.59C218.71,127.39,218.52,127.61,218.29,127.59Z" transform="translate(-136.1 -74.99)" fill="#25c7d9"/><path d="M218.22,126.34a.27.27,0,0,1-.2-.29c0-.15.1-.26.21-.25a.27.27,0,0,1,.2.29C218.43,126.24,218.34,126.35,218.22,126.34Z" transform="translate(-136.1 -74.99)" fill="#25c7d9"/><path d="M218.91,123.74a.27.27,0,0,1-.2-.29c0-.15.1-.26.21-.25a.27.27,0,0,1,.2.29C219.11,123.64,219,123.75,218.91,123.74Z" transform="translate(-136.1 -74.99)" fill="#25c7d9"/><path d="M219.69,120.34a.27.27,0,0,1-.2-.29c0-.15.1-.26.21-.25a.27.27,0,0,1,.2.29C219.9,120.24,219.81,120.35,219.69,120.34Z" transform="translate(-136.1 -74.99)" fill="#25c7d9"/><path d="M220.26,118.4a.27.27,0,0,1-.2-.29c0-.15.1-.26.21-.25a.27.27,0,0,1,.2.29C220.47,118.3,220.38,118.42,220.26,118.4Z" transform="translate(-136.1 -74.99)" fill="#25c7d9"/><path d="M220.72,116.72a.27.27,0,0,1-.2-.29c0-.15.1-.26.21-.25a.27.27,0,0,1,.2.29C220.93,116.62,220.83,116.73,220.72,116.72Z" transform="translate(-136.1 -74.99)" fill="#25c7d9"/><path d="M221.72,113.17a.27.27,0,0,1-.2-.29c0-.15.1-.26.21-.25a.27.27,0,0,1,.2.29C221.93,113.07,221.83,113.18,221.72,113.17Z" transform="translate(-136.1 -74.99)" fill="#25c7d9"/><path d="M222.5,109.42c0-.14.15-.22.25-.17a.31.31,0,0,1,.14.35c0,.14-.15.22-.25.17A.31.31,0,0,1,222.5,109.42Z" transform="translate(-136.1 -74.99)" fill="#25c7d9"/><path d="M223.11,107.35c0-.14.15-.22.25-.17a.31.31,0,0,1,.14.35c0,.14-.15.22-.25.17A.31.31,0,0,1,223.11,107.35Z" transform="translate(-136.1 -74.99)" fill="#25c7d9"/><path d="M222.26,111.27a.27.27,0,0,1-.2-.29c0-.15.1-.26.21-.25a.27.27,0,0,1,.2.29C222.47,111.17,222.38,111.28,222.26,111.27Z" transform="translate(-136.1 -74.99)" fill="#25c7d9"/><path d="M221.21,114.88a.27.27,0,0,1-.2-.29c0-.15.1-.26.21-.25a.27.27,0,0,1,.2.29C221.42,114.78,221.32,114.89,221.21,114.88Z" transform="translate(-136.1 -74.99)" fill="#25c7d9"/><path d="M218.12,128.39a.35.35,0,0,1-.58,0,.68.68,0,0,1,0-.77.35.35,0,0,1,.58,0A.68.68,0,0,1,218.12,128.39Z" transform="translate(-136.1 -74.99)" fill="#25c7d9"/><path d="M203.91,108.44c.13.1-4.88,4.16-3.83,7,1.44,3.92,13.53,3.49,21.32,1.5a43.49,43.49,0,0,0,6.36-2.2,45,45,0,0,0,5-2.56,53.49,53.49,0,0,0,5.08-3.47c1.43-1.07,2.46-1.93,2.73-2.15,2-1.71,3.47-3.13,3.93-3.6a30.06,30.06,0,0,0,2.8-3.05c1.24-1.62,3.67-4.81,2.88-6.62s-4.85-2.38-9.82-1.12a12.52,12.52,0,0,1,6.11,0c1.16.33,2,.57,2.38,1.29.77,1.45-.94,3.75-2.09,5.31a21.47,21.47,0,0,1-2.33,2.61,56.55,56.55,0,0,1-5.27,4.59c-2.23,1.79-3.57,2.71-4.25,3.16s-1.1.73-1.73,1.11A51.21,51.21,0,0,1,225.7,114a41.65,41.65,0,0,1-3.93,1.4,43.52,43.52,0,0,1-8.06,1.54c-2,.19-3.38.21-3.86.21a33.49,33.49,0,0,1-6.12-.72,3.81,3.81,0,0,1-2.15-.93,3.36,3.36,0,0,1-.68-1C200.06,112.33,203.79,108.34,203.91,108.44Z" transform="translate(-136.1 -74.99)" fill="#f2d338"/></svg>