<svg xmlns="http://www.w3.org/2000/svg" xmlns:xlink="http://www.w3.org/1999/xlink" width="184.29mm" height="184.15mm" viewBox="0 0 522.38 522"><defs><filter id="a" x="-23.02" y="-17.7" width="179.4" height="160.7" name="filter-3"><feOffset result="shadowOffsetOuter1" dx="38" dy="36" in="SourceAlpha"/><feGaussianBlur result="shadowBlurOuter1" stdDeviation="22.5" in="shadowOffsetOuter1"/><feColorMatrix values="0 0 0 0 0 0 0 0 0 0.2 0 0 0 0 0.6 0 0 0 0.1 0" in="shadowBlurOuter1"/></filter><radialGradient id="b" cx="-1429.61" cy="1966.32" r="1.22" gradientTransform="matrix(51.55, 211.72, 211.72, -51.55, -342363.91, 404177.36)" gradientUnits="userSpaceOnUse"><stop offset="0" stop-color="#1c7fd2"/><stop offset="0.48" stop-color="#135dcd"/><stop offset="1" stop-color="#093cc7"/></radialGradient><filter id="c" x="-5.52" y="-4.4" width="144.5" height="134.1" name="filter-4"><feGaussianBlur result="shadowBlurInner1" stdDeviation="2" in="SourceAlpha"/><feOffset result="shadowOffsetInner1" dx="2" dy="3" in="shadowBlurInner1"/><feComposite result="shadowInnerInner1" operator="arithmetic" k2="-1" k3="1" in="shadowOffsetInner1" in2="SourceAlpha"/><feColorMatrix result="shadowMatrixInner1" values="0 0 0 0 0.19 0 0 0 0 0.63 0 0 0 0 1 0 0 0 0.5 0" in="shadowInnerInner1"/><feGaussianBlur result="shadowBlurInner2" stdDeviation="2" in="SourceAlpha"/><feOffset result="shadowOffsetInner2" dx="-2" dy="-3" in="shadowBlurInner2"/><feComposite result="shadowInnerInner2" operator="arithmetic" k2="-1" k3="1" in="shadowOffsetInner2" in2="SourceAlpha"/><feColorMatrix result="shadowMatrixInner2" values="0 0 0 0 0 0 0 0 0 0.43 0 0 0 0 0.78 0 0 0 1 0" in="shadowInnerInner2"/><feMerge><feMergeNode in="shadowMatrixInner1"/><feMergeNode in="shadowMatrixInner2"/></feMerge></filter><filter id="d" x="-28.52" y="-22.5" width="174.6" height="156.9" name="filter-7"><feOffset result="shadowOffsetOuter1" dx="11" dy="9" in="SourceAlpha"/><feGaussianBlur result="shadowBlurOuter1" stdDeviation="12.5" in="shadowOffsetOuter1"/><feColorMatrix values="0 0 0 0 0 0 0 0 0 0.27 0 0 0 0 0.5 0 0 0 0.15 0" in="shadowBlurOuter1"/></filter><radialGradient id="e" cx="-1423.35" cy="1971.88" r="1" gradientTransform="matrix(16.53, 114.1, 115.92, -16.79, -204789.78, 195713.11)" gradientUnits="userSpaceOnUse"><stop offset="0" stop-color="#fff"/><stop offset="0.54" stop-color="#e4e7ec"/><stop offset="1" stop-color="#b1c0d0"/></radialGradient><filter id="f" x="-16.32" y="-13.2" width="150.3" height="138.4" name="filter-8"><feGaussianBlur result="shadowBlurInner1" stdDeviation="2" in="SourceAlpha"/><feOffset result="shadowOffsetInner1" dx="2" dy="4" in="shadowBlurInner1"/><feComposite result="shadowInnerInner1" operator="arithmetic" k2="-1" k3="1" in="shadowOffsetInner1" in2="SourceAlpha"/><feColorMatrix result="shadowMatrixInner1" values="0 0 0 0 1 0 0 0 0 1 0 0 0 0 1 0 0 0 0.5 0" in="shadowInnerInner1"/><feGaussianBlur result="shadowBlurInner2" stdDeviation="2" in="SourceAlpha"/><feOffset result="shadowOffsetInner2" dx="-2" dy="-4" in="shadowBlurInner2"/><feComposite result="shadowInnerInner2" operator="arithmetic" k2="-1" k3="1" in="shadowOffsetInner2" in2="SourceAlpha"/><feColorMatrix result="shadowMatrixInner2" values="0 0 0 0 0.9 0 0 0 0 0.9 0 0 0 0 0.9 0 0 0 1 0" in="shadowInnerInner2"/><feMerge><feMergeNode in="shadowMatrixInner1"/><feMergeNode in="shadowMatrixInner2"/></feMerge></filter></defs><title>icon-background</title><ellipse cx="261.19" cy="261" rx="252.19" ry="252" fill="none" stroke="#135dcd" stroke-width="18" opacity="0.2" style="isolation:isolate"/><g opacity="0.2"><ellipse cx="261.19" cy="29.7" rx="6.3" ry="6.3" fill="none" stroke="#135dcd" stroke-width="1.8"/><ellipse cx="261.19" cy="492.3" rx="6.3" ry="6.3" fill="none" stroke="#135dcd" stroke-width="1.8"/></g><g opacity="0.2"><ellipse cx="29.89" cy="261" rx="6.3" ry="6.3" fill="none" stroke="#135dcd" stroke-width="1.8"/><ellipse cx="492.49" cy="261" rx="6.3" ry="6.3" fill="none" stroke="#135dcd" stroke-width="1.8"/></g><g opacity="0.2"><ellipse cx="98.36" cy="424.55" rx="6.3" ry="6.3" transform="translate(-272.12 193.9) rotate(-45)" fill="none" stroke="#135dcd" stroke-width="1.8"/><ellipse cx="425.47" cy="97.45" rx="6.3" ry="6.3" transform="translate(54.99 329.39) rotate(-45)" fill="none" stroke="#135dcd" stroke-width="1.8"/></g><g opacity="0.2"><ellipse cx="425.47" cy="424.55" rx="6.3" ry="6.3" transform="translate(-176.31 425.2) rotate(-45)" fill="none" stroke="#135dcd" stroke-width="1.8"/><ellipse cx="98.36" cy="97.45" rx="6.3" ry="6.3" transform="translate(-40.82 98.09) rotate(-45)" fill="none" stroke="#135dcd" stroke-width="1.8"/></g><g opacity="0.2"><ellipse cx="474.83" cy="170.62" rx="6.3" ry="6.3" transform="translate(-29.64 199.09) rotate(-23)" fill="none" stroke="#135dcd" stroke-width="1.8"/><ellipse cx="49" cy="351.38" rx="6.3" ry="6.3" transform="matrix(0.92, -0.39, 0.39, 0.92, -134.12, 47.08)" fill="none" stroke="#135dcd" stroke-width="1.8"/></g><g opacity="0.2"><ellipse cx="355.99" cy="49.7" rx="6.3" ry="6.3" transform="translate(165.08 354.7) rotate(-66)" fill="none" stroke="#135dcd" stroke-width="1.8"/><ellipse cx="167.83" cy="472.3" rx="6.3" ry="6.3" transform="translate(-332.62 433.52) rotate(-66)" fill="none" stroke="#135dcd" stroke-width="1.8"/></g><g opacity="0.2"><ellipse cx="167.83" cy="49.7" rx="6.3" ry="6.3" transform="translate(-6.42 72.56) rotate(-24)" fill="none" stroke="#135dcd" stroke-width="1.8"/><ellipse cx="355.99" cy="472.3" rx="6.3" ry="6.3" transform="translate(-162.05 185.63) rotate(-24)" fill="none" stroke="#135dcd" stroke-width="1.8"/></g><g opacity="0.2"><ellipse cx="47.45" cy="174.35" rx="6.3" ry="6.3" transform="translate(-132.7 153.04) rotate(-68)" fill="none" stroke="#135dcd" stroke-width="1.8"/><ellipse cx="476.37" cy="347.65" rx="6.3" ry="6.3" transform="translate(-25.13 659.1) rotate(-68)" fill="none" stroke="#135dcd" stroke-width="1.8"/></g><g filter="url(#a)"><path d="M262.06,118.8l96.61,32A18,18,0,0,1,371,167.91V272.4c0,3.84-10.43,58.16-42.72,89.52Q296,393.29,262.06,403.6q-33.95-10.31-66.23-41.68c-32.29-31.36-42.72-85.68-42.72-89.52V167.91a18,18,0,0,1,12.34-17.09Z" transform="translate(-0.72 0)"/></g><path d="M262.06,118.8l96.61,32A18,18,0,0,1,371,167.91V272.4c0,3.84-10.43,58.16-42.72,89.52Q296,393.29,262.06,403.6q-33.95-10.31-66.23-41.68c-32.29-31.36-42.72-85.68-42.72-89.52V167.91a18,18,0,0,1,12.34-17.09Z" transform="translate(-0.72 0)" fill="url(#b)"/><g filter="url(#c)"><path d="M262.06,118.8l96.61,32A18,18,0,0,1,371,167.91V272.4c0,3.84-10.43,58.16-42.72,89.52Q296,393.29,262.06,403.6q-33.95-10.31-66.23-41.68c-32.29-31.36-42.72-85.68-42.72-89.52V167.91a18,18,0,0,1,12.34-17.09Z" transform="translate(-0.72 0)"/></g><g filter="url(#d)"><path d="M261.19,185.4l55.16,18.34a3.63,3.63,0,0,1,2.48,3.44v59.76c0,2-5.52,30.88-22.6,47.53q-17.08,16.65-35,22.13-18-5.48-35-22.13c-17.08-16.65-22.6-45.49-22.6-47.53V207.19a3.63,3.63,0,0,1,2.48-3.44Z" transform="translate(-0.72 0)"/></g><path d="M261.19,185.4l55.16,18.34a3.63,3.63,0,0,1,2.48,3.44v59.76c0,2-5.52,30.88-22.6,47.53q-17.08,16.65-35,22.13-18-5.48-35-22.13c-17.08-16.65-22.6-45.49-22.6-47.53V207.19a3.63,3.63,0,0,1,2.48-3.44Z" transform="translate(-0.72 0)" fill="url(#e)"/><g filter="url(#f)"><path d="M261.19,185.4l55.16,18.34a3.63,3.63,0,0,1,2.48,3.44v59.76c0,2-5.52,30.88-22.6,47.53q-17.08,16.65-35,22.13-18-5.48-35-22.13c-17.08-16.65-22.6-45.49-22.6-47.53V207.19a3.63,3.63,0,0,1,2.48-3.44Z" transform="translate(-0.72 0)"/></g><circle cx="260.5" cy="261.2" r="215.45" fill="#fff"/></svg>