<?xml version="1.0" encoding="utf-8" ?>
<!DOCTYPE svg PUBLIC "-//W3C//DTD SVG 1.1//EN" "http://www.w3.org/Graphics/SVG/1.1/DTD/svg11.dtd">
<svg xmlns="http://www.w3.org/2000/svg" viewBox="0 0 296.11 186.16"><defs><style>.cls-1{fill:#1c2666;}.cls-2{fill:none;stroke:#1c2666;stroke-miterlimit:10;stroke-width:4px;}.cls-3{fill:#e96024;}.cls-4{fill:#28c0ef;}.cls-5{fill:#fbd207;}.cls-6{fill:#c3d95e;}.cls-7{fill:#f9c0c2;}.cls-8{fill:#d7e2f2;}</style></defs><g id="Layer_2" data-name="Layer 2"><g id="Balance"><polygon class="cls-1" points="208.6 186.16 85.58 186.16 147.09 103.74 208.6 186.16"/><path class="cls-2" d="M.36,92.53c100-2.29,197.89,4.14,293.46,20.61"/><circle class="cls-3" cx="39.65" cy="39.65" r="39.65"/><circle class="cls-4" cx="256.46" cy="53.9" r="39.65"/><path class="cls-5" d="M65.05,3.09,26.72,44l60.75-1.47C84.86,23.61,79.22,11.21,65.05,3.09Z"/><path class="cls-6" d="M289.8,81.79c-.59-.79-34.55-29.49-34.55-29.49L227.77,84.22s15.07,18.12,32.54,14.54S289.8,81.79,289.8,81.79Z"/><circle class="cls-7" cx="139.39" cy="7.69" r="4.6"/><circle class="cls-8" cx="123.63" cy="60.66" r="11.17"/><path class="cls-6" d="M181.58,36,167.7,13.46s8-6.4,16.49,2.11S181.58,36,181.58,36Z"/></g></g></svg>