<svg xmlns="http://www.w3.org/2000/svg" viewBox="0 0 664 500" width="664" height="500" preserveAspectRatio="xMidYMid meet" style="width: 100%; height: 100%; transform: translate3d(0px, 0px, 0px);"><defs><clipPath id="__lottie_element_5"><rect width="664" height="500" x="0" y="0"></rect></clipPath></defs><g clip-path="url(#__lottie_element_5)"><g transform="matrix(1,0,0,1,2,140)" opacity="1" style="display: block;"><g opacity="1" transform="matrix(1,0,0,1,141.96400451660156,141.89500427246094)"><path fill="rgb(250,210,6)" fill-opacity="1" d=" M-113.52100372314453,-49.36000061035156 C-140.781005859375,13.335000038146973 -112.05699920654297,86.26000213623047 -49.36000061035156,113.52100372314453 C13.335000038146973,140.7830047607422 86.26000213623047,112.05599975585938 113.52200317382812,49.361000061035156 C140.78199768066406,-13.335000038146973 112.05699920654297,-86.26000213623047 49.36199951171875,-113.5199966430664 C-13.335000038146973,-140.7830047607422 -86.26100158691406,-112.05699920654297 -113.52100372314453,-49.36000061035156z"></path></g><g opacity="1" transform="matrix(1,0,0,1,517.6740112304688,141.89700317382812)"><path fill="rgb(41,43,103)" fill-opacity="1" d=" M116.68699645996094,-41.32099914550781 C93.86599731445312,-105.76499938964844 23.12299919128418,-139.50900268554688 -41.32400131225586,-116.68800354003906 C-105.76699829101562,-93.86699676513672 -139.50799560546875,-23.124000549316406 -116.68900299072266,41.321998596191406 C-93.86799621582031,105.76599884033203 -23.12299919128418,139.50900268554688 41.31999969482422,116.68800354003906 C105.76699829101562,93.86699676513672 139.50799560546875,23.124000549316406 116.68699645996094,-41.32099914550781z"></path></g><g opacity="1" transform="matrix(1,0,0,1,529.3829956054688,134.78700256347656)"><path fill="rgb(240,126,167)" fill-opacity="1" d=" M111.94400024414062,13.369000434875488 C112.74500274658203,-2.3399999141693115 110.55400085449219,-18.461999893188477 104.97799682617188,-34.209999084472656 C96.50299835205078,-58.14400100708008 81.41400146484375,-77.83899688720703 62.49599838256836,-91.97899627685547 C17.400999069213867,-66.4739990234375 -28.865999221801758,-42.06800079345703 -48.91899871826172,-32.72800064086914 C-86.13200378417969,-15.397000312805176 -92.0510025024414,-9.642000198364258 -112.74500274658203,7.110000133514404 C-111.81400299072266,17.099000930786133 -109.6500015258789,27.13599967956543 -106.14800262451172,37.02399826049805 C-98.22100067138672,59.40999984741211 -84.50800323486328,78.08699798583984 -67.28800201416016,91.97899627685547 C-45.402000427246094,84.70999908447266 -40.73899841308594,84.10900115966797 -7.776000022888184,65.74299621582031 C-0.6909999847412109,61.797000885009766 54.09000015258789,35.12900161743164 111.94400024414062,13.369000434875488z"></path></g><g opacity="1" transform="matrix(1,0,0,1,132.51400756835938,131.6479949951172)"><path fill="rgb(13,108,181)" fill-opacity="1" d=" M68.75,-17.584999084472656 C61.61800003051758,-22.27199935913086 10.031000137329102,-60.465999603271484 -38.36899948120117,-103.92900085449219 C-66.77899932861328,-92.03399658203125 -90.82099914550781,-69.58899688720703 -104.0719985961914,-39.11199951171875 C-108.81600189208984,-28.200000762939453 -111.86100006103516,-16.97800064086914 -113.33000183105469,-5.738999843597412 C-67.56999969482422,23.91200065612793 -22.2450008392334,55.22700119018555 -3.7769999504089355,69.4020004272461 C24.020999908447266,90.73899841308594 30.400999069213867,92.78800201416016 52.516998291015625,103.92900085449219 C74.88800048828125,91.1449966430664 93.4749984741211,71.2959976196289 104.53900146484375,45.85100173950195 C108.8270034790039,35.98899841308594 111.72699737548828,25.875 113.33000183105469,15.72599983215332 C97.22899627685547,1.5670000314712524 94.98899841308594,-0.33899998664855957 68.75,-17.584999084472656z"></path></g></g><g transform="matrix(1,0,0,1,148.14569091796875,242.3016357421875)" opacity="1" style="display: none;"><g opacity="1" transform="matrix(1,0,0,1,151.08999633789062,164.0959930419922)"><path fill="rgb(13,108,181)" fill-opacity="1" d=" M-17.604000091552734,-105.64199829101562 C-7.9070000648498535,-101.0719985961914 15.118000030517578,-93.05699920654297 33.15800094604492,-82.98999786376953 C62.57099914550781,-66.572998046875 150.1009979248047,-10.788999557495117 142.79299926757812,3.305000066757202 C135.48699951171875,17.39900016784668 26.96299934387207,-61.61899948120117 21.10300064086914,-48.77399826049805 C21.10300064086914,-48.77399826049805 60.47800064086914,-18.215999603271484 87.66999816894531,7.943999767303467 C113.87699890136719,33.15700149536133 126.98100280761719,56.39899826049805 122.67500305175781,60.073001861572266 C113.90399932861328,67.56300354003906 88.42400360107422,45.11600112915039 65.4749984741211,25.922000885009766 C39.430999755859375,4.140999794006348 13.515000343322754,-21.86400032043457 7.285999774932861,-17.631999969482422 C7.285999774932861,-17.631999969482422 49.361000061035156,35.04600143432617 65.70899963378906,53.07899856567383 C82.05699920654297,71.11299896240234 105.53299713134766,97.947998046875 93.78099822998047,109.35399627685547 C82.02799987792969,120.76100158691406 -0.6489999890327454,12.090999603271484 -10.210000038146973,20.198999404907227 C-10.210000038146973,20.198999404907227 63.03300094604492,115.5739974975586 41.96900177001953,127.23799896240234 C27.243999481201172,135.39199829101562 -28.969999313354492,38.80500030517578 -61.551998138427734,13.894000053405762 C-100.48600006103516,-15.871999740600586 -124.64600372314453,-30.90399932861328 -133.46200561523438,-54.54499816894531 C-150.1009979248047,-99.16100311279297 -112.76000213623047,-119.54000091552734 -106.6449966430664,-121.99400329589844 C-73.23799896240234,-135.39199829101562 -27.304000854492188,-110.21099853515625 -17.604000091552734,-105.64199829101562z"></path></g><g opacity="1" transform="matrix(1,0,0,1,131.32899475097656,46.939998626708984)"><path fill="rgb(13,108,181)" fill-opacity="1" d=" M-80.28199768066406,-19.836999893188477 C-72.25,-25.937999725341797 -42.76499938964844,-39.869998931884766 -18.875,-37.6870002746582 C16.253000259399414,-34.4739990234375 67.28099822998047,-46.354000091552734 78.83200073242188,-44.779998779296875 C90.38500213623047,-43.20800018310547 92.80400085449219,-26.408000946044922 71.77100372314453,-15.937000274658203 C59.88199996948242,-10.019000053405762 22.714000701904297,-2.122999906539917 17.135000228881836,-0.6259999871253967 C11.557000160217285,0.871999979019165 -1.4520000219345093,5.4079999923706055 -8.26099967956543,17.847999572753906 C-15.069999694824219,30.285999298095703 -50.79199981689453,46.35300064086914 -77.63999938964844,24.367000579833984 C-92.80400085449219,11.946999549865723 -88.31500244140625,-13.737000465393066 -80.28199768066406,-19.836999893188477z"></path></g><g opacity="1" transform="matrix(1,0,0,1,100.69400024414062,88.62000274658203)"><path stroke-linecap="round" stroke-linejoin="miter" fill-opacity="0" stroke-miterlimit="4" stroke="rgb(134,181,218)" stroke-opacity="1" stroke-width="0.724" d=" M24.281999588012695,-27.759000778198242 C24.281999588012695,-27.759000778198242 18.68199920654297,13.868000030517578 -24.281999588012695,27.759000778198242"></path></g></g><g transform="matrix(1,0,0,1,192.01702880859375,244.34573364257812)" opacity="1" style="display: none;"><g opacity="1" transform="matrix(1,0,0,1,155.04400634765625,160.56900024414062)"><path fill="rgb(240,126,167)" fill-opacity="1" d=" M22.301000595092773,-106.33399963378906 C12.163000106811523,-102.64800262451172 -11.640000343322754,-96.73699951171875 -30.638999938964844,-88.31099700927734 C-61.61899948120117,-74.57099914550781 -154.4459991455078,-26.743000030517578 -148.4219970703125,-11.951000213623047 C-142.3990020751953,2.8429999351501465 -26.402000427246094,-66.33200073242188 -21.71299934387207,-52.92399978637695 C-21.71299934387207,-52.92399978637695 -63.972999572753906,-25.93600082397461 -93.625,-2.2300000190734863 C-122.19999694824219,20.618000030517578 -137.4669952392578,42.69599914550781 -133.4929962158203,46.775001525878906 C-125.39299774169922,55.084999084472656 -97.8010025024414,34.941001892089844 -73.04199981689453,17.823999404907227 C-44.94499969482422,-1.600000023841858 -16.589000701904297,-25.264999389648438 -10.734999656677246,-20.451000213623047 C-10.734999656677246,-20.451000213623047 -57.7400016784668,28.448999404907227 -75.77799987792969,45.0099983215332 C-93.81500244140625,61.573001861572266 -119.80400085449219,86.29499816894531 -109.08000183105469,98.80599975585938 C-98.35600280761719,111.31500244140625 -5.5229997634887695,10.057999610900879 3.309999942779541,19.05900001525879 C3.309999942779541,19.05900001525879 -78.8499984741211,107.86699676513672 -58.81999969482422,121.49199676513672 C-44.81800079345703,131.01699829101562 20.389999389648438,39.426998138427734 55.32500076293945,17.4689998626709 C97.0719985961914,-8.769000053405762 122.65899658203125,-21.60300064086914 133.66799926757812,-44.47600173950195 C154.4459991455078,-87.64199829101562 118.91200256347656,-111.49700164794922 113.01200103759766,-114.51699829101562 C80.7760009765625,-131.01699829101562 32.43899917602539,-110.0199966430664 22.301000595092773,-106.33399963378906z"></path></g><g opacity="1" transform="matrix(1,0,0,1,177.58900451660156,44.74300003051758)"><path fill="rgb(240,126,167)" fill-opacity="1" d=" M78.16799926757812,-22.055999755859375 C70.1259994506836,-27.78499984741211 40.86199951171875,-40.534000396728516 17.55500030517578,-37.68199920654297 C-16.71500015258789,-33.4900016784668 -66.99600219726562,-43.58599853515625 -78.2509994506836,-41.70399856567383 C-89.50599670410156,-39.82099914550781 -91.37100219726562,-23.309999465942383 -70.4800033569336,-13.694000244140625 C-58.67100143432617,-8.258000373840332 -22.070999145507812,-1.6480000019073486 -16.569000244140625,-0.3479999899864197 C-11.065999984741211,0.949999988079071 1.7970000505447388,5.001999855041504 8.833000183105469,16.966999053955078 C15.864999771118164,28.93400001525879 51.292999267578125,43.584999084472656 76.90499877929688,21.270999908447266 C91.37100219726562,8.666999816894531 86.20999908447266,-16.32699966430664 78.16799926757812,-22.055999755859375z"></path></g></g><g transform="matrix(1,0,0,1,154,249)" opacity="1" style="display: block;"><g opacity="1" transform="matrix(1,0,0,1,166.76400756835938,121.32099914550781)"><path fill="rgb(13,108,181)" fill-opacity="1" d=" M-22.788000106811523,-93.99500274658203 C-9.51099967956543,-92.9530029296875 21.670000076293945,-80.69999694824219 46.6609992980957,-71.33100128173828 C85.84300231933594,-56.64400100708008 165.08700561523438,-2.3489999771118164 166.11900329589844,21.31399917602539 C166.48300170898438,29.665000915527344 165.052001953125,39.433998107910156 154.77699279785156,43.66400146484375 C150.19200134277344,45.551998138427734 152.71099853515625,45.60599899291992 149.3979949951172,56.21099853515625 C147.07200622558594,63.65999984741211 139.80299377441406,71.83300018310547 129.0050048828125,68.25800323486328 C122.66500091552734,66.15799713134766 126.41999816894531,72.9020004272461 120.49800109863281,81.00599670410156 C116.65699768066406,86.26300048828125 107.6050033569336,88.54299926757812 90.58799743652344,82.31199645996094 C82.41999816894531,79.31999969482422 79.19100189208984,77.26100158691406 81.24700164794922,87.947998046875 C83.73999786376953,100.91400146484375 74.90799713134766,105.97699737548828 66.61399841308594,107.9469985961914 C47.63600158691406,112.45700073242188 1.8459999561309814,96.18299865722656 -39.89099884033203,72.0530014038086 C-92.5989990234375,41.58000183105469 -124.33100128173828,35.393001556396484 -139.55799865722656,5.609000205993652 C-166.48300170898438,-47.05799865722656 -137.43299865722656,-76.64700317382812 -131.4080047607422,-82.19000244140625 C-98.49700164794922,-112.45700073242188 -36.064998626708984,-95.03500366210938 -22.788000106811523,-93.99500274658203z"></path></g><g opacity="1" transform="matrix(1,0,0,1,203.32000732421875,58.10900115966797)"><path fill="rgb(240,126,167)" fill-opacity="1" d=" M97.44599914550781,-12.595000267028809 C89.36299896240234,-20.667999267578125 58.40299987792969,-40.805999755859375 31.259000778198242,-42.00199890136719 C15.454000473022461,-42.69900131225586 -2.7890000343322754,-46.43299865722656 -19.881000518798828,-50.689998626708984 C-45.948001861572266,-57.18299865722656 -80.18800354003906,-37.229000091552734 -88.16000366210938,-37.229000091552734 C-101.36499786376953,-37.229000091552734 -106.64600372314453,-18.742000579833984 -84.63999938964844,-3.7790000438690186 C-72.2030029296875,4.677999973297119 -20.844999313354492,-8.447999954223633 -14.812999725341797,-5.914000034332275 C-8.781999588012695,-3.381999969482422 5.124000072479248,3.697999954223633 10.866999626159668,18.697999954223633 C16.607999801635742,33.698001861572266 54.24100112915039,57.18299865722656 87.72899627685547,36.606998443603516 C106.6449966430664,24.988000869750977 105.52899932861328,-4.521999835968018 97.44599914550781,-12.595000267028809z"></path></g><g opacity="1" transform="matrix(1,0,0,1,182.06199645996094,124.4990005493164)"><path fill="rgb(240,126,167)" fill-opacity="1" d=" M7.1020002365112305,-82.00900268554688 C-6.034999847412109,-79.81600189208984 -39.90299987792969,-63.59299850463867 -62.111000061035156,-48.7869987487793 C-78.72200012207031,-37.7130012512207 -99.19499969482422,-28.110000610351562 -118.86499786376953,-14.873000144958496 C-144.0679931640625,2.0899999141693115 -170.1790008544922,13.036999702453613 -167.9429931640625,23.886999130249023 C-166.66900634765625,30.066999435424805 -161.77699279785156,44.007999420166016 -144.8260040283203,40.80400085449219 C-139.02200317382812,39.70899963378906 -134.64599609375,40.082000732421875 -134.64599609375,40.082000732421875 C-135.1999969482422,44.007999420166016 -134.0189971923828,50.42900085449219 -131.52000427246094,54.17100143432617 C-127.18099975585938,60.659000396728516 -117.13700103759766,64.86199951171875 -106.46900177001953,60.92100143432617 C-97.552001953125,57.62799835205078 -95.05599975585938,56.970001220703125 -95.05599975585938,56.970001220703125 C-94.77899932861328,63.060001373291016 -87.20500183105469,85.91699981689453 -64.70899963378906,79.1449966430664 C-55.88199996948242,76.48799896240234 -51.729000091552734,74.41200256347656 -51.729000091552734,74.41200256347656 C-55.189998626708984,84.37899780273438 -41.22999954223633,97.83499908447266 -35.10300064086914,98.43800354003906 C-14.293999671936035,100.48899841308594 5.458000183105469,89.15599822998047 26.18899917602539,82.23799896240234 C83.93900299072266,62.96699905395508 116.72699737548828,49.952999114990234 135.24200439453125,24.659000396728516 C170.1790008544922,-23.070999145507812 129.6739959716797,-68.20899963378906 123.18900299072266,-73.2040023803711 C87.76599884033203,-100.48899841308594 20.23900032043457,-84.2030029296875 7.1020002365112305,-82.00900268554688z"></path></g><g opacity="1" transform="matrix(1,0,0,1,159.68099975585938,184.82200622558594)"><path stroke-linecap="round" stroke-linejoin="miter" fill-opacity="0" stroke-miterlimit="4" stroke="rgb(247,190,210)" stroke-opacity="1" stroke-width="4.291" d=" M-24.1560001373291,10.82699966430664 C-24.1560001373291,10.82699966430664 16.868999481201172,-5.289999961853027 24.1560001373291,-10.82699966430664"></path></g><g opacity="1" transform="matrix(1,0,0,1,116,168.50900268554688)"><path stroke-linecap="round" stroke-linejoin="miter" fill-opacity="0" stroke-miterlimit="4" stroke="rgb(247,190,210)" stroke-opacity="1" stroke-width="4.291" d=" M-24.1560001373291,10.82699966430664 C-24.1560001373291,10.82699966430664 16.868999481201172,-5.289999961853027 24.1560001373291,-10.82699966430664"></path></g><g opacity="1" transform="matrix(1,0,0,1,75.31900024414062,151.63299560546875)"><path stroke-linecap="round" stroke-linejoin="miter" fill-opacity="0" stroke-miterlimit="4" stroke="rgb(247,190,210)" stroke-opacity="1" stroke-width="4.291" d=" M-24.1560001373291,10.82699966430664 C-24.1560001373291,10.82699966430664 16.868999481201172,-5.289999961853027 24.1560001373291,-10.82699966430664"></path></g><g opacity="1" transform="matrix(1,0,0,1,137.7740020751953,59.59400177001953)"><path fill="rgb(13,108,181)" fill-opacity="1" d=" M-71.87799835205078,-38.77899932861328 C-61.36000061035156,-43.236000061035156 -25.059999465942383,-48.8120002746582 2.003000020980835,-46.39699935913086 C19.981000900268555,-44.79199981689453 27.815000534057617,-43.481998443603516 44.55500030517578,-40.68000030517578 C63.66899871826172,-37.48099899291992 75.5009994506836,-14.689000129699707 98.45500183105469,-6.03000020980835 C110.80899810791016,-1.3700000047683716 108.66899871826172,18.03499984741211 82.66100311279297,23.665000915527344 C67.95999908447266,26.847000122070312 38.89099884033203,8.10200023651123 32.78300094604492,5.763999938964844 C20.233999252319336,0.9570000171661377 4.738999843597412,7.03000020980835 -6.204999923706055,18.78499984741211 C-17.148000717163086,30.54199981689453 -74.27899932861328,48.8120002746582 -97.6240005493164,17.18899917602539 C-110.80899810791016,-0.6700000166893005 -82.39700317382812,-34.323001861572266 -71.87799835205078,-38.77899932861328z"></path></g><g opacity="1" transform="matrix(1,0,0,1,231.52099609375,199.05299377441406)"><path fill="rgb(13,108,181)" fill-opacity="1" d=" M15.105999946594238,-5.2870001792907715 C15.105999946594238,-5.2870001792907715 5.313000202178955,-28.9060001373291 -11.163999557495117,-24.055999755859375 C-27.638999938964844,-19.204999923706055 -16.97599983215332,24.4689998626709 1.2879999876022339,26.687999725341797 C19.55500030517578,28.9060001373291 27.638999938964844,9.61400032043457 15.105999946594238,-5.2870001792907715z"></path></g><g opacity="1" transform="matrix(1,0,0,1,252.3699951171875,172.96800231933594)"><path fill="rgb(13,108,181)" fill-opacity="1" d=" M17.875,-3.3989999294281006 C17.875,-3.3989999294281006 -2.7730000019073486,-32.15599822998047 -17.950000762939453,-24.114999771118164 C-33.125999450683594,-16.07699966430664 -7.632999897003174,32.15700149536133 10.708000183105469,30.687999725341797 C29.052000045776367,29.22100067138672 33.125999450683594,8.704999923706055 17.875,-3.3989999294281006z"></path></g><g opacity="1" transform="matrix(1,0,0,1,284.5299987792969,157.13099670410156)"><path fill="rgb(13,108,181)" fill-opacity="1" d=" M18.389999389648438,-3.4260001182556152 C14.260000228881836,-7.382999897003174 -4.045000076293945,-31.61199951171875 -19.22100067138672,-23.57200050354004 C-34.39899826049805,-15.53600025177002 -8.95300006866455,31.61199951171875 9.388999938964844,30.145000457763672 C27.73200035095215,28.67799949645996 34.39899826049805,11.913999557495117 18.389999389648438,-3.4260001182556152z"></path></g><g opacity="1" transform="matrix(1,0,0,1,309.4020080566406,136.79299926757812)"><path fill="rgb(13,108,181)" fill-opacity="1" d=" M17.024999618530273,-8.170999526977539 C11.364999771118164,-12.878999710083008 2.315999984741211,-28.371999740600586 -12.859999656677246,-20.333999633789062 C-28.038000106811523,-12.295999526977539 -8.885000228881836,28.371999740600586 9.458999633789062,26.90399932861328 C27.799999237060547,25.437000274658203 28.038000106811523,0.9879999756813049 17.024999618530273,-8.170999526977539z"></path></g></g><g transform="matrix(0.6717514395713806,-0.6717514395713806,0.6717514395713806,0.6717514395713806,32.15838623046875,101.94164276123047)" opacity="1" style="display: block;"><g opacity="1" transform="matrix(1,0,0,1,140.2469940185547,108.91600036621094)"><path fill="rgb(248,192,194)" fill-opacity="1" d=" M0,11.930999755859375 C6.590000152587891,11.930999755859375 11.930999755859375,6.590000152587891 11.930999755859375,0.0010000000474974513 C11.930999755859375,-6.589000225067139 6.590000152587891,-11.930999755859375 0,-11.930999755859375 C-6.590000152587891,-11.930999755859375 -11.930999755859375,-6.589000225067139 -11.930999755859375,0.0010000000474974513 C-11.930999755859375,6.590000152587891 -6.590000152587891,11.930999755859375 0,11.930999755859375z"></path></g></g><g transform="matrix(0.6717514395713806,0.6717514395713806,-0.6717514395713806,0.6717514395713806,239.56019592285156,-294.96734619140625)" opacity="1" style="display: block;"><g opacity="1" transform="matrix(1,0,0,1,437.3009948730469,76.78700256347656)"><path fill="rgb(248,192,20)" fill-opacity="1" d=" M0,11.187999725341797 C6.179999828338623,11.187999725341797 11.189000129699707,6.177999973297119 11.189000129699707,-0.0010000000474974513 C11.189000129699707,-6.179999828338623 6.179999828338623,-11.187999725341797 0,-11.187999725341797 C-6.178999900817871,-11.187999725341797 -11.189000129699707,-6.179999828338623 -11.189000129699707,-0.0010000000474974513 C-11.189000129699707,6.177999973297119 -6.178999900817871,11.187999725341797 0,11.187999725341797z"></path></g></g><g transform="matrix(0.6717514395713806,-0.6717514395713806,0.6717514395713806,0.6717514395713806,182.71395874023438,225.44122314453125)" opacity="1" style="display: block;"><g opacity="1" transform="matrix(1,0,0,1,287.6130065917969,17.288999557495117)"><path fill="rgb(206,141,42)" fill-opacity="1" d=" M-1.9420000314712524,11.017999649047852 C4.144000053405762,12.09000015258789 9.946999549865723,8.027999877929688 11.020000457763672,1.944000005722046 C12.092000007629395,-4.142000198364258 8.029000282287598,-9.944000244140625 1.944000005722046,-11.017999649047852 C-4.139999866485596,-12.09000015258789 -9.944999694824219,-8.027999877929688 -11.017000198364258,-1.944000005722046 C-12.090999603271484,4.142000198364258 -8.027999877929688,9.946000099182129 -1.9420000314712524,11.017999649047852z"></path></g></g><g transform="matrix(0.6717514395713806,0.6717514395713806,-0.6717514395713806,0.6717514395713806,213.90574645996094,-38.541778564453125)" opacity="1" style="display: block;"><g opacity="1" transform="matrix(1,0,0,1,97.97599792480469,179.14999389648438)"><path fill="rgb(230,36,40)" fill-opacity="1" d=" M0.0010000000474974513,5.965000152587891 C3.2960000038146973,5.965000152587891 5.966000080108643,3.2950000762939453 5.966000080108643,0 C5.966000080108643,-3.2950000762939453 3.2960000038146973,-5.965000152587891 0.0010000000474974513,-5.965000152587891 C-3.2939999103546143,-5.965000152587891 -5.966000080108643,-3.2950000762939453 -5.966000080108643,0 C-5.966000080108643,3.2950000762939453 -3.2939999103546143,5.965000152587891 0.0010000000474974513,5.965000152587891z"></path></g></g><g transform="matrix(0.6717514395713806,-0.6717514395713806,0.6717514395713806,0.6717514395713806,-29.154022216796875,367.09027099609375)" opacity="1" style="display: block;"><g opacity="1" transform="matrix(1,0,0,1,444.885009765625,326.375)"><path fill="rgb(40,193,237)" fill-opacity="1" d=" M0,5.593999862670898 C3.0889999866485596,5.593999862670898 5.593999862670898,3.0910000801086426 5.593999862670898,0.0010000000474974513 C5.593999862670898,-3.0880000591278076 3.0889999866485596,-5.593999862670898 0,-5.593999862670898 C-3.0899999141693115,-5.593999862670898 -5.593999862670898,-3.0880000591278076 -5.593999862670898,0.0010000000474974513 C-5.593999862670898,3.0910000801086426 -3.0899999141693115,5.593999862670898 0,5.593999862670898z"></path></g></g><g transform="matrix(0.6717514395713806,0.6717514395713806,-0.6717514395713806,0.6717514395713806,258.07037353515625,-102.68719482421875)" opacity="1" style="display: block;"><g opacity="1" transform="matrix(1,0,0,1,6.340000152587891,266.47698974609375)"><path fill="rgb(40,193,237)" fill-opacity="1" d=" M0,5.593999862670898 C3.0899999141693115,5.593999862670898 5.593999862670898,3.0910000801086426 5.593999862670898,0.0010000000474974513 C5.593999862670898,-3.0880000591278076 3.0899999141693115,-5.593999862670898 0,-5.593999862670898 C-3.0889999866485596,-5.593999862670898 -5.593999862670898,-3.0880000591278076 -5.593999862670898,0.0010000000474974513 C-5.593999862670898,3.0910000801086426 -3.0889999866485596,5.593999862670898 0,5.593999862670898z"></path></g></g><g transform="matrix(0.6717514395713806,-0.6717514395713806,0.6717514395713806,0.6717514395713806,-122.11181640625,141.9655303955078)" opacity="1" style="display: block;"><g opacity="1" transform="matrix(1,0,0,1,109.90699768066406,326.0039978027344)"><path fill="rgb(250,210,6)" fill-opacity="1" d=" M0,5.965000152587891 C3.2950000762939453,5.965000152587891 5.966000080108643,3.2950000762939453 5.966000080108643,0 C5.966000080108643,-3.2950000762939453 3.2950000762939453,-5.965000152587891 0,-5.965000152587891 C-3.2950000762939453,-5.965000152587891 -5.966000080108643,-3.2950000762939453 -5.966000080108643,0 C-5.966000080108643,3.2950000762939453 -3.2950000762939453,5.965000152587891 0,5.965000152587891z"></path></g></g><g transform="matrix(0.6717514395713806,0.6717514395713806,-0.6717514395713806,0.6717514395713806,296.039306640625,-174.6517333984375)" opacity="1" style="display: block;"><g opacity="1" transform="matrix(1,0,0,1,314.1499938964844,211.87600708007812)"><path fill="rgb(248,192,194)" fill-opacity="1" d=" M0.0010000000474974513,4.949999809265137 C2.7360000610351562,4.949999809265137 4.949999809265137,2.734999895095825 4.949999809265137,0 C4.949999809265137,-2.734999895095825 2.7360000610351562,-4.949999809265137 0.0010000000474974513,-4.949999809265137 C-2.7339999675750732,-4.949999809265137 -4.949999809265137,-2.734999895095825 -4.949999809265137,0 C-4.949999809265137,2.734999895095825 -2.7339999675750732,4.949999809265137 0.0010000000474974513,4.949999809265137z"></path></g></g><g transform="matrix(0.6717514395713806,-0.6717514395713806,0.6717514395713806,0.6717514395713806,104.7664794921875,342.09832763671875)" opacity="1" style="display: block;"><g opacity="1" transform="matrix(1,0,0,1,483.614013671875,143.05599975585938)"><path fill="rgb(250,210,6)" fill-opacity="1" d=" M0,5.593999862670898 C3.0899999141693115,5.593999862670898 5.593999862670898,3.0910000801086426 5.593999862670898,0.0020000000949949026 C5.593999862670898,-3.0880000591278076 3.0899999141693115,-5.593999862670898 0,-5.593999862670898 C-3.0889999866485596,-5.593999862670898 -5.593999862670898,-3.0880000591278076 -5.593999862670898,0.0020000000949949026 C-5.593999862670898,3.0910000801086426 -3.0889999866485596,5.593999862670898 0,5.593999862670898z"></path></g></g><g transform="matrix(0.6717514395713806,0.6717514395713806,-0.6717514395713806,0.6717514395713806,277.21405029296875,-479.69415283203125)" opacity="1" style="display: block;"><g opacity="1" transform="matrix(1,0,0,1,520.4500122070312,382.7309875488281)"><path fill="rgb(250,210,6)" fill-opacity="1" d=" M0,5.593999862670898 C3.0899999141693115,5.593999862670898 5.593999862670898,3.0910000801086426 5.593999862670898,0.0010000000474974513 C5.593999862670898,-3.0880000591278076 3.0899999141693115,-5.593999862670898 0,-5.593999862670898 C-3.0899999141693115,-5.593999862670898 -5.593999862670898,-3.0880000591278076 -5.593999862670898,0.0010000000474974513 C-5.593999862670898,3.0910000801086426 -3.0899999141693115,5.593999862670898 0,5.593999862670898z"></path></g></g><g transform="matrix(0.6717514395713806,-0.6717514395713806,0.6717514395713806,0.6717514395713806,32.36541748046875,79.77295684814453)" opacity="1" style="display: block;"><g opacity="1" transform="matrix(1,0,0,1,112.18699645996094,96.98500061035156)"><path fill="rgb(250,210,6)" fill-opacity="1" d=" M0,5.593999862670898 C3.0899999141693115,5.593999862670898 5.593999862670898,3.0910000801086426 5.593999862670898,0.0010000000474974513 C5.593999862670898,-3.0880000591278076 3.0899999141693115,-5.593999862670898 0,-5.593999862670898 C-3.0889999866485596,-5.593999862670898 -5.593999862670898,-3.0880000591278076 -5.593999862670898,0.0010000000474974513 C-5.593999862670898,3.0910000801086426 -3.0889999866485596,5.593999862670898 0,5.593999862670898z"></path></g></g><g transform="matrix(0.6717514395713806,0.6717514395713806,-0.6717514395713806,0.6717514395713806,260.49383544921875,-356.13677978515625)" opacity="1" style="display: block;"><g opacity="1" transform="matrix(1,0,0,1,526.0449829101562,71.19200134277344)"><path fill="rgb(248,192,194)" fill-opacity="1" d=" M0,5.593999862670898 C3.0889999866485596,5.593999862670898 5.593999862670898,3.0910000801086426 5.593999862670898,0.0010000000474974513 C5.593999862670898,-3.0889999866485596 3.0889999866485596,-5.593999862670898 0,-5.593999862670898 C-3.0899999141693115,-5.593999862670898 -5.593999862670898,-3.0889999866485596 -5.593999862670898,0.0010000000474974513 C-5.593999862670898,3.0910000801086426 -3.0899999141693115,5.593999862670898 0,5.593999862670898z"></path></g></g><g transform="matrix(0.6717514395713806,-0.6717514395713806,0.6717514395713806,0.6717514395713806,101.16621398925781,158.63540649414062)" opacity="1" style="display: block;"><g opacity="1" transform="matrix(1,0,0,1,248.60499572753906,51.071998596191406)"><path fill="rgb(230,36,40)" fill-opacity="1" d=" M-1.0369999408721924,5.875 C2.2070000171661377,6.447000026702881 5.302000045776367,4.28000020980835 5.873000144958496,1.0360000133514404 C6.447000026702881,-2.2090001106262207 4.28000020980835,-5.302000045776367 1.034999966621399,-5.874000072479248 C-2.2090001106262207,-6.447000026702881 -5.303999900817871,-4.281000137329102 -5.875999927520752,-1.034999966621399 C-6.447000026702881,2.2079999446868896 -4.28000020980835,5.302999973297119 -1.0369999408721924,5.875z"></path></g></g><g transform="matrix(0.6717514395713806,0.6717514395713806,-0.6717514395713806,0.6717514395713806,348.74249267578125,-345.1963806152344)" opacity="1" style="display: block;"><g opacity="1" transform="matrix(1,0,0,1,558.5889892578125,189.08099365234375)"><path fill="rgb(230,36,40)" fill-opacity="1" d=" M0.0010000000474974513,5.593999862670898 C3.0899999141693115,5.593999862670898 5.593999862670898,3.0910000801086426 5.593999862670898,0.0010000000474974513 C5.593999862670898,-3.0880000591278076 3.0899999141693115,-5.593999862670898 0.0010000000474974513,-5.593999862670898 C-3.0889999866485596,-5.593999862670898 -5.593999862670898,-3.0880000591278076 -5.593999862670898,0.0010000000474974513 C-5.593999862670898,3.0910000801086426 -3.0889999866485596,5.593999862670898 0.0010000000474974513,5.593999862670898z"></path></g></g><g transform="matrix(0.6717514395713806,-0.6717514395713806,0.6717514395713806,0.6717514395713806,-213.92538452148438,277.1018981933594)" opacity="1" style="display: block;"><g opacity="1" transform="matrix(1,0,0,1,534.9949951171875,299.34698486328125)"><path fill="rgb(206,141,42)" fill-opacity="1" d=" M0,8.949999809265137 C4.943999767303467,8.949999809265137 8.951000213623047,4.943999767303467 8.951000213623047,0 C8.951000213623047,-4.942999839782715 4.943999767303467,-8.949999809265137 0,-8.949999809265137 C-4.942999839782715,-8.949999809265137 -8.951000213623047,-4.942999839782715 -8.951000213623047,0 C-8.951000213623047,4.943999767303467 -4.942999839782715,8.949999809265137 0,8.949999809265137z"></path></g></g><g transform="matrix(0.6717514395713806,0.6717514395713806,-0.6717514395713806,0.6717514395713806,177.07411193847656,9.222190856933594)" opacity="1" style="display: block;"><g opacity="1" transform="matrix(1,0,0,1,17.899999618530273,157.48899841308594)"><path fill="rgb(206,141,42)" fill-opacity="1" d=" M0.0010000000474974513,5.965000152587891 C3.2960000038146973,5.965000152587891 5.966000080108643,3.2950000762939453 5.966000080108643,0 C5.966000080108643,-3.2950000762939453 3.2960000038146973,-5.965000152587891 0.0010000000474974513,-5.965000152587891 C-3.2939999103546143,-5.965000152587891 -5.966000080108643,-3.2950000762939453 -5.966000080108643,0 C-5.966000080108643,3.2950000762939453 -3.2939999103546143,5.965000152587891 0.0010000000474974513,5.965000152587891z"></path></g></g><g transform="matrix(0.949999988079071,0,0,0.949999988079071,16.300094604492188,-78.57528686523438)" opacity="1" style="display: block;"><g opacity="1" transform="matrix(1,0,0,1,81.29299926757812,261.88299560546875)"><path fill="rgb(248,192,194)" fill-opacity="1" d=" M-18.341999053955078,-20.687999725341797 C-25.299999237060547,-8.63700008392334 -21.170000076293945,6.7729997634887695 -9.119000434875488,13.730999946594238 C2.930999994277954,20.687999725341797 18.341999053955078,16.55900001525879 25.299999237060547,4.507999897003174 C25.299999237060547,4.507999897003174 -18.341999053955078,-20.687999725341797 -18.341999053955078,-20.687999725341797z"></path></g></g><g transform="matrix(0.949999988079071,0,0,0.949999988079071,66.30010986328125,-22.574295043945312)" opacity="1" style="display: block;"><g opacity="1" transform="matrix(1,0,0,1,412.0480041503906,165.8280029296875)"><path fill="rgb(230,36,40)" fill-opacity="1" d=" M-26.25200080871582,-26.65399932861328 C-34.42499923706055,-9.89900016784668 -27.468000411987305,10.310999870300293 -10.711999893188477,18.482999801635742 C6.044000148773193,26.65399932861328 26.253000259399414,19.695999145507812 34.42599868774414,2.940999984741211 C34.42599868774414,2.940999984741211 -26.25200080871582,-26.65399932861328 -26.25200080871582,-26.65399932861328z"></path></g></g><g transform="matrix(0.949999988079071,0,0,0.949999988079071,66.29949951171875,-22.575592041015625)" opacity="1" style="display: block;"><g opacity="1" transform="matrix(1,0,0,1,449.5350036621094,249.0330047607422)"><path fill="rgb(57,161,218)" fill-opacity="1" d=" M-22.003999710083008,-4.986000061035156 C-19.565000534057617,6.493000030517578 -8.279999732971191,13.821999549865723 3.1989998817443848,11.381999969482422 C14.677000045776367,8.942000389099121 22.003999710083008,-2.3429999351501465 19.56399917602539,-13.821999549865723 C19.56399917602539,-13.821999549865723 -22.003999710083008,-4.986000061035156 -22.003999710083008,-4.986000061035156z"></path></g></g><g transform="matrix(0.6717514395713806,0.6717514395713806,-0.6717514395713806,0.6717514395713806,146.89047241210938,-65.57030487060547)" opacity="1" style="display: block;"><g opacity="1" transform="matrix(1,0,0,1,214.3820037841797,25.21500015258789)"><path fill="rgb(13,108,181)" fill-opacity="1" d=" M-3.9630000591278076,22.475000381469727 C8.449999809265137,24.663000106811523 20.28700065612793,16.375 22.475000381469727,3.9630000591278076 C24.663999557495117,-8.449000358581543 16.375,-20.285999298095703 3.9630000591278076,-22.475000381469727 C-8.449000358581543,-24.663999557495117 -20.285999298095703,-16.375999450683594 -22.475000381469727,-3.9630000591278076 C-24.663999557495117,8.449000358581543 -16.375,20.285999298095703 -3.9630000591278076,22.475000381469727z"></path></g></g><g transform="matrix(0.6717514395713806,-0.6717514395713806,0.6717514395713806,0.6717514395713806,-7.810394287109375,150.2265167236328)" opacity="1" style="display: block;"><g opacity="1" transform="matrix(1,0,0,1,180.56300354003906,185.11599731445312)"><path fill="rgb(40,192,238)" fill-opacity="1" d=" M0,15.708000183105469 C8.677000045776367,15.708000183105469 15.708999633789062,8.677000045776367 15.708999633789062,0.0010000000474974513 C15.708999633789062,-8.675999641418457 8.677000045776367,-15.708000183105469 0,-15.708000183105469 C-8.675999641418457,-15.708000183105469 -15.708999633789062,-8.675999641418457 -15.708999633789062,0.0010000000474974513 C-15.708999633789062,8.677000045776367 -8.675999641418457,15.708000183105469 0,15.708000183105469z"></path></g></g></g></svg>