<?xml version="1.0" encoding="utf-8" ?>
<!DOCTYPE svg PUBLIC "-//W3C//DTD SVG 1.1//EN" "http://www.w3.org/Graphics/SVG/1.1/DTD/svg11.dtd">
<svg xmlns="http://www.w3.org/2000/svg" viewBox="0 0 281.47 229.44"><defs><style>.cls-1,.cls-4,.cls-5{fill:none;stroke-miterlimit:10;}.cls-1{stroke:#d7e2f2;stroke-width:8px;}.cls-2{fill:#d7e2f2;}.cls-3{fill:#1c2666;}.cls-4{stroke:#28c0ef;}.cls-4,.cls-5{stroke-width:4px;}.cls-5{stroke:#fff;}.cls-6{fill:#fff;}.cls-7{fill:#e96024;}.cls-8{fill:#fbd207;}.cls-9{fill:#f9c0c2;}.cls-10{fill:#7fb742;}.cls-11{fill:#28c0ef;}.cls-12{fill:#c3d95e;}</style></defs><g id="Layer_2" data-name="Layer 2"><g id="Portfolio"><path class="cls-1" d="M199.25,36.83l-1.67-13.27a14.35,14.35,0,0,0-16.37-12l-52.78,8.11a14.37,14.37,0,0,0-12,16.38l1.67,10.82"/><rect class="cls-2" x="126.53" y="6.08" width="55.14" height="19.29" rx="6.29" transform="translate(308.8 7.85) rotate(171.26)"/><rect class="cls-2" x="54.01" y="38.89" width="222.13" height="155.17" rx="15.69" transform="translate(340.24 217.14) rotate(174.68)"/><rect class="cls-3" x="111.53" y="75.7" width="142.06" height="104.28" transform="translate(376.19 238.18) rotate(174.68)"/><rect class="cls-4" x="76.24" y="60.25" width="140.01" height="102.77" transform="translate(310.05 195.4) rotate(169.73)"/><path class="cls-5" d="M266.41,34.13,238.61,100a28.77,28.77,0,0,1-23.83,17.46l-46.1,4.29-3.09.29-46.1,4.3a28.77,28.77,0,0,1-26.64-12.75L50.52,51"/><rect class="cls-6" x="151.07" y="106.56" width="28.19" height="41.04" transform="translate(341.41 238.28) rotate(174.68)"/><circle class="cls-7" cx="7.9" cy="139.91" r="7.89"/><circle class="cls-8" cx="10.59" cy="116.48" r="4.6"/><circle class="cls-9" cx="48.84" cy="33.45" r="4.6"/><circle class="cls-2" cx="33.05" cy="119.87" r="11.17"/><circle class="cls-10" cx="52.34" cy="170.23" r="18"/><circle class="cls-11" cx="225.65" cy="9" r="9"/><path class="cls-12" d="M82.45,54,68,31.82s7.8-6.61,16.53,1.68S82.45,54,82.45,54Z"/><path class="cls-2" d="M27.23,219.66l215.61-.2a4.88,4.88,0,0,1,4.89,4.88h0a4.89,4.89,0,0,1-4.89,4.89l-215.61.21a4.89,4.89,0,0,1-4.89-4.89h0A4.89,4.89,0,0,1,27.23,219.66Z"/></g></g></svg>